<svg width="893" height="1113" viewBox="0 0 893 1113" fill="none" xmlns="http://www.w3.org/2000/svg">
<g opacity="0.15">
<path d="M364.316 1085.24C342.353 1085.24 333.24 1071.91 329.831 1063.97C323.406 1049.16 321.505 1040.08 319.997 1032.74C318.03 1023.25 316.719 1016.93 302.755 996.402C286.43 972.443 245.848 959.455 232.146 959.185C230.048 960.128 227.753 960.599 225.524 960.599C223.295 960.599 221.066 960.128 218.968 959.185C212.543 956.292 208.609 949.562 209.199 942.428C212.805 896.059 203.758 859.38 183.041 836.297C167.503 819.001 145.277 809.511 120.43 809.511C113.153 809.511 105.875 810.319 98.6637 811.934C80.9623 815.905 65.3588 832.73 53.9512 845.045C50.4765 848.814 47.4607 852.045 44.5105 854.804C41.4291 857.698 37.4299 859.246 33.4307 859.246C31.4639 859.246 29.4971 858.909 27.5958 858.169C21.7609 855.881 17.7617 850.429 17.1061 844.103C13.8936 810.386 21.9576 780.505 40.3802 757.691C61.0318 732.184 93.2222 716.84 133.542 713.34C135.706 713.138 137.804 713.071 140.033 713.071C152.62 713.071 165.798 715.831 179.697 718.792C180.615 718.994 181.533 719.195 182.451 719.397C181.992 717.917 181.533 716.436 181.074 714.888C177.992 704.793 174.845 694.564 172.092 684.671C149.08 683.931 119.25 657.011 108.498 612.391C108.432 611.987 108.301 611.583 108.236 611.18C102.204 575.107 93.0911 552.966 81.0279 545.428C80.8312 545.294 80.569 545.159 80.3723 545.024C61.1629 531.699 46.2151 520.056 43.6582 501.683C41.9536 489.57 46.3462 477.119 57.0982 463.794C57.5571 463.188 58.0816 462.65 58.6061 462.179C70.1448 451.142 83.1258 445.556 97.1558 445.556C112.169 445.556 127.904 452.016 145.343 465.544C151.637 362.373 182.319 272.731 238.439 192.779C217.984 172.32 209.724 144.862 213.789 110.875C170.518 48.6905 155.505 1.85007 166.65 -36.0396C168.224 -41.4235 172.289 -45.5961 177.468 -47.2786C183.565 -49.2303 190.121 -50.2397 196.874 -50.2397C226.376 -50.2397 262.041 -32.2708 308.458 6.08994C319.079 0.571377 329.831 -2.2552 340.387 -2.2552C357.432 -2.2552 373.757 4.87855 389.033 19.0787C403.456 15.8484 424.894 12.8872 448.824 12.8872C484.424 12.8872 515.958 19.146 542.642 31.5292C589.714 53.1996 622.757 103.203 648.785 149.169C652.325 155.495 655.865 161.215 659.274 166.734C673.042 189.077 686.023 210.209 689.629 248.301C691.465 267.481 694.94 283.162 698.283 298.304C702.676 317.888 706.806 336.463 706.872 359.749C706.937 387.678 704.118 414.598 701.102 443.133C699.267 460.294 697.365 478.061 695.923 497.713C708.511 490.377 719.984 486.878 731.195 486.878C742.406 486.878 753.158 490.512 764.106 497.915C765.155 498.588 766.073 499.463 766.925 500.338C779.71 514.134 791.052 541.727 787.643 560.907C785.938 570.329 780.824 577.597 773.285 581.299C734.669 600.345 718.607 624.976 721.295 661.183C722.541 678.412 710.477 701.967 698.349 715.561C706.675 714.081 714.28 713.408 721.229 713.408C735.128 713.408 746.864 716.369 756.042 722.224C761.09 725.454 764.106 731.242 763.779 737.366C763.451 743.491 759.976 748.942 754.6 751.634C698.545 779.698 674.747 798.07 672.387 839.19C671.6 853.391 675.796 879.772 679.533 903.058C684.319 933.006 686.941 950.437 684.778 960.733C676.714 998.892 649.113 1012.35 622.429 1025.34C620.2 1026.42 617.774 1026.96 615.414 1026.96C612.464 1026.96 609.579 1026.15 606.957 1024.53C588.206 1012.96 570.505 1007.1 554.443 1007.1C527.301 1007.1 502.912 1023.46 479.9 1057.17C476.753 1061.75 471.705 1064.31 466.46 1064.31C464.493 1064.31 462.526 1063.97 460.625 1063.16C460.56 1063.16 459.248 1062.89 456.495 1062.89C447.775 1062.89 434.794 1065.52 421.813 1069.96C418.601 1071.04 415.323 1072.25 411.979 1073.39C395.72 1079.18 378.936 1085.1 364.12 1085.1L364.316 1085.24Z" fill="#4CFF1F" fill-opacity="0.8"/>
<path d="M196.874 -33.3502C226.311 -33.3502 264.27 -9.93002 306.951 26.6136C318.227 18.7396 329.372 14.6343 340.452 14.6343C355.269 14.6343 369.823 22.0373 384.181 37.718C395.392 34.3531 419.846 29.7094 448.89 29.7094C476.294 29.7094 507.829 33.8147 536.02 46.8708C581.192 67.6663 613.71 120.496 634.755 157.646C652.456 188.94 669.371 206.909 673.436 249.981C677.697 294.937 690.482 320.847 690.613 359.813C690.744 403.087 683.598 443.601 679.664 496.903C679.008 506.325 685.04 516.689 684.384 526.582C704.184 509.959 718.935 503.7 731.326 503.7C740.242 503.7 747.847 506.93 755.256 511.978C768.63 526.447 778.989 560.029 766.335 566.221C737.226 580.556 700.971 606.803 705.102 662.527C706.282 678.611 685.04 717.443 663.208 717.443C662.946 717.443 662.749 717.443 662.487 717.443C661.307 725.25 659.209 736.691 658.029 744.363C682.876 735.479 704.38 730.297 721.361 730.297C731.982 730.297 740.767 732.316 747.585 736.623C689.695 765.63 659.078 788.31 656.193 838.313C654.423 869.405 672.256 941.349 668.912 957.298C662.618 987.045 641.508 997.611 615.545 1010.26C594.238 997.14 573.914 990.41 554.639 990.41C522.449 990.41 493.012 1009.05 466.657 1047.68C464.362 1046.81 460.953 1046.27 456.692 1046.27C447.12 1046.27 433.024 1048.69 416.831 1054.21C398.932 1060.27 379.067 1068.54 364.316 1068.54C355.4 1068.54 348.385 1065.52 344.779 1057.24C330.159 1023.66 342.419 1025.41 316.129 986.91C295.805 957.097 248.995 942.493 231.687 942.493C228.54 942.493 226.311 942.964 225.458 943.973C233.916 835.083 176.616 792.953 120.364 792.953C111.841 792.953 103.319 793.895 95.1235 795.78C66.6701 802.173 45.5595 831.247 33.3651 842.687C27.1369 777.878 67.9157 736.22 134.919 730.365C136.558 730.23 138.262 730.163 140.033 730.163C158.914 730.163 182.254 737.969 205.79 740.796C199.037 715.559 187.433 682.986 182.582 658.287C182.582 664.815 178.779 668.113 173.141 668.113C159.308 668.113 134.067 648.394 124.495 608.552C117.021 563.664 105.089 540.917 89.6819 531.293C62.5397 512.449 49.2964 500.335 69.8825 474.694C78.6021 466.349 87.7151 462.58 97.287 462.58C116.627 462.58 137.672 477.991 160.619 502.488C161.34 389.156 190.908 283.967 260.992 190.151C231.49 169.356 225.524 140.148 231.031 106.767C184.024 40.8138 173.665 -1.24838 182.385 -30.9948C186.974 -32.4754 191.826 -33.1483 196.939 -33.1483M196.874 -67C188.417 -67 180.221 -65.7886 172.551 -63.2985C162.127 -60.0009 153.997 -51.5884 150.916 -40.8878C138.525 1.30901 153.145 51.1779 196.808 115.449C194.251 146.676 201.201 172.99 217.46 194.189C169.863 265.931 141.082 347.296 131.379 437.006C120.692 431.959 109.285 428.795 97.1558 428.795C79.0611 428.795 61.8841 436.064 47.4607 449.927C46.4117 450.937 45.4283 452.014 44.5105 453.158C39.3967 459.484 23.9244 478.799 27.5302 504.171C31.3328 531.293 54.4102 547.31 71.2593 559.02C71.7182 559.289 72.1116 559.626 72.5705 559.895C74.5374 561.106 84.6993 569.519 92.1077 614.071C92.2388 614.879 92.4355 615.686 92.6321 616.494C100.631 649.672 122.659 684.601 151.309 696.917C147.572 696.58 143.77 696.311 140.033 696.311C137.345 696.311 134.722 696.446 132.231 696.648C87.3873 700.551 51.3288 717.981 27.7925 746.988C6.41963 773.369 -2.89001 807.49 0.781399 845.783C2.02705 858.503 10.091 869.338 21.6953 873.914C25.4978 875.395 29.4315 876.135 33.3651 876.135C41.4291 876.135 49.4275 873.04 55.5247 867.252C58.8683 864.156 62.2119 860.522 65.7522 856.686C75.7174 845.985 89.3541 831.247 102.138 828.42C108.17 827.074 114.333 826.401 120.43 826.401C132.1 826.401 154.259 829.16 170.977 847.735C188.482 867.252 196.087 899.488 192.809 941.079C191.695 955.414 199.562 968.874 212.346 974.594C216.608 976.479 221.066 977.421 225.458 977.421C228.474 977.421 231.424 977.017 234.244 976.21C246.11 977.825 277.383 988.593 289.249 1006.09C301.378 1023.86 302.23 1028.23 303.935 1036.31C305.508 1043.98 307.672 1054.41 314.818 1070.9C323.406 1090.75 341.436 1102.13 364.316 1102.13C381.887 1102.13 399.981 1095.67 417.486 1089.47C420.764 1088.33 423.977 1087.19 427.124 1086.11C440.629 1081.53 451.25 1079.92 456.692 1079.92C456.954 1079.92 457.216 1079.92 457.413 1079.92C460.494 1080.86 463.575 1081.33 466.657 1081.33C477.081 1081.33 487.243 1076.22 493.537 1067C522.711 1024.26 546.575 1024.06 554.574 1024.06H554.705C567.752 1024.06 582.568 1029.11 598.762 1039.07C603.941 1042.23 609.776 1043.85 615.677 1043.85C620.463 1043.85 625.248 1042.77 629.707 1040.62C657.111 1027.22 691.268 1010.6 701.037 964.365C703.856 950.972 701.233 933.205 695.989 900.363C692.579 879.029 688.318 852.513 689.039 840.197C690.678 812.201 701.955 796.924 762.074 766.774C772.826 761.39 779.841 750.487 780.431 738.239C781.021 725.99 775.121 714.415 764.959 707.954C755.125 701.695 743.389 697.994 729.949 696.917C735.391 684.87 738.734 671.881 737.882 659.969C735.719 630.963 748.109 612.59 780.628 596.573C792.888 590.516 801.41 578.671 804.033 564.067C808.557 538.763 794.92 505.921 779.12 488.827C777.415 486.942 775.514 485.327 773.416 483.914C759.714 474.626 745.946 470.117 731.457 470.117C725.95 470.117 720.443 470.79 714.87 472.069C715.788 462.782 716.706 453.831 717.624 445.015C720.705 416.009 723.59 388.618 723.524 359.746C723.459 334.576 718.935 314.252 714.542 294.6C711.264 279.996 707.921 264.854 706.216 246.75C702.217 204.688 687.597 180.864 673.436 157.848C670.092 152.396 666.617 146.743 663.274 140.821C635.869 92.4998 600.991 39.8716 549.591 16.2495C520.81 2.92419 486.981 -3.80576 449.086 -3.80576C427.976 -3.80576 408.635 -1.58488 393.819 1.1744C377.232 -12.1509 359.399 -18.8809 340.583 -18.8809C330.684 -18.8809 320.849 -16.9965 311.081 -13.1604C265.057 -49.8386 228.474 -67 196.874 -67Z" fill="#1C1C1C"/>
<path d="M370.741 1163.37C342.55 1163.37 306.623 1154.55 298.034 1129.58C296.92 1126.35 296.002 1123.53 295.15 1121.04C293.576 1116.33 291.937 1111.48 291.216 1110.34C291.15 1110.34 290.364 1109.8 287.938 1108.52C286.496 1107.78 282.693 1106.97 280.202 1106.5C273.121 1105.09 262.435 1102.87 259.091 1091.49C257.78 1087.12 257.714 1082.27 257.649 1075.61C257.518 1067.13 257.255 1049.43 251.814 1045.26C236.473 1033.48 209.134 1024.87 170.65 1019.68C166.585 1019.14 165.274 1018.94 163.307 1018.27C145.212 1011.81 150.26 991.754 152.62 982.13C154.784 973.583 157.406 962.95 155.636 952.922C150.391 923.445 125.872 891.747 105.22 887.709C101.286 886.968 97.5493 886.565 94.0745 886.565C83.3881 886.565 74.5374 890.199 66.9323 897.669C63.7854 900.765 59.7206 902.313 55.5903 902.313C52.5089 902.313 49.4276 901.438 46.674 899.621C40.3146 895.381 37.6266 887.238 40.1179 879.835C57.426 829.764 86.9284 819.265 108.629 819.265C143.901 819.265 177.796 847.733 196.022 872.028C204.807 883.738 218.837 906.283 213.854 925.531C206.052 955.748 205.725 960.729 210.183 969.881C213.067 971.968 219.689 976.14 229.72 978.698C236.079 980.38 243.16 980.851 250.634 981.322C269.319 982.601 292.527 984.149 309.507 1007.23C316.129 1016.32 317.44 1028.16 318.817 1040.75C319.669 1048.55 320.522 1056.63 322.685 1062.69C325.767 1071.57 332.454 1081.06 341.829 1081.06C342.812 1081.06 343.861 1080.93 344.91 1080.79C349.5 1078.97 354.417 1078.03 358.809 1077.29C361.104 1076.89 364.579 1076.21 365.693 1075.74C408.963 1056.97 438.466 1048.55 461.412 1048.55C473.672 1048.55 484.227 1051.04 493.012 1056.02C508.353 1022.64 543.166 1002.59 568.538 1002.59C577.389 1002.59 585.06 1005.08 590.895 1009.86C597.713 1015.51 603.023 1022.44 607.678 1028.5C610.76 1032.54 616.529 1040.07 618.824 1040.61C618.824 1040.61 619.151 1040.61 619.807 1040.34C664.257 1001.11 684.188 972.17 684.253 960.863C684.253 955.681 683.991 948.817 683.663 940.943C682.418 910.927 680.713 869.807 691.334 837.84C691.596 837.032 691.924 836.292 692.317 835.484C708.839 802.979 733.686 779.289 766.27 765.022C766.794 764.753 767.384 764.551 767.909 764.416C777.153 761.522 785.151 760.109 792.363 760.109C808.688 760.109 817.932 767.445 822.849 773.569C832.355 785.481 834.584 803.652 829.667 829.024C828.422 835.484 823.57 840.666 817.276 842.147C784.824 849.886 757.944 869.403 745.422 894.371C735.128 914.763 733.883 945.048 733.424 956.422C733.293 958.777 733.227 960.527 733.162 961.604C732.178 973.044 720.967 1073.86 640.918 1097.89C636.459 1099.23 632.722 1099.84 629.248 1099.84C621.774 1099.84 616.726 1096.94 613.382 1095.06C611.022 1093.71 608.989 1092.57 604.662 1091.49C603.351 1091.16 601.122 1090.95 598.893 1090.75C593.91 1090.28 587.682 1089.61 581.716 1087.12C576.209 1084.83 570.308 1083.55 565.064 1083.55C561.851 1083.55 555.951 1084.09 552.869 1087.52C549.329 1091.42 546.248 1100.24 543.756 1107.37C538.97 1121.04 533.529 1136.51 517.86 1137.93C517.401 1137.93 516.417 1138 515.893 1138C505.338 1138 497.864 1130.73 491.373 1124.27C488.423 1121.37 482.326 1115.45 480.031 1115.45C458.855 1119.56 431.844 1138.33 417.355 1148.49C412.7 1151.72 408.963 1154.35 406.144 1156.03C395.917 1162.09 381.297 1163.37 370.807 1163.37H370.741Z" fill="#4CFF1F" fill-opacity="0.8"/>
<path d="M792.429 777.07C811.9 777.07 820.357 791.539 813.736 825.929C779.841 834.005 747.126 854.733 730.998 886.835C717.23 914.226 717.558 953.664 716.968 960.259C715.657 974.728 703.921 1061.68 636.459 1081.87C633.443 1082.74 631.214 1083.15 629.379 1083.15C622.823 1083.15 621.38 1078.3 608.596 1075.21C602.63 1073.73 594.304 1074.2 588.075 1071.64C580.798 1068.61 572.8 1066.79 565.26 1066.79C555.819 1066.79 547.034 1069.55 541.068 1076.08C528.677 1089.68 526.514 1120.3 516.549 1121.17C516.352 1121.17 516.221 1121.17 516.024 1121.17C506.78 1121.17 495.831 1098.63 480.097 1098.63C479.048 1098.63 477.999 1098.69 476.95 1098.96C446.005 1104.95 409.029 1134.9 397.949 1141.5C392.245 1144.86 382.149 1146.61 370.807 1146.61C347.401 1146.61 318.751 1139.28 313.507 1124C305.705 1101.39 306.557 1099.43 295.477 1093.58C288.135 1089.68 275.743 1089.81 274.826 1086.65C272.531 1078.71 277.907 1044.32 261.648 1031.8C230.769 1008.04 171.043 1003.2 168.748 1002.39C160.619 999.495 176.419 975.805 171.83 949.895C165.732 915.639 137.803 876.942 108.301 871.222C103.843 870.347 99.057 869.808 94.14 869.808C81.5523 869.808 67.9156 873.577 55.6557 885.556C68.1779 849.349 87.9117 836.226 108.76 836.226C153.866 836.226 204.217 897.94 198.185 921.36C189.597 954.74 188.089 963.287 197.398 980.987C197.398 980.987 206.97 990.342 225.852 995.187C250.962 1001.65 278.497 992.966 296.526 1017.53C303.738 1027.36 301.247 1051.05 307.344 1068.54C313.375 1085.77 326.094 1098.02 341.894 1098.02C344.451 1098.02 347.139 1097.68 349.893 1097.01C355.99 1094.12 366.349 1093.85 372.118 1091.36C411.586 1074.26 440.498 1065.52 461.477 1065.52C481.539 1065.52 494.258 1073.52 501.732 1089.88C502.977 1046.81 544.609 1019.55 568.604 1019.55C573.521 1019.55 577.782 1020.69 580.733 1023.12C595.221 1035.03 603.22 1057.57 618.889 1057.57C621.839 1057.57 625.117 1056.77 628.723 1054.88C660.192 1027.29 700.643 986.102 700.709 961.066C700.84 936.031 694.481 880.644 706.872 843.427C722.016 813.613 744.241 793.087 772.76 780.637C780.169 778.281 786.79 777.07 792.494 777.07M792.429 743.42C783.512 743.42 773.94 745.035 763.188 748.4C762.074 748.737 760.959 749.14 759.845 749.611C723.655 765.427 696.054 791.741 677.763 827.814C676.976 829.294 676.32 830.909 675.796 832.457C664.126 867.386 665.962 910.39 667.273 941.752C667.601 949.02 667.863 955.346 667.863 960.057C666.421 965.643 655.341 984.891 620.135 1017.67C615.218 1011.27 609.186 1003.4 601.056 996.735C592.337 989.534 581.06 985.765 568.473 985.765C547.69 985.765 523.957 995.995 504.879 1013.16C497.536 1019.82 491.176 1027.15 485.997 1035.03C478.785 1032.94 470.656 1031.73 461.346 1031.73C436.302 1031.73 405.029 1040.41 360.12 1059.86C359.137 1060.13 357.236 1060.47 355.859 1060.67C351.794 1061.41 347.008 1062.29 342.026 1063.97C341.108 1063.09 339.403 1060.94 338.026 1057.04C336.518 1052.8 335.732 1045.39 335.01 1038.93C333.503 1025.34 331.864 1009.93 322.488 997.206C301.05 967.931 271.285 965.979 251.617 964.633C244.93 964.162 238.571 963.759 233.653 962.48C229.458 961.403 226.18 959.99 223.754 958.778C223.36 954.606 224.934 948.145 229.654 929.907C236.079 905.073 221.918 879.163 208.937 861.867C187.433 833.198 149.736 802.509 108.563 802.509C86.4693 802.509 46.215 811.796 24.5799 874.25C19.4662 888.921 24.9077 905.275 37.6265 913.755C43.0681 917.389 49.2963 919.139 55.4591 919.139C63.6542 919.139 71.8493 915.976 78.0776 909.852C82.6668 905.342 87.4528 903.391 93.9433 903.391C96.369 903.391 99.1226 903.66 102.007 904.266C114.857 906.756 135.05 931.589 139.377 955.952C140.491 962.345 138.459 970.69 136.623 977.959C135.181 983.679 133.87 989.063 133.476 994.986C132.362 1013.09 141.934 1028.5 157.8 1034.15C161.274 1035.37 163.962 1035.77 168.355 1036.37C209.527 1041.89 229.72 1050.44 239.619 1057.17C240.865 1061.81 240.996 1071.51 241.062 1075.95C241.193 1083.35 241.258 1089.74 243.225 1096.34C249.388 1117.4 268.597 1121.31 276.792 1122.99C277.251 1123.06 277.841 1123.19 278.366 1123.33C278.694 1124.4 279.087 1125.48 279.415 1126.56C280.267 1129.11 281.251 1131.94 282.365 1135.3C293.773 1168.48 335.404 1180.33 370.544 1180.33C388.705 1180.33 403.325 1177.1 414.077 1170.7C417.42 1168.69 421.354 1165.99 426.337 1162.56C438.4 1154.15 459.838 1139.28 476.819 1133.76C477.868 1134.77 478.917 1135.78 479.834 1136.65C487.308 1143.99 498.585 1155.02 515.696 1155.02C516.811 1155.02 517.991 1155.02 519.105 1154.89C545.199 1152.53 553.853 1127.97 558.966 1113.3C560.278 1109.6 562.31 1103.81 563.883 1100.65C564.146 1100.65 564.473 1100.65 564.867 1100.65C567.948 1100.65 571.751 1101.52 575.291 1103C583.486 1106.43 591.353 1107.24 597.057 1107.78C598.368 1107.91 600.204 1108.12 600.86 1108.25C602.761 1108.72 603.22 1108.99 605.121 1110.07C609.383 1112.49 617.25 1117 628.985 1117C634.099 1117 639.278 1116.19 645.244 1114.37C735.718 1087.25 748.109 976.074 749.224 963.489C749.355 962.278 749.421 960.192 749.552 957.5C750.011 947.135 751.125 919.543 759.779 902.449C770.138 881.788 792.953 865.501 820.816 858.906C833.339 855.945 843.042 845.648 845.533 832.659C851.433 801.97 848.09 779.291 835.305 763.206C828.159 754.255 814.85 743.555 792.101 743.555L792.429 743.42Z" fill="#1D1D1B"/>
<path d="M753.683 998.69C751.388 998.69 749.093 998.219 746.93 997.209C740.833 994.383 736.965 987.989 737.292 981.057C740.833 906.691 782.792 856.688 841.731 856.688C843.435 856.688 845.074 856.688 846.779 856.823C849.139 856.957 851.434 857.563 853.532 858.707C867.824 866.245 876.347 880.31 876.478 896.395C876.609 912.547 867.89 927.487 853.728 935.294L847.369 938.793C826.848 949.898 788.627 970.626 765.09 994.046C761.943 997.142 757.879 998.757 753.683 998.757V998.69Z" fill="#4CFF1F" fill-opacity="0.8"/>
<path d="M841.73 873.513C843.172 873.513 844.549 873.513 845.992 873.648C865.332 883.878 864.283 910.326 845.992 920.421C827.7 930.516 781.742 954.004 753.682 981.866C756.763 916.854 791.642 873.513 841.73 873.513ZM841.796 839.864C773.547 839.864 724.966 896.261 721.033 980.183C720.377 993.98 727.982 1006.77 740.242 1012.49C744.569 1014.51 749.158 1015.52 753.748 1015.52C762.074 1015.52 770.334 1012.22 776.563 1006.03C798.46 984.288 835.305 964.3 855.105 953.533C857.53 952.187 859.694 951.042 861.595 949.966C881.132 939.198 893.13 918.604 892.999 896.126C892.802 874.052 880.608 853.997 861.136 843.632C856.94 841.412 852.351 840.133 847.631 839.931C845.664 839.864 843.763 839.796 841.796 839.796V839.864Z" fill="#1D1D1B"/>
<path d="M242.569 386.867C335.862 554.712 550.639 644.49 601.515 459.214C610.628 454.032 625.838 448.715 643.539 436.736C638.819 597.111 620.134 742.41 519.367 799.077C349.171 880.442 216.869 631.568 242.503 386.867H242.569Z" fill="#1C1C1C"/>
<path d="M518.253 298.165C529.661 319.7 546.641 334.776 561.458 327.44C576.275 320.104 615.349 296.415 644.72 312.769C659.996 330.132 668.257 353.956 662.487 390.769L644.72 405.036C654.882 415.064 654.554 425.361 644.72 435.927C579.356 477.585 495.897 496.9 452.692 492.929C409.488 488.959 320.063 456.251 240.538 379.732C235.883 442.455 228.278 529.338 236.801 584.726C245.324 640.113 293.839 765.829 357.891 813.948C402.211 862.673 485.866 871.287 515.172 846.723C544.478 822.158 585.322 750.956 585.322 750.956C566.178 804.795 564.933 845.107 525.203 883.132C407.193 996.128 232.933 777.068 221.394 576.784C216.87 526.041 212.15 471.528 216.739 427.178C221.328 382.827 216.739 348.033 216.739 348.033C221.59 330.872 234.506 308.461 251.421 298.165C268.335 287.868 294.297 282.753 313.9 294.194C324.783 292.848 347.533 314.989 370.938 338.544C373.167 349.379 367.857 352.004 354.548 345.947C354.22 348.437 335.273 320.373 313.9 305.298C302.034 296.953 283.349 308.596 268.401 316.403C247.618 324.95 239.292 337.737 240.538 353.687C240.538 353.687 401.817 462.039 452.692 465.202C503.568 468.365 597.975 444.137 626.166 416.141C641.508 406.988 649.768 349.851 637.705 340.159C631.28 328.853 622.757 322.056 607.613 329.055L552.083 344.063C520.417 334.372 511.763 318.354 518.122 298.165H518.253Z" fill="#FF22FD"/>
<path d="M495.11 295.812C487.505 258.663 463.969 248.366 424.96 264.181C403.194 284.573 390.016 306.311 409.553 333.029C429.025 357.862 447.644 367.082 465.083 354.43C496.487 341.239 505.141 321.319 495.176 295.879L495.11 295.812ZM442.661 303.484C436.04 307.724 430.598 305.84 425.943 299.379C421.026 290.428 422.796 284.035 425.943 278.247C433.942 272.19 441.875 271.45 449.545 284.438C451.578 294.062 451.971 302.407 442.661 303.484Z" fill="#FF22FD"/>
<path d="M535.89 265.327L530.383 274.009C530.383 274.009 541.397 285.45 560.016 285.45C578.635 285.45 593.124 274.614 604.729 275.422C616.333 276.23 621.315 285.45 621.315 285.45L626.823 274.009C626.823 274.009 617.775 261.76 604.729 261.76C591.682 261.76 573.522 272.057 563.032 273.605C552.542 275.153 535.89 265.327 535.89 265.327Z" fill="#1C1C1C"/>
<path d="M375.723 265.327L361.169 279.729C355.989 271.855 343.861 263.779 325.372 261.693C306.884 259.606 270.498 244.666 266.237 229.254C280.988 238.205 302.492 248.031 320.98 248.3C339.468 248.569 362.152 256.376 375.723 265.327Z" fill="#1C1C1C"/>
<path d="M390.803 205.022C388.574 213.098 383.133 218.011 375.724 220.972C366.48 205.964 350.155 195.667 327.537 189.543C311.606 190.149 295.15 191.697 278.301 194.187C287.283 176.42 303.542 160.335 334.552 147.817C361.76 158.518 381.625 176.487 390.803 205.022Z" fill="#1C1C1C"/>
<path d="M516.09 234.436C516.09 234.436 523.105 240.628 534.644 240.628C546.183 240.628 580.864 220.034 580.864 220.034C595.943 220.774 606.04 223.735 612.989 228.312C621.905 206.238 610.039 186.653 585.847 168.55C549.92 184.029 527.301 206.372 516.025 234.503L516.09 234.436Z" fill="#1C1C1C"/>
<path d="M464.625 178.71C464.691 154.011 459.446 134.225 447.055 120.967C422.404 100.709 402.67 108.584 386.28 135.907C385.493 145.262 388.05 151.251 397.819 149.838C403.916 146.877 423.322 144.185 431.451 149.838C439.581 155.491 437.876 169.691 446.53 175.614C454.135 178.373 460.429 179.719 464.625 178.71Z" fill="#FF22FD"/>
<path d="M485.67 163.768C497.864 149.029 503.568 133.887 503.24 118.408C501.732 103.131 496.16 86.1714 488.686 68.4043C471.181 73.7883 453.807 75.4034 436.827 68.4043L431.976 87.4501C455.381 104.006 473.869 128.435 485.67 163.7V163.768Z" fill="#FF22FD"/>
<path d="M530.382 97.2788C532.349 126.083 519.63 149.772 495.242 169.424C493.209 176.49 499.765 173.125 503.306 179.048C505.928 183.422 518.122 178.509 521.859 169.424C525.596 160.338 565.916 162.088 566.047 144.321C559.491 104.211 545.527 98.0864 530.382 97.2788Z" fill="#FF22FD"/>
<path d="M260.927 188.805C191.433 275.756 164.684 389.223 159.636 499.661C134.854 479.539 95.3861 452.148 67.9161 481.49C54.0172 512.179 92.8948 521.937 107.712 545.896C126.265 575.777 127.97 612.993 143.639 644.019C145.343 647.114 147.966 650.883 150.654 653.104C158.325 658.084 167.372 662.391 176.419 662.93C181.795 663.872 178.189 648.864 177.337 644.961C176.026 639.509 174.256 633.991 172.289 628.742L178.517 626.588L201.464 711.924C207.364 737.026 219.493 772.426 221.263 798.202C209.921 775.253 202.644 738.44 195.17 713.741L172.223 628.405L178.452 626.251C181.664 636.212 194.711 669.525 176.288 669.66C165.536 668.987 155.702 664.343 146.851 658.555C143.377 655.796 140.164 651.287 138.001 647.384C119.185 612.253 121.283 565.817 91.5836 537.349C73.2266 520.928 48.1168 506.997 62.8024 477.318C90.0757 446.091 133.215 469.242 158.783 490.508L153.473 492.998C159.374 384.31 184.549 269.093 260.927 188.872V188.805Z" fill="#FF22FD"/>
<path d="M95.7788 499.323C118.069 497.035 143.638 500.467 158.586 519.782L153.407 523.955C140.819 505.38 116.758 500.736 95.9099 501.948L95.7788 499.323Z" fill="#FF22FD"/>
<path d="M684.517 524.969C705.103 510.028 738.342 489.3 759.256 514.335C768.697 524.969 775.056 539.304 773.352 553.975C772.63 559.493 769.68 565.348 764.632 568.108C739.522 580.895 714.216 600.681 710.413 631.033C704.382 661.048 703.005 719.061 661.701 717.916L663.144 711.321C697.629 711.456 699.727 655.866 705.562 630.023C708.774 608.42 723.132 589.778 740.506 578.135C746.275 574.097 752.306 570.665 758.404 567.367C760.764 566.089 764.763 564.339 766.468 562.051C776.039 547.918 767.451 527.93 757.42 516.018C737.359 491.655 705.43 511.98 685.172 525.844L684.517 524.901V524.969Z" fill="#FF22FD"/>
<path d="M754.601 536.611C721.558 543.206 698.743 566.492 692.908 600.815C696.448 565.079 719.198 539.303 752.831 530.15L754.535 536.611H754.601Z" fill="#FF22FD"/>
</g>
</svg>
