<svg width="787" height="1019" viewBox="0 0 787 1019" fill="none" xmlns="http://www.w3.org/2000/svg">
<g opacity="0.3">
<path d="M598.927 648.31C597.805 655.052 595.809 664.933 594.687 671.559C633.034 659.063 663.025 655.169 679.86 664.875C624.803 689.926 595.685 709.513 592.941 752.698C591.258 779.551 608.218 841.683 605.038 855.458C599.052 881.149 578.974 890.274 554.283 901.201C500.223 870.919 452.773 880.219 412.681 933.517C405.635 930.96 387.553 932.296 365.293 939.155C338.045 947.583 305.871 960.776 296.768 941.77C282.863 912.767 294.523 914.278 269.52 881.032C246.637 850.576 188.649 838.487 183.287 843.892C192.577 735.61 118.939 703.759 59.3304 715.907C32.2695 721.428 12.192 746.537 0.594506 756.418C-5.32896 700.446 33.4542 664.468 97.1782 659.412C115.946 657.959 140.077 665.747 164.519 668.421C158.096 646.625 147.06 618.493 142.446 597.162C142.321 616.633 100.046 602.568 87.2018 554.21C80.0937 515.442 68.7456 495.797 54.0928 487.485C28.2789 471.211 15.6838 460.749 35.2624 438.605C60.328 416.867 88.9477 431.049 121.558 462.609C122.244 364.731 150.365 273.886 217.019 192.863C188.961 174.903 183.287 149.678 188.524 120.849C143.818 63.8893 133.966 27.5628 142.259 1.87274C171.752 -6.67126 213.153 14.7178 260.791 51.7999C285.919 35.8744 310.423 37.7343 334.242 61.3901C354.943 55.6941 423.468 46.1039 478.65 69.2947C521.61 87.2546 552.537 132.881 572.552 164.964C589.387 191.991 605.474 207.51 609.34 244.708C613.393 283.534 625.551 305.911 625.676 339.564C625.801 376.937 619.005 411.926 615.263 457.959C614.64 466.096 620.376 475.047 619.753 483.591C652.176 458.889 670.383 460.633 687.093 470.921C699.813 483.417 709.665 512.42 697.631 517.767C669.946 530.147 635.466 552.815 639.394 600.94C640.516 615.006 619.877 649.066 598.865 648.31H598.927Z" fill="#FF22FD"/>
<path d="M21.7949 793.557C38.0065 779.143 56.7122 778.504 71.8638 781.177C99.9224 786.118 126.484 819.596 132.283 849.122C136.648 871.499 121.621 891.9 129.353 894.458C131.535 895.155 188.4 899.34 217.706 919.857C233.169 930.668 227.994 960.369 230.239 967.227C231.112 969.959 242.896 969.842 249.88 973.214C260.48 978.328 259.607 979.956 267.027 999.485C274.447 1019.01 330.751 1023.55 347.274 1014.6C357.812 1008.9 392.978 983.036 422.409 977.863C439.306 974.899 450.592 997.858 460.069 997.044C469.547 996.23 471.605 969.843 483.389 958.102C493.553 947.93 512.57 948.337 528.096 954.208C534.019 956.474 541.938 956.068 547.612 957.288C563.2 960.717 561.08 966.588 574.174 963.042C638.397 945.547 649.558 870.453 650.743 858.015C651.304 852.261 650.992 818.259 664.086 794.603C679.425 766.879 710.539 748.977 742.775 742.003C750.943 703.642 735.105 693.994 703.805 702.886C676.744 713.639 655.544 731.366 641.14 757.115C629.356 789.256 635.342 837.091 635.279 858.712C635.217 880.334 596.746 915.847 566.816 939.735C545.243 949.732 537.573 924.507 521.175 912.301C504.776 900.096 447.474 925.146 446.04 969.959C431.574 941.188 396.345 942.234 322.832 971.237C317.407 973.388 307.556 973.679 301.694 976.12C283.113 980.363 267.837 968.854 261.165 951.534C255.304 936.422 257.736 915.963 250.877 907.477C233.73 886.204 207.542 893.76 183.662 888.181C165.704 883.996 156.601 875.917 156.601 875.917C147.747 860.631 149.118 853.249 157.349 824.42C165.766 794.894 59.5804 694.575 21.8573 793.499L21.7949 793.557Z" fill="#FF22FD"/>
<path d="M685.784 876.732C688.777 819.017 723.757 781.063 773.576 783.271C791.97 792.106 790.972 814.948 773.576 823.666C756.18 832.385 712.471 852.669 685.784 876.732Z" fill="#FF22FD"/>
<path d="M199.622 362.872C288.35 507.829 492.616 585.365 541.001 425.354C549.668 420.878 564.134 416.287 580.969 405.941C576.48 544.447 558.709 669.933 462.874 718.872C301.007 789.142 175.18 574.205 199.56 362.872H199.622Z" fill="#1C1C1C"/>
<path d="M461.814 286.267C472.663 304.866 488.812 317.885 502.904 311.55C516.995 305.215 554.157 284.755 582.091 298.879C596.619 313.875 604.476 334.45 598.989 366.243L582.091 378.565C591.756 387.225 591.444 396.118 582.091 405.243C519.926 441.221 440.551 457.902 399.461 454.473C358.371 451.044 273.323 422.796 197.689 356.711C193.262 410.881 186.029 485.917 194.135 533.752C202.241 581.587 248.382 690.159 309.3 731.717C351.45 773.798 431.012 781.237 458.883 760.022C486.755 738.808 525.6 677.314 525.6 677.314C507.393 723.812 506.208 758.628 468.423 791.467C356.189 889.054 190.456 699.866 179.482 526.893C175.18 483.069 170.691 435.99 175.055 397.687C179.42 359.385 175.055 329.335 175.055 329.335C179.669 314.514 191.953 295.159 208.04 286.267C224.127 277.374 248.818 272.957 267.462 282.837C277.812 281.675 299.448 300.797 321.708 321.14C323.828 330.498 318.777 332.765 306.12 327.534C305.808 329.684 287.788 305.447 267.462 292.428C256.176 285.22 238.405 295.276 224.189 302.018C204.423 309.399 196.505 320.443 197.689 334.218C197.689 334.218 351.076 427.795 399.461 430.526C447.847 433.258 537.634 412.334 564.446 388.155C579.036 380.251 586.892 330.905 575.42 322.535C569.309 312.77 561.203 306.9 546.8 312.945L493.987 325.906C463.871 317.536 455.641 303.703 461.689 286.267H461.814Z" fill="#4CFF1F"/>
<path d="M439.803 284.232C432.57 252.148 410.186 243.256 373.086 256.914C352.385 274.526 339.853 293.299 358.434 316.374C376.952 337.821 394.66 345.784 411.246 334.857C441.113 323.465 449.343 306.26 439.866 284.29L439.803 284.232ZM389.921 290.858C383.624 294.52 378.449 292.892 374.022 287.312C369.345 279.582 371.029 274.061 374.022 269.062C381.629 263.831 389.173 263.192 396.468 274.409C398.401 282.721 398.775 289.928 389.921 290.858Z" fill="#4CFF1F"/>
<path d="M478.588 257.902L473.351 265.4C473.351 265.4 483.826 275.28 501.534 275.28C519.242 275.28 533.022 265.923 544.058 266.62C555.094 267.318 559.833 275.28 559.833 275.28L565.071 265.4C565.071 265.4 556.466 254.821 544.058 254.821C531.65 254.821 514.378 263.714 504.402 265.051C494.426 266.388 478.588 257.902 478.588 257.902Z" fill="#1C1C1C"/>
<path d="M326.261 257.902L312.419 270.34C307.493 263.54 295.958 256.565 278.375 254.763C260.791 252.961 226.186 240.058 222.133 226.748C236.162 234.478 256.614 242.964 274.197 243.197C291.78 243.429 313.354 250.171 326.261 257.902Z" fill="#1C1C1C"/>
<path d="M340.601 205.824C338.481 212.799 333.306 217.042 326.26 219.599C317.468 206.638 301.943 197.745 280.431 192.456C265.279 192.979 249.629 194.316 233.604 196.466C242.147 181.122 257.61 167.231 287.103 156.42C312.979 165.661 331.872 181.18 340.601 205.824Z" fill="#1C1C1C"/>
<path d="M459.757 231.225C459.757 231.225 466.428 236.572 477.402 236.572C488.376 236.572 521.361 218.787 521.361 218.787C535.702 219.426 545.304 221.984 551.913 225.936C560.393 206.872 549.108 189.958 526.1 174.323C491.93 187.691 470.419 206.988 459.694 231.283L459.757 231.225Z" fill="#1C1C1C"/>
<path d="M410.81 183.156C410.873 161.825 405.885 144.737 394.1 133.287C370.656 115.793 351.888 122.593 336.299 146.191C335.551 154.27 337.983 159.442 347.273 158.222C353.072 155.665 371.529 153.34 379.26 158.222C386.992 163.104 385.371 175.368 393.601 180.483C400.834 182.866 406.82 184.028 410.81 183.156Z" fill="#4CFF1F"/>
<path d="M430.888 170.195C442.485 157.467 447.91 144.389 447.598 131.021C446.164 117.827 440.864 103.18 433.756 87.8359C417.108 92.4857 400.585 93.8807 384.435 87.8359L379.821 104.285C402.081 118.583 419.664 139.681 430.888 170.137V170.195Z" fill="#4CFF1F"/>
<path d="M473.35 112.771C475.221 137.647 463.124 158.106 439.929 175.078C437.996 181.181 444.232 178.274 447.599 183.389C450.093 187.167 461.69 182.924 465.244 175.078C468.798 167.231 507.145 168.742 507.27 153.398C501.035 118.757 487.754 113.468 473.35 112.771Z" fill="#4CFF1F"/>
<path d="M217.082 191.817C150.988 266.912 125.549 364.906 120.747 460.285C97.1783 442.906 59.6421 419.25 33.5165 444.592C20.2978 471.096 57.2728 479.523 71.3644 500.215C89.0101 526.021 90.6312 558.163 105.533 584.957C107.155 587.631 109.649 590.886 112.205 592.804C119.5 597.105 128.105 600.825 136.71 601.29C141.822 602.103 138.393 589.142 137.583 585.771C136.336 581.063 134.652 576.297 132.781 571.764L138.705 569.904L160.528 643.603C166.14 665.283 177.675 695.855 179.359 718.116C168.572 698.296 161.651 666.503 154.542 645.172L132.719 571.473L138.643 569.613C141.698 578.215 154.106 606.986 136.585 607.102C126.359 606.521 117.006 602.51 108.589 597.512C105.284 595.129 102.229 591.235 100.171 587.863C82.2761 557.524 84.2713 517.419 56.0257 492.833C38.5671 478.651 14.6861 466.62 28.6531 440.988C54.5916 414.019 95.6194 434.013 119.937 452.38L114.886 454.531C120.498 360.663 144.441 261.157 217.082 191.875V191.817Z" fill="#4CFF1F"/>
<path d="M60.0166 459.994C81.2164 458.017 105.534 460.982 119.75 477.663L114.824 481.266C102.853 465.225 79.9693 461.214 60.1413 462.26L60.0166 459.994Z" fill="#FF22FD"/>
<path d="M619.94 482.138C639.519 469.235 671.132 451.333 691.022 472.955C700.001 482.138 706.049 494.518 704.428 507.189C703.742 511.955 700.936 517.012 696.135 519.395C672.254 530.438 648.186 547.526 644.57 573.739C638.833 599.662 637.524 649.763 598.242 648.775L599.613 643.079C632.411 643.196 634.406 595.186 639.955 572.867C643.011 554.21 656.666 538.11 673.189 528.055C678.676 524.568 684.413 521.603 690.211 518.755C692.456 517.651 696.259 516.14 697.881 514.164C706.984 501.958 698.816 484.696 689.276 474.408C670.196 453.368 639.831 470.921 620.564 482.894L619.94 482.08V482.138Z" fill="#4CFF1F"/>
<path d="M686.595 492.252C655.169 497.948 633.471 518.058 627.921 547.7C631.288 516.837 652.925 494.577 684.911 486.672L686.533 492.252H686.595Z" fill="#4CFF1F"/>
</g>
</svg>
