<svg width="73" height="103" viewBox="0 0 73 103" fill="none" xmlns="http://www.w3.org/2000/svg">
<g clip-path="url(#clip0_181_996)">
<path d="M29.7875 95.0044C27.9921 95.0044 27.2471 93.9151 26.9684 93.2659C26.4432 92.0556 26.2878 91.3129 26.1645 90.7132C26.0037 89.9375 25.8966 89.4204 24.755 87.7424C23.4205 85.7839 20.1031 84.7221 18.983 84.7001C18.8115 84.7771 18.6239 84.8156 18.4417 84.8156C18.2595 84.8156 18.0772 84.7771 17.9057 84.7001C17.3805 84.4635 17.059 83.9134 17.1072 83.3302C17.402 79.5397 16.6624 76.5414 14.9688 74.6544C13.6986 73.2405 11.8818 72.4648 9.8506 72.4648C9.25571 72.4648 8.66082 72.5308 8.07129 72.6628C6.62426 72.9874 5.34873 74.3628 4.4162 75.3696C4.13215 75.6777 3.88562 75.9417 3.64445 76.1673C3.39256 76.4038 3.06563 76.5304 2.73871 76.5304C2.57793 76.5304 2.41715 76.5029 2.26173 76.4424C1.78474 76.2553 1.45782 75.8097 1.40423 75.2925C1.14162 72.5363 1.80082 70.0936 3.30681 68.2286C4.99501 66.1436 7.62646 64.8892 10.9225 64.6031C11.0993 64.5866 11.2708 64.5811 11.4531 64.5811C12.482 64.5811 13.5593 64.8067 14.6955 65.0488C14.7705 65.0653 14.8455 65.0818 14.9206 65.0983C14.883 64.9772 14.8455 64.8562 14.808 64.7297C14.5561 63.9044 14.2989 63.0682 14.0738 62.2595C12.1926 62.199 9.75413 59.9984 8.87519 56.3509C8.86983 56.3179 8.85911 56.2849 8.85375 56.2519C8.36069 53.303 7.61574 51.4931 6.62962 50.8769C6.61354 50.8659 6.5921 50.8549 6.57602 50.8439C5.00573 49.7546 3.78379 48.8028 3.57477 47.3009C3.43543 46.3106 3.79451 45.2929 4.67345 44.2036C4.71096 44.1541 4.75384 44.11 4.79671 44.0715C5.73996 43.1693 6.80112 42.7127 7.94802 42.7127C9.17532 42.7127 10.4616 43.2408 11.8872 44.3466C12.4017 35.9128 14.9098 28.5848 19.4975 22.049C17.8253 20.3766 17.1501 18.132 17.4823 15.3537C13.9452 10.2703 12.7179 6.44127 13.629 3.34392C13.7576 2.9038 14.0899 2.56271 14.5133 2.42517C15.0117 2.26563 15.5476 2.18311 16.0996 2.18311C18.5113 2.18311 21.4268 3.65201 25.2213 6.78786C26.0895 6.33674 26.9684 6.10568 27.8313 6.10568C29.2247 6.10568 30.5592 6.68883 31.8079 7.84965C32.987 7.58558 34.7395 7.34351 36.6957 7.34351C39.6058 7.34351 42.1837 7.85515 44.3649 8.86743C48.213 10.6389 50.9141 14.7265 53.0418 18.4841C53.3312 19.0012 53.6206 19.4688 53.8993 19.9199C55.0247 21.7464 56.0859 23.4739 56.3807 26.5878C56.5307 28.1557 56.8148 29.4375 57.0881 30.6754C57.4472 32.2763 57.7848 33.7947 57.7902 35.6982C57.7955 37.9814 57.5651 40.182 57.3185 42.5146C57.1685 43.9175 57.0131 45.3699 56.8952 46.9763C57.9242 46.3767 58.862 46.0906 59.7785 46.0906C60.695 46.0906 61.5739 46.3877 62.4689 46.9928C62.5547 47.0478 62.6297 47.1194 62.6994 47.1909C63.7444 48.3187 64.6716 50.5743 64.3929 52.1422C64.2536 52.9124 63.8355 53.5066 63.2192 53.8092C60.0625 55.3661 58.7495 57.3797 58.9692 60.3395C59.0711 61.7478 58.0849 63.6734 57.0935 64.7847C57.7741 64.6636 58.3958 64.6086 58.9639 64.6086C60.1001 64.6086 61.0594 64.8507 61.8097 65.3293C62.2224 65.5934 62.4689 66.0665 62.4421 66.5672C62.4153 67.0678 62.1313 67.5134 61.6918 67.7335C57.1095 70.0276 55.1641 71.5295 54.9711 74.8909C54.9068 76.0517 55.2498 78.2083 55.5553 80.1119C55.9466 82.56 56.1609 83.9849 55.9841 84.8266C55.3249 87.946 53.0686 89.0463 50.8873 90.1081C50.7051 90.1961 50.5068 90.2401 50.3138 90.2401C50.0727 90.2401 49.8369 90.1741 49.6225 90.0421C48.0897 89.0958 46.6427 88.6172 45.3296 88.6172C43.1109 88.6172 41.1172 89.954 39.236 92.7103C38.9788 93.0844 38.5661 93.2935 38.1374 93.2935C37.9766 93.2935 37.8158 93.2659 37.6604 93.1999C37.655 93.1999 37.5478 93.1779 37.3227 93.1779C36.6099 93.1779 35.5488 93.3925 34.4876 93.7556C34.225 93.8436 33.9571 93.9426 33.6837 94.0361C32.3546 94.5093 30.9826 94.9934 29.7714 94.9934L29.7875 95.0044Z" fill="#4CFF1F" fill-opacity="0.8"/>
<path d="M16.0996 3.56374C18.506 3.56374 21.609 5.47826 25.098 8.46558C26.0198 7.8219 26.9309 7.48631 27.8366 7.48631C29.0479 7.48631 30.2376 8.09147 31.4113 9.37332C32.3278 9.09825 34.3268 8.71865 36.701 8.71865C38.9413 8.71865 41.5191 9.05424 43.8236 10.1215C47.5163 11.8215 50.1745 16.1402 51.8949 19.177C53.3419 21.7352 54.7246 23.2041 55.0569 26.7251C55.4052 30.4001 56.4503 32.5181 56.461 35.7035C56.4718 39.241 55.8876 42.5529 55.566 46.9101C55.5124 47.6803 56.0055 48.5275 55.9519 49.3362C57.5704 47.9774 58.7763 47.4657 59.7892 47.4657C60.5181 47.4657 61.1398 47.7298 61.7454 48.1424C62.8387 49.3252 63.6855 52.0705 62.6511 52.5766C60.2716 53.7484 57.3078 55.894 57.6455 60.4493C57.7419 61.7641 56.0055 64.9385 54.2208 64.9385C54.1994 64.9385 54.1833 64.9385 54.1619 64.9385C54.0654 65.5767 53.8939 66.5119 53.7974 67.1391C55.8286 66.4129 57.5865 65.9893 58.9746 65.9893C59.8428 65.9893 60.561 66.1543 61.1183 66.5064C56.386 68.8776 53.8832 70.7316 53.6474 74.8192C53.5027 77.3609 54.9604 83.242 54.6871 84.5458C54.1726 86.9775 52.4469 87.8412 50.3246 88.8755C48.5828 87.8027 46.9214 87.2526 45.3457 87.2526C42.7143 87.2526 40.3079 88.7765 38.1534 91.9343C37.9659 91.8628 37.6872 91.8188 37.3388 91.8188C36.5563 91.8188 35.4041 92.0169 34.0803 92.468C32.6172 92.9631 30.9933 93.6398 29.7875 93.6398C29.0586 93.6398 28.4851 93.3923 28.1904 92.7156C26.9952 89.9703 27.9974 90.1134 25.8483 86.9665C24.1869 84.5293 20.3603 83.3355 18.9454 83.3355C18.6882 83.3355 18.506 83.374 18.4363 83.4565C19.1277 74.5551 14.4436 71.1112 9.84523 71.1112C9.14851 71.1112 8.45179 71.1882 7.78187 71.3422C5.4559 71.8649 3.73019 74.2415 2.73334 75.1768C2.2242 69.8788 5.55773 66.4734 11.035 65.9948C11.169 65.9838 11.3083 65.9783 11.453 65.9783C12.9965 65.9783 14.9045 66.6164 16.8285 66.8475C16.2765 64.7844 15.3279 62.1217 14.9313 60.1027C14.9313 60.6363 14.6204 60.9059 14.1595 60.9059C13.0287 60.9059 10.9653 59.2939 10.1829 56.0371C9.5719 52.3676 8.5965 50.508 7.33704 49.7213C5.11826 48.1809 4.03567 47.1906 5.71851 45.0946C6.43131 44.4124 7.17626 44.1043 7.95873 44.1043C9.53975 44.1043 11.2601 45.3641 13.1359 47.3667C13.1948 38.1022 15.6119 29.5033 21.3411 21.8342C18.9294 20.1343 18.4417 17.7466 18.8918 15.0179C15.0492 9.62639 14.2024 6.18795 14.9152 3.75629C15.2904 3.63526 15.6869 3.58024 16.105 3.58024M16.0996 0.812988C15.4083 0.812988 14.7383 0.912015 14.1113 1.11557C13.2591 1.38514 12.5946 2.07283 12.3427 2.94757C11.3298 6.39701 12.5249 10.4736 16.0943 15.7276C15.8852 18.2803 16.4533 20.4313 17.7825 22.1643C13.8916 28.0289 11.5388 34.6802 10.7456 42.0137C9.87203 41.6011 8.9395 41.3425 7.94801 41.3425C6.46883 41.3425 5.06467 41.9367 3.88561 43.07C3.79986 43.1525 3.71947 43.2406 3.64444 43.3341C3.22641 43.8512 1.96159 45.4302 2.25636 47.5042C2.5672 49.7213 4.4537 51.0307 5.83106 51.9879C5.86858 52.01 5.90073 52.0375 5.93825 52.0595C6.09903 52.1585 6.92973 52.8462 7.53534 56.4882C7.54606 56.5542 7.56214 56.6202 7.57822 56.6862C8.23206 59.3985 10.0328 62.2538 12.3749 63.2605C12.0694 63.233 11.7585 63.211 11.453 63.211C11.2333 63.211 11.0189 63.222 10.8153 63.2385C7.14947 63.5576 4.20181 64.9825 2.2778 67.3536C0.530642 69.5102 -0.230389 72.2995 0.069736 75.4298C0.171564 76.4696 0.830767 77.3554 1.77938 77.7295C2.09022 77.8505 2.41178 77.911 2.73334 77.911C3.39255 77.911 4.04639 77.658 4.54481 77.1848C4.81814 76.9318 5.09147 76.6347 5.38087 76.3211C6.1955 75.4464 7.31025 74.2415 8.35532 74.0105C8.84839 73.9004 9.35217 73.8454 9.85059 73.8454C10.8046 73.8454 12.616 74.071 13.9827 75.5894C15.4136 77.1848 16.0353 79.82 15.7673 83.22C15.6762 84.3918 16.3193 85.4921 17.3644 85.9597C17.7128 86.1138 18.0772 86.1908 18.4363 86.1908C18.6828 86.1908 18.924 86.1578 19.1545 86.0918C20.1245 86.2238 22.6809 87.104 23.651 88.5344C24.6425 89.9868 24.7121 90.3444 24.8515 91.0046C24.9801 91.6318 25.157 92.4845 25.7411 93.8324C26.4432 95.4553 27.917 96.3851 29.7875 96.3851C31.2238 96.3851 32.7029 95.8569 34.1339 95.3508C34.4019 95.2573 34.6645 95.1637 34.9217 95.0757C36.0258 94.7016 36.894 94.5696 37.3388 94.5696C37.3602 94.5696 37.3817 94.5696 37.3978 94.5696C37.6496 94.6466 37.9015 94.6851 38.1534 94.6851C39.0056 94.6851 39.8363 94.267 40.3508 93.5133C42.7357 90.0198 44.6865 90.0033 45.3403 90.0033H45.3511C46.4176 90.0033 47.6288 90.4159 48.9526 91.2302C49.3759 91.4887 49.8529 91.6208 50.3353 91.6208C50.7265 91.6208 51.1177 91.5327 51.4822 91.3567C53.7224 90.2619 56.5146 88.903 57.3132 85.1235C57.5436 84.0287 57.3293 82.5763 56.9005 79.8916C56.6218 78.1476 56.2735 75.98 56.3324 74.9732C56.4664 72.6846 57.3882 71.4358 62.3028 68.9711C63.1817 68.531 63.7551 67.6397 63.8034 66.6385C63.8516 65.6372 63.3693 64.6909 62.5386 64.1628C61.7347 63.6511 60.7753 63.3486 59.6767 63.2605C60.1215 62.2758 60.3948 61.214 60.3251 60.2402C60.1483 57.8691 61.1612 56.3671 63.8195 55.0578C64.8217 54.5627 65.5184 53.5944 65.7328 52.4006C66.1026 50.332 64.9878 47.6473 63.6962 46.2499C63.5569 46.0958 63.4014 45.9638 63.2299 45.8483C62.1098 45.0891 60.9844 44.7205 59.7999 44.7205C59.3497 44.7205 58.8996 44.7755 58.444 44.88C58.519 44.1208 58.5941 43.3891 58.6691 42.6684C58.921 40.2973 59.1568 38.0582 59.1514 35.698C59.1461 33.6404 58.7763 31.979 58.4172 30.3726C58.1492 29.1787 57.8759 27.9409 57.7366 26.461C57.4097 23.0225 56.2145 21.075 55.0569 19.1935C54.7836 18.7479 54.4995 18.2858 54.2262 17.8016C51.986 13.8515 49.1348 9.54937 44.933 7.61834C42.5803 6.52905 39.8148 5.9789 36.7171 5.9789C34.9914 5.9789 33.4104 6.16045 32.1992 6.38601C30.8432 5.29671 29.3855 4.74656 27.8474 4.74656C27.0381 4.74656 26.2342 4.9006 25.4356 5.21419C21.6734 2.21587 18.6828 0.812988 16.0996 0.812988Z" fill="#1C1C1C"/>
<path d="M30.3128 101.391C28.0083 101.391 25.0713 100.671 24.3693 98.6295C24.2781 98.3654 24.2031 98.1344 24.1334 97.9308C24.0048 97.5457 23.8708 97.1496 23.8119 97.0561C23.8065 97.0561 23.7422 97.0121 23.5439 96.9075C23.426 96.847 23.1152 96.781 22.9115 96.7425C22.3327 96.627 21.4591 96.4454 21.1858 95.5157C21.0786 95.1581 21.0732 94.7619 21.0679 94.2173C21.0572 93.5241 21.0357 92.0772 20.5909 91.7361C19.3368 90.7734 17.1019 90.0692 13.956 89.6456C13.6237 89.6015 13.5165 89.585 13.3557 89.53C11.8766 89.0019 12.2892 87.3624 12.4822 86.5757C12.659 85.877 12.8734 85.0078 12.7287 84.1881C12.3 81.7784 10.2955 79.1872 8.60734 78.8571C8.28578 78.7966 7.9803 78.7636 7.69625 78.7636C6.82267 78.7636 6.09916 79.0607 5.47747 79.6713C5.22022 79.9244 4.88794 80.0509 4.5503 80.0509C4.29841 80.0509 4.04652 79.9794 3.82142 79.8309C3.30157 79.4843 3.08183 78.8186 3.28549 78.2134C4.70036 74.1203 7.11208 73.2621 8.88603 73.2621C11.7694 73.2621 14.5402 75.5892 16.0301 77.5753C16.7482 78.5325 17.8951 80.3755 17.4878 81.949C16.8501 84.4191 16.8233 84.8262 17.1877 85.5744C17.4235 85.745 17.9648 86.0861 18.7848 86.2951C19.3046 86.4327 19.8835 86.4712 20.4944 86.5097C22.0219 86.6142 23.9191 86.7408 25.3071 88.6278C25.8484 89.3705 25.9556 90.3387 26.0682 91.3675C26.1378 92.0057 26.2075 92.6659 26.3844 93.161C26.6363 93.8872 27.1829 94.6629 27.9493 94.6629C28.0297 94.6629 28.1155 94.6519 28.2012 94.6409C28.5764 94.4924 28.9783 94.4154 29.3374 94.3548C29.525 94.3218 29.809 94.2668 29.9001 94.2283C33.4373 92.6934 35.849 92.0057 37.7248 92.0057C38.727 92.0057 39.5899 92.2093 40.308 92.6164C41.5621 89.8876 44.4079 88.2482 46.482 88.2482C47.2055 88.2482 47.8326 88.4517 48.3096 88.8423C48.8669 89.3045 49.301 89.8711 49.6816 90.3663C49.9335 90.6963 50.4051 91.3125 50.5927 91.3565C50.5927 91.3565 50.6195 91.3565 50.673 91.3345C54.3067 88.1271 55.9359 85.7615 55.9413 84.8372C55.9413 84.4136 55.9199 83.8525 55.8931 83.2088C55.7912 80.7551 55.6519 77.3937 56.5201 74.7805C56.5416 74.7145 56.5684 74.654 56.6005 74.588C57.9511 71.9307 59.9823 69.9942 62.6459 68.8279C62.6888 68.8059 62.737 68.7894 62.7799 68.7784C63.5355 68.5418 64.1894 68.4263 64.7789 68.4263C66.1134 68.4263 66.8691 69.0259 67.271 69.5266C68.0481 70.5003 68.2303 71.9857 67.8284 74.0598C67.7266 74.5879 67.33 75.0116 66.8155 75.1326C64.1626 75.7653 61.9652 77.3607 60.9416 79.4018C60.1002 81.0687 59.9984 83.5444 59.9608 84.4741C59.9501 84.6667 59.9448 84.8097 59.9394 84.8978C59.859 85.833 58.9426 94.0743 52.3988 96.0383C52.0343 96.1483 51.7288 96.1978 51.4448 96.1978C50.8338 96.1978 50.4212 95.9613 50.1478 95.8072C49.9549 95.6972 49.7887 95.6037 49.435 95.5157C49.3278 95.4881 49.1456 95.4716 48.9634 95.4551C48.5561 95.4166 48.047 95.3616 47.5593 95.1581C47.1091 94.971 46.6267 94.8665 46.198 94.8665C45.9354 94.8665 45.453 94.9105 45.2011 95.1911C44.9117 95.5102 44.6598 96.2309 44.4562 96.814C44.0649 97.9308 43.6201 99.1962 42.3392 99.3117C42.3017 99.3117 42.2213 99.3172 42.1784 99.3172C41.3156 99.3172 40.7046 98.723 40.174 98.1949C39.9329 97.9583 39.4344 97.4742 39.2469 97.4742C37.5158 97.8098 35.3077 99.3447 34.1233 100.175C33.7428 100.439 33.4373 100.654 33.2069 100.792C32.3708 101.287 31.1757 101.391 30.3182 101.391H30.3128Z" fill="#4CFF1F" fill-opacity="0.8"/>
<path d="M64.7843 69.8128C66.376 69.8128 67.0674 70.9956 66.5261 73.8068C63.7553 74.467 61.0809 76.1615 59.7625 78.7857C58.6371 81.0248 58.6639 84.2487 58.6156 84.7878C58.5084 85.9707 57.5491 93.0786 52.0343 94.7291C51.7878 94.8006 51.6056 94.8336 51.4555 94.8336C50.9196 94.8336 50.8017 94.4375 49.7566 94.1844C49.2689 94.0634 48.5882 94.1019 48.0791 93.8928C47.4842 93.6453 46.8304 93.4967 46.214 93.4967C45.4423 93.4967 44.7241 93.7223 44.2364 94.2559C43.2235 95.3672 43.0467 97.8704 42.232 97.9419C42.216 97.9419 42.2052 97.9419 42.1892 97.9419C41.4335 97.9419 40.5385 96.0989 39.2522 96.0989C39.1665 96.0989 39.0807 96.1044 38.995 96.1264C36.4654 96.6161 33.4427 99.0642 32.5369 99.6034C32.0707 99.8785 31.2453 100.022 30.3181 100.022C28.4049 100.022 26.0628 99.4218 25.6341 98.173C24.9963 96.3245 25.066 96.1649 24.1602 95.6863C23.56 95.3672 22.5471 95.3782 22.472 95.1197C22.2845 94.4705 22.7239 91.6592 21.3948 90.6359C18.8705 88.6939 13.9881 88.2978 13.8006 88.2318C13.136 87.9952 14.4276 86.0587 14.0525 83.9406C13.554 81.1404 11.2709 77.977 8.85923 77.5094C8.49479 77.4378 8.10356 77.3938 7.7016 77.3938C6.6726 77.3938 5.55785 77.7019 4.55565 78.6812C5.57929 75.7214 7.19246 74.6486 8.89674 74.6486C12.584 74.6486 16.7 79.6935 16.2069 81.608C15.5048 84.3367 15.3816 85.0354 16.1426 86.4823C16.1426 86.4823 16.9251 87.247 18.4686 87.6431C20.5212 88.1713 22.7722 87.4616 24.246 89.4696C24.8355 90.2728 24.6319 92.2094 25.1303 93.6398C25.6233 95.0481 26.6631 96.0494 27.9547 96.0494C28.1637 96.0494 28.3834 96.0219 28.6085 95.9669C29.1069 95.7303 29.9537 95.7083 30.4253 95.5048C33.6517 94.1074 36.0152 93.3922 37.7302 93.3922C39.3701 93.3922 40.4098 94.0469 41.0208 95.3837C41.1226 91.8628 44.5258 89.6347 46.4874 89.6347C46.8893 89.6347 47.2377 89.7282 47.4789 89.9262C48.6633 90.9 49.3171 92.743 50.598 92.743C50.8392 92.743 51.1072 92.677 51.4019 92.523C53.9744 90.2673 57.2811 86.9004 57.2865 84.8539C57.2972 82.8073 56.7774 78.2796 57.7903 75.2372C59.0283 72.8001 60.8451 71.1221 63.1765 70.1043C63.7821 69.9118 64.3234 69.8128 64.7896 69.8128M64.7843 67.062C64.0554 67.062 63.2729 67.1941 62.394 67.4691C62.3029 67.4966 62.2118 67.5296 62.1207 67.5681C59.1623 68.861 56.906 71.0121 55.4107 73.9609C55.3464 74.0819 55.2928 74.214 55.2499 74.3405C54.296 77.1958 54.446 80.7112 54.5532 83.2749C54.58 83.8691 54.6015 84.3862 54.6015 84.7713C54.4836 85.228 53.5778 86.8014 50.6998 89.4806C50.2979 88.958 49.8048 88.3143 49.1403 87.7697C48.4275 87.181 47.5057 86.8729 46.4767 86.8729C44.7777 86.8729 42.8376 87.7091 41.2781 89.112C40.6778 89.6567 40.158 90.2563 39.7346 90.9C39.145 90.7295 38.4805 90.6304 37.7194 90.6304C35.6722 90.6304 33.1157 91.3401 29.4446 92.9301C29.3642 92.9521 29.2088 92.9796 29.0962 92.9961C28.7639 93.0566 28.3727 93.1281 27.9654 93.2657C27.8904 93.1941 27.751 93.0181 27.6385 92.699C27.5152 92.3524 27.4509 91.7472 27.3919 91.2191C27.2687 90.1078 27.1347 88.848 26.3683 87.8082C24.6158 85.415 22.1826 85.2555 20.5748 85.1454C20.0282 85.1069 19.5083 85.0739 19.1063 84.9694C18.7633 84.8814 18.4954 84.7658 18.2971 84.6668C18.2649 84.3257 18.3935 83.7976 18.7794 82.3067C19.3046 80.2766 18.147 78.1585 17.0859 76.7447C15.328 74.401 12.2463 71.8923 8.88066 71.8923C7.07456 71.8923 3.7839 72.6515 2.01531 77.7569C1.59728 78.9563 2.04211 80.2931 3.08182 80.9863C3.52665 81.2834 4.03579 81.4264 4.53957 81.4264C5.2095 81.4264 5.87942 81.1679 6.38856 80.6672C6.76371 80.2986 7.15495 80.1391 7.68552 80.1391C7.88382 80.1391 8.10891 80.1611 8.34473 80.2106C9.39516 80.4142 11.0459 82.4442 11.3996 84.4358C11.4907 84.9584 11.3245 85.6406 11.1745 86.2347C11.0566 86.7024 10.9494 87.1425 10.9172 87.6266C10.8261 89.1065 11.6086 90.3664 12.9056 90.8285C13.1896 90.9275 13.4093 90.9605 13.7684 91.01C17.1341 91.4612 18.7848 92.1599 19.594 92.71C19.6959 93.0896 19.7066 93.8818 19.712 94.2449C19.7227 94.8501 19.728 95.3727 19.8888 95.9119C20.3926 97.6339 21.9629 97.9529 22.6328 98.0905C22.6703 98.096 22.7186 98.107 22.7614 98.118C22.7882 98.206 22.8204 98.294 22.8472 98.3821C22.9169 98.5911 22.9972 98.8222 23.0884 99.0972C24.0209 101.809 27.4241 102.778 30.2967 102.778C31.7813 102.778 32.9764 102.514 33.8553 101.991C34.1287 101.826 34.4502 101.606 34.8575 101.325C35.8437 100.638 37.5962 99.4218 38.9843 98.9707C39.07 99.0532 39.1558 99.1358 39.2308 99.2073C39.8418 99.8069 40.7636 100.709 42.1624 100.709C42.2535 100.709 42.3499 100.709 42.4411 100.698C44.5741 100.506 45.2815 98.4976 45.6995 97.2983C45.8067 96.9957 45.9729 96.5225 46.1015 96.264C46.1229 96.264 46.1497 96.264 46.1819 96.264C46.4338 96.264 46.7446 96.3355 47.034 96.4565C47.704 96.7371 48.3471 96.8031 48.8133 96.8471C48.9205 96.8581 49.0706 96.8746 49.1242 96.8856C49.2796 96.9242 49.3171 96.9462 49.4725 97.0342C49.8209 97.2322 50.464 97.6008 51.4234 97.6008C51.8414 97.6008 52.2648 97.5348 52.7525 97.3863C60.1484 95.1692 61.1613 86.0807 61.2524 85.0519C61.2632 84.9529 61.2685 84.7823 61.2792 84.5623C61.3168 83.7151 61.4079 81.4594 62.1153 80.0621C62.9621 78.3731 64.8271 77.0417 67.1049 76.5026C68.1285 76.2605 68.9217 75.4188 69.1254 74.357C69.6077 71.8483 69.3344 69.9943 68.2893 68.6795C67.7051 67.9478 66.6172 67.073 64.7575 67.073L64.7843 67.062Z" fill="#1D1D1B"/>
<path d="M61.6168 87.9295C61.4292 87.9295 61.2417 87.8909 61.0648 87.8084C60.5664 87.5774 60.2502 87.0547 60.277 86.4881C60.5664 80.4089 63.9964 76.3213 68.8144 76.3213C68.9538 76.3213 69.0878 76.3213 69.2271 76.3323C69.4201 76.3433 69.6076 76.3928 69.7791 76.4863C70.9475 77.1025 71.6442 78.2523 71.6549 79.5672C71.6656 80.8875 70.9528 82.1089 69.7952 82.747L69.2754 83.0331C67.5979 83.9409 64.4734 85.6353 62.5493 87.5499C62.2921 87.8029 61.9598 87.935 61.6168 87.935V87.9295Z" fill="#4CFF1F" fill-opacity="0.8"/>
<path d="M68.8144 77.6967C68.9323 77.6967 69.0448 77.6967 69.1628 77.7077C70.7438 78.5439 70.658 80.706 69.1628 81.5312C67.6675 82.3564 63.9106 84.2765 61.6168 86.5541C61.8686 81.2396 64.7198 77.6967 68.8144 77.6967ZM68.8198 74.9459C63.2406 74.9459 59.2694 79.5562 58.9478 86.4166C58.8942 87.5444 59.5159 88.5896 60.5181 89.0573C60.8718 89.2223 61.247 89.3048 61.6221 89.3048C62.3028 89.3048 62.978 89.0353 63.4872 88.5291C65.2772 86.7521 68.2892 85.1182 69.9077 84.238C70.106 84.1279 70.2829 84.0344 70.4383 83.9464C72.0354 83.0661 73.0161 81.3827 73.0054 79.5452C72.9893 77.7407 71.9925 76.1012 70.4008 75.254C70.0578 75.0725 69.6826 74.9679 69.2967 74.9514C69.136 74.9459 68.9805 74.9404 68.8198 74.9404V74.9459Z" fill="#1D1D1B"/>
<path d="M19.835 37.915C27.4614 51.6358 45.0187 58.9748 49.1776 43.8292C49.9226 43.4055 51.1659 42.9709 52.613 41.9916C52.2271 55.1017 50.6997 66.9795 42.4623 71.6117C28.5494 78.263 17.7342 57.9185 19.8297 37.915H19.835Z" fill="#1C1C1C"/>
<path d="M42.3714 30.6639C43.3039 32.4244 44.692 33.6567 45.9032 33.0571C47.1144 32.4574 50.3086 30.5209 52.7096 31.8577C53.9584 33.2771 54.6336 35.2247 54.162 38.234L52.7096 39.4003C53.5403 40.22 53.5135 41.0617 52.7096 41.9255C47.3663 45.3309 40.5438 46.9098 37.012 46.5853C33.4802 46.2607 26.17 43.5869 19.6691 37.3317C19.2886 42.4591 18.6669 49.5616 19.3636 54.0893C20.0603 58.617 24.0263 68.8938 29.2624 72.8274C32.8853 76.8105 39.7239 77.5147 42.1195 75.5066C44.5151 73.4986 47.854 67.678 47.854 67.678C46.2891 72.0792 46.1873 75.3746 42.9395 78.4829C33.2926 87.72 19.0474 69.8126 18.1042 53.4401C17.7344 49.292 17.3485 44.8358 17.7236 41.2103C18.0988 37.5848 17.7236 34.7405 17.7236 34.7405C18.1202 33.3376 19.176 31.5056 20.5588 30.6639C21.9415 29.8222 24.0638 29.4041 25.6662 30.3393C26.5559 30.2293 28.4156 32.0393 30.3289 33.9648C30.5111 34.8506 30.077 35.0651 28.989 34.57C28.9622 34.7735 27.4134 32.4794 25.6662 31.2471C24.6962 30.5649 23.1688 31.5166 21.9468 32.1548C20.2479 32.8535 19.5673 33.8988 19.6691 35.2026C19.6691 35.2026 32.8531 44.0601 37.012 44.3186C41.1709 44.5772 48.8884 42.5967 51.1929 40.308C52.447 39.5598 53.1223 34.8891 52.1362 34.0968C51.611 33.1726 50.9142 32.6169 49.6762 33.1891L45.1368 34.4159C42.5483 33.6237 41.8408 32.3144 42.3607 30.6639H42.3714Z" fill="#FF22FD"/>
<path d="M40.4794 30.4716C39.8577 27.4348 37.9337 26.5931 34.7449 27.8859C32.9656 29.5529 31.8883 31.3298 33.4854 33.5139C35.0771 35.544 36.5992 36.2977 38.0248 35.2634C40.5919 34.1851 41.2994 32.5567 40.4848 30.4771L40.4794 30.4716ZM36.1919 31.0988C35.6506 31.4454 35.2058 31.2913 34.8253 30.7632C34.4233 30.0315 34.568 29.5088 34.8253 29.0357C35.4791 28.5406 36.1276 28.4801 36.7546 29.5419C36.9208 30.3286 36.9529 31.0108 36.1919 31.0988Z" fill="#FF22FD"/>
<path d="M43.813 27.9796L43.3628 28.6893C43.3628 28.6893 44.2632 29.6245 45.7852 29.6245C47.3073 29.6245 48.4917 28.7388 49.4403 28.8048C50.3889 28.8708 50.7962 29.6245 50.7962 29.6245L51.2464 28.6893C51.2464 28.6893 50.5068 27.688 49.4403 27.688C48.3738 27.688 46.8893 28.5297 46.0318 28.6563C45.1743 28.7828 43.813 27.9796 43.813 27.9796Z" fill="#1C1C1C"/>
<path d="M30.7199 27.9796L29.5301 29.1569C29.1068 28.5132 28.1153 27.853 26.6039 27.6825C25.0926 27.5119 22.1181 26.2906 21.7698 25.0308C22.9756 25.7625 24.7335 26.5657 26.2449 26.5877C27.7562 26.6097 29.6105 27.2479 30.7199 27.9796Z" fill="#1C1C1C"/>
<path d="M31.9525 23.0498C31.7703 23.71 31.3255 24.1116 30.7199 24.3537C29.9642 23.1268 28.6297 22.2851 26.7807 21.7845C25.4784 21.834 24.1332 21.9605 22.7559 22.1641C23.4901 20.7117 24.8192 19.3968 27.3542 18.3735C29.5783 19.2483 31.2022 20.7172 31.9525 23.0498Z" fill="#1C1C1C"/>
<path d="M42.1943 25.4543C42.1943 25.4543 42.7678 25.9605 43.711 25.9605C44.6543 25.9605 47.4894 24.277 47.4894 24.277C48.722 24.3375 49.5474 24.5796 50.1155 24.9537C50.8443 23.1492 49.8743 21.5483 47.8967 20.0684C44.9598 21.3337 43.1108 23.1602 42.189 25.4598L42.1943 25.4543Z" fill="#1C1C1C"/>
<path d="M37.9873 20.8989C37.9927 18.8799 37.564 17.2624 36.551 16.1786C34.5359 14.5227 32.9227 15.1663 31.5829 17.4C31.5186 18.1647 31.7276 18.6543 32.5262 18.5388C33.0246 18.2967 34.6109 18.0766 35.2755 18.5388C35.9401 19.0009 35.8007 20.1617 36.5082 20.6458C37.1299 20.8714 37.6443 20.9814 37.9873 20.8989Z" fill="#FF22FD"/>
<path d="M39.7077 19.6775C40.7045 18.4726 41.1708 17.2348 41.144 15.9694C41.0207 14.7206 40.5652 13.3342 39.9542 11.8818C38.5233 12.322 37.103 12.454 35.715 11.8818L35.3184 13.4388C37.2317 14.7921 38.743 16.7892 39.7077 19.672V19.6775Z" fill="#FF22FD"/>
<path d="M43.3626 14.2422C43.5234 16.5968 42.4837 18.5334 40.49 20.1398C40.3239 20.7175 40.8598 20.4424 41.1492 20.9265C41.3636 21.2841 42.3604 20.8825 42.6659 20.1398C42.9714 19.3971 46.2674 19.5401 46.2781 18.0877C45.7422 14.8088 44.6007 14.3082 43.3626 14.2422Z" fill="#FF22FD"/>
<path d="M21.3358 21.7241C15.6548 28.8321 13.4682 38.1076 13.0555 47.1356C11.0297 45.4906 7.80334 43.2515 5.55776 45.6501C4.42157 48.1588 7.59968 48.9565 8.8109 50.9151C10.3276 53.3577 10.4669 56.4001 11.7478 58.9363C11.8872 59.1893 12.1016 59.4974 12.3213 59.679C12.9483 60.0861 13.6879 60.4382 14.4275 60.4822C14.867 60.5592 14.5722 59.3324 14.5026 59.0133C14.3954 58.5677 14.2507 58.1165 14.0899 57.6874L14.599 57.5114L16.4748 64.4873C16.9571 66.5393 17.9486 69.4331 18.0933 71.5402C17.1662 69.6642 16.5713 66.6549 15.9603 64.6358L14.0845 57.6599L14.5937 57.4839C14.8563 58.2981 15.9228 61.0213 14.4168 61.0323C13.5379 60.9773 12.734 60.5977 12.0104 60.1246C11.7264 59.899 11.4638 59.5304 11.2869 59.2113C9.74879 56.3396 9.92029 52.5435 7.49249 50.2164C5.99187 48.874 3.93923 47.7352 5.13973 45.3091C7.36923 42.7564 10.8957 44.6489 12.9859 46.3873L12.5517 46.5909C13.0341 37.706 15.0921 28.2874 21.3358 21.7296V21.7241Z" fill="#FF22FD"/>
<path d="M7.83545 47.1079C9.65764 46.9209 11.7478 47.2014 12.9697 48.7804L12.5463 49.1215C11.5173 47.6031 9.55045 47.2235 7.84617 47.3225L7.83545 47.1079Z" fill="#FF22FD"/>
<path d="M55.9627 49.2044C57.6456 47.9831 60.3628 46.2886 62.0724 48.3352C62.8441 49.2044 63.364 50.3762 63.2247 51.5755C63.1657 52.0267 62.9245 52.5053 62.5119 52.7309C60.4592 53.7762 58.3905 55.3936 58.0797 57.8748C57.5866 60.3284 57.4741 65.0707 54.0977 64.9772L54.2156 64.4381C57.0346 64.4491 57.2061 59.9048 57.6831 57.7922C57.9457 56.0263 59.1194 54.5023 60.5396 53.5506C61.0112 53.2205 61.5043 52.9399 62.0027 52.6704C62.1957 52.5658 62.5226 52.4228 62.6619 52.2357C63.4444 51.0804 62.7423 49.4465 61.9223 48.4727C60.2824 46.4812 57.6724 48.1426 56.0163 49.2759L55.9627 49.1989V49.2044Z" fill="#FF22FD"/>
<path d="M61.6919 50.1561C58.9907 50.6952 57.1257 52.5987 56.6487 55.4045C56.9381 52.4832 58.7978 50.3761 61.5471 49.6279L61.6865 50.1561H61.6919Z" fill="#FF22FD"/>
</g>
<defs>
<clipPath id="clip0_181_996">
<rect width="73" height="101.954" fill="white" transform="translate(0 0.812988)"/>
</clipPath>
</defs>
</svg>
