<svg width="254" height="353" viewBox="0 0 254 353" fill="none" xmlns="http://www.w3.org/2000/svg">
<path d="M193.35 224.606C192.989 226.94 192.345 230.36 191.983 232.654C204.35 228.328 214.022 226.98 219.451 230.34C201.695 239.011 192.305 245.791 191.42 260.739C190.877 270.034 196.347 291.54 195.321 296.309C193.391 305.201 186.916 308.359 178.953 312.142C161.519 301.66 146.217 304.879 133.287 323.328C131.015 322.442 125.183 322.905 118.005 325.279C109.218 328.196 98.8417 332.763 95.9059 326.184C91.4217 316.145 95.182 316.668 87.1186 305.161C79.7388 294.619 61.0382 290.434 59.3089 292.305C62.305 254.824 38.5571 243.799 19.3336 248.004C10.6067 249.915 4.13181 258.606 0.391676 262.027C-1.51861 242.653 10.9887 230.199 31.5394 228.449C37.5919 227.946 45.3738 230.642 53.2563 231.567C51.1851 224.023 47.626 214.285 46.138 206.902C46.0977 213.642 32.4643 208.773 28.322 192.034C26.0297 178.615 22.37 171.815 17.6446 168.938C9.31974 163.305 5.25788 159.684 11.5719 152.019C19.6554 144.494 28.8851 149.403 39.4017 160.328C39.6229 126.448 48.6917 95.0029 70.1874 66.9578C61.1387 60.7412 59.3089 52.0097 60.998 42.031C46.5803 22.3148 43.4032 9.7408 46.0776 0.848424C55.5888 -2.10899 68.9407 5.29461 84.3034 18.1302C92.407 12.6177 100.31 13.2615 107.991 21.4498C114.667 19.4781 136.766 16.1586 154.562 24.1859C168.416 30.4025 178.39 46.1955 184.845 57.3009C190.274 66.656 195.462 72.0276 196.709 84.9035C198.016 98.3426 201.937 106.088 201.977 117.737C202.017 130.673 199.825 142.784 198.619 158.718C198.418 161.535 200.268 164.633 200.067 167.59C210.523 159.04 216.395 159.644 221.784 163.205C225.886 167.53 229.063 177.569 225.182 179.42C216.254 183.705 205.134 191.552 206.401 208.21C206.763 213.078 200.107 224.868 193.33 224.606H193.35Z" fill="#FF22FD"/>
<path d="M7.22852 274.882C12.4567 269.893 18.4891 269.672 23.3754 270.597C32.4242 272.307 40.9903 283.895 42.8603 294.116C44.2679 301.861 39.4218 308.923 41.9153 309.808C42.6191 310.049 60.9578 311.498 70.4087 318.6C75.3955 322.342 73.7265 332.622 74.4504 334.996C74.7319 335.942 78.5324 335.902 80.7845 337.069C84.2029 338.839 83.9214 339.402 86.3143 346.162C88.7072 352.922 106.865 354.491 112.194 351.393C115.592 349.421 126.933 340.469 136.424 338.678C141.873 337.652 145.513 345.599 148.569 345.317C151.626 345.035 152.289 335.902 156.09 331.838C159.368 328.317 165.501 328.458 170.508 330.49C172.418 331.274 174.972 331.134 176.801 331.556C181.829 332.743 181.145 334.775 185.368 333.548C206.079 327.492 209.678 301.499 210.061 297.194C210.241 295.202 210.141 283.433 214.364 275.244C219.31 265.648 229.344 259.451 239.74 257.037C242.375 243.759 237.267 240.419 227.173 243.498C218.446 247.219 211.609 253.356 206.964 262.268C203.163 273.394 205.094 289.951 205.074 297.435C205.054 304.919 192.647 317.212 182.995 325.48C176.037 328.941 173.564 320.209 168.276 315.984C162.987 311.76 144.508 320.431 144.045 335.942C139.38 325.983 128.019 326.345 104.311 336.385C102.562 337.129 99.3847 337.23 97.4945 338.074C91.5022 339.543 86.5757 335.56 84.4241 329.564C82.5339 324.334 83.3182 317.252 81.1063 314.315C75.5765 306.951 67.131 309.567 59.4296 307.635C53.6384 306.187 50.7026 303.39 50.7026 303.39C47.8472 298.099 48.2896 295.544 50.9439 285.565C53.6585 275.345 19.4141 240.621 7.24862 274.862L7.22852 274.882Z" fill="#FF22FD"/>
<path d="M221.361 303.672C222.327 283.694 233.607 270.557 249.674 271.321C255.606 274.379 255.284 282.286 249.674 285.304C244.064 288.321 229.968 295.343 221.361 303.672Z" fill="#FF22FD"/>
<path d="M64.5773 125.804C93.1914 175.98 159.066 202.818 174.67 147.432C177.465 145.882 182.13 144.293 187.559 140.712C186.112 188.654 180.381 232.09 149.474 249.03C97.2733 273.353 56.6949 198.955 64.5572 125.804H64.5773Z" fill="#1C1C1C"/>
<path d="M149.133 99.288C152.631 105.726 157.839 110.232 162.384 108.039C166.928 105.847 178.913 98.7649 187.921 103.654C192.607 108.844 195.14 115.966 193.371 126.971L187.921 131.236C191.038 134.234 190.938 137.312 187.921 140.471C167.874 152.924 142.276 158.698 129.024 157.511C115.773 156.324 88.3454 146.546 63.9541 123.672C62.5264 142.422 60.1938 168.395 62.8079 184.952C65.422 201.51 80.3021 239.091 99.9478 253.476C113.541 268.042 139.199 270.617 148.188 263.274C157.176 255.931 169.703 234.645 169.703 234.645C163.832 250.74 163.45 262.791 151.264 274.158C115.069 307.937 61.6215 242.451 58.0824 182.579C56.695 167.409 55.2472 151.113 56.6548 137.855C58.0623 124.597 56.6548 114.196 56.6548 114.196C58.1428 109.066 62.1041 102.366 67.292 99.288C72.48 96.2098 80.4428 94.6808 86.4552 98.101C89.7932 97.6986 96.7707 104.318 103.949 111.359C104.633 114.598 103.004 115.383 98.9223 113.572C98.8218 114.316 93.0105 105.927 86.4552 101.421C82.8156 98.9258 77.0848 102.406 72.5001 104.74C66.1258 107.295 63.572 111.118 63.9541 115.886C63.9541 115.886 113.42 148.276 129.024 149.222C144.628 150.168 173.584 142.925 182.231 134.556C186.936 131.82 189.47 114.739 185.77 111.842C183.799 108.462 181.185 106.43 176.54 108.522L159.508 113.009C149.796 110.112 147.142 105.324 149.092 99.288H149.133Z" fill="#4CFF1F"/>
<path d="M142.034 98.584C139.702 87.4786 132.483 84.4005 120.519 89.1283C113.843 95.2242 109.801 101.723 115.793 109.71C121.765 117.133 127.476 119.89 132.825 116.107C142.457 112.164 145.111 106.209 142.054 98.6042L142.034 98.584ZM125.948 100.878C123.917 102.145 122.248 101.582 120.82 99.6503C119.312 96.9745 119.855 95.0633 120.82 93.3331C123.273 91.5224 125.706 91.3011 128.059 95.184C128.682 98.0609 128.803 100.556 125.948 100.878Z" fill="#4CFF1F"/>
<path d="M154.542 89.4701L152.853 92.0654C152.853 92.0654 156.231 95.4855 161.941 95.4855C167.652 95.4855 172.096 92.2464 175.655 92.4879C179.214 92.7293 180.743 95.4855 180.743 95.4855L182.432 92.0654C182.432 92.0654 179.657 88.4038 175.655 88.4038C171.654 88.4038 166.084 91.4819 162.866 91.9447C159.649 92.4074 154.542 89.4701 154.542 89.4701Z" fill="#1C1C1C"/>
<path d="M105.417 89.4705L100.953 93.7759C99.3646 91.422 95.6446 89.0078 89.9741 88.3841C84.3036 87.7604 73.1435 83.2941 71.8364 78.687C76.3608 81.3628 82.9563 84.3001 88.6268 84.3805C94.2974 84.461 101.255 86.7948 105.417 89.4705Z" fill="#1C1C1C"/>
<path d="M110.042 71.444C109.358 73.8582 107.69 75.3268 105.417 76.2121C102.582 71.7256 97.575 68.6475 90.6377 66.8167C85.7514 66.9978 80.7042 67.4605 75.5364 68.2049C78.2912 62.8936 83.2781 58.0853 92.7893 54.3433C101.134 57.5421 107.227 62.9137 110.042 71.444Z" fill="#1C1C1C"/>
<path d="M148.469 80.236C148.469 80.236 150.62 82.0869 154.159 82.0869C157.699 82.0869 168.336 75.9307 168.336 75.9307C172.961 76.152 176.057 77.0372 178.189 78.4053C180.924 71.8064 177.284 65.9519 169.864 60.54C158.845 65.1673 151.907 71.8466 148.449 80.2562L148.469 80.236Z" fill="#1C1C1C"/>
<path d="M132.684 63.5978C132.704 56.2143 131.095 50.2995 127.295 46.3361C119.734 40.2805 113.682 42.6343 108.655 50.8024C108.413 53.5989 109.198 55.3894 112.194 54.967C114.064 54.0817 120.016 53.277 122.509 54.967C125.003 56.6569 124.48 60.9019 127.134 62.6723C129.467 63.4972 131.397 63.8996 132.684 63.5978Z" fill="#4CFF1F"/>
<path d="M139.159 59.1114C142.899 54.7055 144.648 50.1788 144.548 45.5516C144.085 40.9847 142.376 35.9148 140.084 30.6035C134.715 32.213 129.386 32.6958 124.178 30.6035L122.69 36.2971C129.869 41.2462 135.539 48.5492 139.159 59.0913V59.1114Z" fill="#4CFF1F"/>
<path d="M152.852 39.2344C153.456 47.8451 149.555 54.9268 142.074 60.8014C141.451 62.9138 143.462 61.9079 144.548 63.6783C145.352 64.986 149.092 63.5174 150.238 60.8014C151.385 58.0854 163.751 58.6085 163.791 53.2972C161.78 41.3066 157.497 39.4758 152.852 39.2344Z" fill="#4CFF1F"/>
<path d="M70.2077 66.5957C48.8929 92.5888 40.6888 126.509 39.1404 159.523C31.5395 153.508 19.4343 145.319 11.009 154.091C6.74602 163.265 18.6702 166.182 23.2147 173.344C28.9053 182.277 29.4281 193.403 34.234 202.677C34.7568 203.603 35.5612 204.729 36.3856 205.393C38.7383 206.882 41.5132 208.169 44.2881 208.33C45.937 208.612 44.8311 204.126 44.5697 202.959C44.1675 201.329 43.6246 199.679 43.0213 198.11L44.9316 197.466L51.9695 222.977C53.7793 230.481 57.4993 241.063 58.0422 248.769C54.5635 241.908 52.3315 230.903 50.0391 223.52L43.0012 198.01L44.9115 197.366C45.8968 200.343 49.8984 210.302 44.2479 210.342C40.9502 210.141 37.9339 208.753 35.2193 207.023C34.1536 206.198 33.1683 204.85 32.5047 203.683C26.7336 193.181 27.3771 179.299 18.2681 170.789C12.6377 165.88 4.93628 161.716 9.44053 152.844C17.8056 143.509 31.0368 150.429 38.879 156.787L37.2503 157.531C39.06 125.04 46.7816 90.5971 70.2077 66.6158V66.5957Z" fill="#4CFF1F"/>
<path d="M19.5549 159.422C26.3917 158.738 34.234 159.764 38.8187 165.538L37.2301 166.785C33.3693 161.233 25.9896 159.845 19.5951 160.207L19.5549 159.422Z" fill="#FF22FD"/>
<path d="M200.127 167.087C206.441 162.621 216.636 156.425 223.051 163.909C225.946 167.087 227.897 171.373 227.374 175.759C227.153 177.408 226.248 179.159 224.699 179.983C216.998 183.806 209.236 189.721 208.07 198.794C206.22 207.767 205.798 225.109 193.129 224.767L193.572 222.796C204.149 222.836 204.792 206.218 206.582 198.492C207.567 192.034 211.971 186.462 217.3 182.981C219.069 181.774 220.919 180.748 222.789 179.762C223.513 179.38 224.74 178.857 225.262 178.173C228.198 173.948 225.564 167.973 222.487 164.412C216.334 157.129 206.542 163.205 200.328 167.349L200.127 167.067V167.087Z" fill="#4CFF1F"/>
<path d="M221.623 170.588C211.488 172.56 204.491 179.521 202.701 189.781C203.787 179.098 210.764 171.393 221.08 168.657L221.603 170.588H221.623Z" fill="#4CFF1F"/>
</svg>
