<svg width="432" height="272" viewBox="0 0 432 272" fill="none" xmlns="http://www.w3.org/2000/svg">
<g clip-path="url(#clip0_181_1058)">
<path d="M0.514811 16.7631C1.27918 16.903 4.17565 17.3055 6.86839 14.3039C10.6764 10.0701 10.6708 2.80411 10.6703 2.12636C115.384 1.76544 220.088 1.42031 324.802 1.05939C325.331 9.28555 329.851 15.4998 335 15.2661C339.947 15.0486 344.136 8.92249 344.623 1.00897L421.21 0.814167C421.18 1.74417 421.094 6.99297 423.702 11.2735C426.491 15.8687 430.161 15.7018 430.704 15.6689C430.875 94.807 431.047 173.945 431.228 253.083C430.373 253.148 426.814 253.599 423.861 258.193C421.018 262.613 420.64 267.91 420.561 269.313L343.973 269.508C344.078 261.327 340.08 254.607 335.293 254.115C330.074 253.577 325.232 260.603 325.33 269.555L10.031 270.357C10.1409 269.396 10.6297 264.24 8.45401 259.596C5.68408 253.708 1.08858 253.894 0.706472 253.926L0.524867 16.7631L0.514811 16.7631Z" stroke="#D9D9D9" stroke-width="6" stroke-miterlimit="10"/>
<path d="M335.248 23.6348L335.252 29.6089" stroke="#D9D9D9" stroke-width="6" stroke-miterlimit="10"/>
<path d="M335.255 32.9023L335.261 40.6103" stroke="#D9D9D9" stroke-width="6" stroke-miterlimit="10"/>
<path d="M335.263 43.9673L335.269 51.5649" stroke="#D9D9D9" stroke-width="6" stroke-miterlimit="10"/>
<path d="M335.271 54.9688L335.277 62.6295" stroke="#D9D9D9" stroke-width="6" stroke-miterlimit="10"/>
<path d="M335.28 66.0332L335.285 72.1334" stroke="#D9D9D9" stroke-width="6" stroke-miterlimit="10"/>
<path d="M335.288 76.9873L335.293 83.0244" stroke="#D9D9D9" stroke-width="6" stroke-miterlimit="10"/>
<path d="M335.297 88.0991L335.303 95.7598" stroke="#D9D9D9" stroke-width="6" stroke-miterlimit="10"/>
<path d="M335.305 99.1641L335.31 105.375" stroke="#D9D9D9" stroke-width="6" stroke-miterlimit="10"/>
<path d="M335.314 110.071L335.32 117.889" stroke="#D9D9D9" stroke-width="6" stroke-miterlimit="10"/>
<path d="M335.322 121.12L335.327 127.33" stroke="#D9D9D9" stroke-width="6" stroke-miterlimit="10"/>
<path d="M335.331 132.184L335.335 138.284" stroke="#D9D9D9" stroke-width="6" stroke-miterlimit="10"/>
<path d="M335.339 143.201L335.344 149.396" stroke="#D9D9D9" stroke-width="6" stroke-miterlimit="10"/>
<path d="M335.348 154.266L335.352 160.351" stroke="#D9D9D9" stroke-width="6" stroke-miterlimit="10"/>
<path d="M335.356 165.315L335.361 171.352" stroke="#D9D9D9" stroke-width="6" stroke-miterlimit="10"/>
<path d="M335.363 174.756L335.369 182.417" stroke="#D9D9D9" stroke-width="6" stroke-miterlimit="10"/>
<path d="M335.372 185.71L335.378 193.654" stroke="#D9D9D9" stroke-width="6" stroke-miterlimit="10"/>
<path d="M335.38 196.838L335.385 202.922" stroke="#D9D9D9" stroke-width="6" stroke-miterlimit="10"/>
<path d="M335.39 209.51L335.394 215.5" stroke="#D9D9D9" stroke-width="6" stroke-miterlimit="10"/>
<path d="M335.397 218.904L335.403 226.565" stroke="#D9D9D9" stroke-width="6" stroke-miterlimit="10"/>
<path d="M335.406 229.795L335.412 237.724" stroke="#D9D9D9" stroke-width="6" stroke-miterlimit="10"/>
<path d="M335.414 240.97L335.419 247.007" stroke="#D9D9D9" stroke-width="6" stroke-miterlimit="10"/>
<path d="M389.353 87.9516L389.355 88.9516L398.335 88.9244L398.333 87.9244L401.633 87.9144L401.647 96.0344C401.651 98.261 401.041 100.03 399.817 101.34C398.606 102.664 396.627 103.33 393.88 103.338C391.134 103.346 389.146 102.692 387.917 101.376C386.701 100.073 386.091 98.3082 386.087 96.0815L386.073 87.9615L389.353 87.9516ZM389.367 95.7116C389.368 96.1649 389.488 96.5045 389.729 96.7305C389.969 96.9564 390.342 97.0686 390.849 97.0671L396.889 97.0488C397.876 97.0458 398.368 96.591 398.367 95.6843L398.365 94.5243L389.365 94.5516L389.367 95.7116ZM389.402 115.646L386.122 115.656L386.113 110.376L387.473 110.372C387.046 110.08 386.665 109.667 386.331 109.135C385.997 108.616 385.829 107.977 385.827 107.217C385.826 106.217 386.091 105.429 386.623 104.854C387.155 104.279 387.908 103.99 388.882 103.987C391.402 103.98 392.699 106.116 392.773 110.396C393.226 110.354 393.533 110.18 393.692 109.873C393.865 109.566 393.951 109.045 393.949 108.312C393.948 107.712 393.88 107.065 393.746 106.373C393.625 105.693 393.457 105.067 393.242 104.494L396.922 104.483C397.097 105.189 397.238 105.955 397.347 106.782C397.455 107.608 397.51 108.415 397.511 109.201C397.514 111.188 397.157 112.609 396.439 113.464C395.72 114.32 394.608 114.75 393.101 114.755L389.401 114.766L389.402 115.646ZM390.793 110.362C390.792 109.762 390.711 109.295 390.55 108.962C390.39 108.643 390.123 108.484 389.75 108.485C389.523 108.485 389.336 108.553 389.19 108.686C389.057 108.833 388.991 109.034 388.991 109.287C388.992 109.634 389.139 109.9 389.433 110.086C389.726 110.271 390.14 110.364 390.673 110.362L390.793 110.362ZM397.265 128.307L393.985 128.317L393.984 127.557L387.039 124.958C385.291 124.31 383.983 123.567 383.115 122.73C382.234 121.892 381.792 120.787 381.789 119.414C381.788 118.854 381.847 118.287 381.966 117.713C382.072 117.139 382.224 116.619 382.423 116.152L386.043 116.141L386.048 118.901L385.848 118.901C385.515 118.902 385.349 119.076 385.349 119.423C385.35 119.729 385.497 119.962 385.791 120.121L393.965 116.937L393.963 116.177L397.243 116.167L397.254 122.107L393.974 122.117L393.973 121.437L390.855 122.486L393.976 123.437L393.975 122.757L397.255 122.747L397.265 128.307ZM389.437 134.963L389.439 135.963L398.439 135.936L398.437 134.936L401.717 134.926L401.733 143.706C401.736 145.426 401.365 146.74 400.62 147.649C399.888 148.558 398.696 149.015 397.042 149.02C395.389 149.025 394.188 148.576 393.44 147.671C392.705 146.767 392.336 145.455 392.333 143.735L392.329 141.555L389.449 141.563L389.452 143.483L386.172 143.493L386.157 134.973L389.437 134.963ZM395.17 142.226C395.172 142.999 395.599 143.385 396.452 143.382L397.172 143.38C397.612 143.379 397.932 143.278 398.132 143.077C398.345 142.89 398.451 142.603 398.45 142.216L398.449 141.536L395.169 141.546L395.17 142.226ZM389.484 160.958L386.204 160.968L386.194 155.688L387.554 155.684C387.127 155.392 386.746 154.98 386.412 154.447C386.078 153.928 385.91 153.289 385.909 152.529C385.907 151.529 386.172 150.742 386.704 150.167C387.237 149.592 387.99 149.303 388.963 149.3C391.483 149.292 392.78 151.428 392.854 155.708C393.308 155.667 393.614 155.492 393.773 155.185C393.946 154.878 394.032 154.358 394.031 153.624C394.03 153.024 393.962 152.378 393.827 151.685C393.706 151.005 393.538 150.379 393.324 149.807L397.004 149.795C397.178 150.502 397.32 151.268 397.428 152.094C397.536 152.92 397.591 153.727 397.592 154.514C397.596 156.5 397.238 157.921 396.52 158.777C395.801 159.632 394.689 160.062 393.182 160.067L389.482 160.078L389.484 160.958ZM390.874 155.674C390.873 155.074 390.792 154.608 390.632 154.275C390.471 153.955 390.204 153.796 389.831 153.797C389.604 153.798 389.418 153.865 389.271 153.999C389.138 154.146 389.072 154.346 389.072 154.599C389.073 154.946 389.22 155.212 389.514 155.398C389.808 155.584 390.221 155.676 390.754 155.674L390.874 155.674ZM385.934 166.474C385.931 164.794 386.194 163.173 386.725 161.611L389.685 161.602L389.691 164.842L389.491 164.843C388.851 164.845 388.532 165.252 388.533 166.066C388.534 166.786 388.782 167.145 389.275 167.144C389.542 167.143 389.741 167.035 389.874 166.822C390.007 166.621 390.12 166.261 390.212 165.741L390.391 164.74C390.76 162.646 391.945 161.595 393.945 161.589C395.105 161.586 396.006 162.023 396.647 162.901C397.289 163.779 397.611 164.965 397.614 166.458C397.617 168.125 397.339 169.532 396.781 170.681L394.001 170.689L393.996 167.649L394.196 167.649C394.462 167.648 394.662 167.554 394.795 167.367C394.942 167.193 395.015 166.933 395.014 166.586C395.013 165.919 394.799 165.587 394.372 165.588C394.145 165.589 393.972 165.683 393.853 165.87C393.733 166.057 393.62 166.397 393.514 166.891L393.297 168.031C393.072 169.219 392.654 170.067 392.041 170.575C391.429 171.084 390.642 171.339 389.682 171.342C388.469 171.346 387.542 170.922 386.9 170.071C386.259 169.233 385.937 168.034 385.934 166.474ZM385.952 176.845C385.949 175.165 386.213 173.544 386.744 171.982L389.704 171.973L389.709 175.213L389.509 175.214C388.869 175.216 388.55 175.624 388.552 176.437C388.553 177.157 388.8 177.516 389.294 177.515C389.56 177.514 389.76 177.407 389.893 177.193C390.026 176.992 390.139 176.632 390.231 176.112L390.409 175.111C390.779 173.017 391.964 171.967 393.964 171.96C395.124 171.957 396.024 172.394 396.666 173.272C397.308 174.15 397.63 175.336 397.632 176.829C397.635 178.496 397.358 179.904 396.8 181.052L394.02 181.06L394.014 178.02L394.214 178.02C394.481 178.019 394.681 177.925 394.814 177.738C394.96 177.564 395.033 177.304 395.033 176.957C395.031 176.291 394.817 175.958 394.391 175.959C394.164 175.96 393.991 176.054 393.871 176.241C393.752 176.428 393.639 176.768 393.533 177.262L393.315 178.402C393.091 179.59 392.672 180.438 392.06 180.946C391.447 181.455 390.661 181.711 389.701 181.713C388.488 181.717 387.56 181.293 386.919 180.442C386.277 179.604 385.955 178.405 385.952 176.845Z" fill="#D9D9D9"/>
<path d="M54.6643 46.3778L56.1643 46.3761L56.1709 51.2961L47.9809 51.3055L43.4685 42.0107L42.09 43.1523L42.0943 46.3923L43.5343 46.3906L43.5409 51.3106L32.2009 51.3237L32.1944 46.4037L33.6944 46.402L33.6764 32.902L32.1764 32.9037L32.1699 27.9837L43.5099 27.9706L43.5164 32.8906L42.0764 32.8923L42.0817 36.8523L46.7264 32.8869L44.8364 32.8891L44.8299 27.9691L55.9899 27.9562L55.9964 32.8762L54.4964 32.878L49.4919 37.0237L54.6643 46.3778ZM79.2631 46.3494L80.4631 46.348L80.4696 51.268L68.7097 51.2816L68.7031 46.3616L70.5031 46.3595L70.0199 43.9601L65.9399 43.9648L65.4631 46.3653L67.2631 46.3632L67.2697 51.2832L57.0097 51.2951L57.0031 46.3751L58.2031 46.3737L63.2487 27.9479L74.1687 27.9353L79.2631 46.3494ZM66.5957 40.784L69.3557 40.7808L68.1178 34.8122L67.8178 34.8126L66.5957 40.784ZM81.413 46.3469L82.913 46.3452L82.8951 32.8452L81.3951 32.8469L81.3886 27.9269L95.1586 27.911C97.7385 27.908 99.7092 28.4358 101.071 29.4942C102.432 30.5526 103.114 32.2719 103.117 34.6519C103.119 35.9919 102.851 37.1522 102.312 38.1328C101.773 39.1134 101.004 39.7943 100.005 40.1755L100.035 40.4754C101.956 40.7732 102.917 41.9521 102.92 44.0121L102.923 46.3221L104.333 46.3205L104.34 51.2405L94.8295 51.2514L94.8202 44.2014C94.8191 43.4214 94.6984 42.8316 94.4578 42.4319C94.2373 42.0321 93.8769 41.7625 93.3768 41.6231C92.8966 41.4837 92.2065 41.4145 91.3065 41.4155L91.313 46.3355L93.293 46.3332L93.2995 51.2532L81.4196 51.2669L81.413 46.3469ZM92.9216 37.7536C93.5016 37.753 93.9314 37.6025 94.211 37.3021C94.5106 36.9818 94.6599 36.4916 94.6591 35.8316L94.6576 34.7516C94.6568 34.0916 94.5061 33.6118 94.2057 33.3121C93.9253 32.9925 93.4951 32.833 92.9151 32.8336L91.2951 32.8355L91.3016 37.7555L92.9216 37.7536ZM105.407 46.3192L106.907 46.3175L106.889 32.8175L105.389 32.8192L105.383 27.8992L119.153 27.8833C121.733 27.8804 123.703 28.4081 125.065 29.4665C126.426 30.5249 127.108 32.2442 127.112 34.6242C127.113 35.9642 126.845 37.1245 126.306 38.1051C125.768 39.0857 124.998 39.7666 123.999 40.1478L124.029 40.4477C125.95 40.7455 126.911 41.9244 126.914 43.9844L126.917 46.2944L128.327 46.2928L128.334 51.2128L118.824 51.2237L118.814 44.1737C118.813 43.3937 118.692 42.8039 118.452 42.4042C118.231 42.0044 117.871 41.7348 117.371 41.5954C116.891 41.456 116.201 41.3868 115.301 41.3878L115.307 46.3078L117.287 46.3055L117.294 51.2255L105.414 51.2392L105.407 46.3192ZM116.916 37.7259C117.496 37.7253 117.926 37.5748 118.205 37.2744C118.505 36.9541 118.654 36.4639 118.653 35.8039L118.652 34.7239C118.651 34.0639 118.5 33.5841 118.2 33.2844C117.919 32.9648 117.489 32.8053 116.909 32.8059L115.289 32.8078L115.296 37.7278L116.916 37.7259ZM139.603 51.6198C136.463 51.6234 134.032 50.9362 132.31 49.5582C130.608 48.1801 129.755 45.9411 129.751 42.8411L129.738 32.7911L128.238 32.7929L128.231 27.8729L139.331 27.86L139.338 32.78L138.138 32.7814L138.153 44.3614C138.154 45.0214 138.295 45.5113 138.575 45.8309C138.876 46.1306 139.316 46.2801 139.896 46.2794C140.476 46.2788 140.906 46.1283 141.185 45.8279C141.485 45.5076 141.634 45.0174 141.633 44.3574L141.618 32.7774L140.418 32.7788L140.411 27.8588L150.701 27.8469L150.708 32.7669L149.208 32.7687L149.221 42.8187C149.225 45.9187 148.398 48.1596 146.74 49.5415C145.082 50.9234 142.703 51.6162 139.603 51.6198ZM161.12 51.5949C159.2 51.5972 157.38 51.4393 155.66 51.1212C153.959 50.7832 152.649 50.4047 151.728 49.9858L151.72 44.0458L158.32 44.0382C158.321 44.6582 158.462 45.108 158.742 45.3877C159.023 45.6673 159.533 45.8068 160.273 45.8059C160.893 45.8052 161.333 45.7147 161.592 45.5344C161.872 45.3341 162.012 45.0439 162.011 44.6639C162.011 44.3439 161.88 44.074 161.62 43.8543C161.36 43.6146 160.909 43.3752 160.269 43.1359L157.688 42.2389C155.467 41.4014 153.866 40.4133 152.884 39.2744C151.923 38.1355 151.44 36.5961 151.438 34.6561C151.435 32.2961 152.202 30.5052 153.741 29.2834C155.299 28.0416 157.888 27.4186 161.508 27.4145C163.248 27.4124 164.879 27.5906 166.399 27.9488C167.939 28.287 169.18 28.7456 170.121 29.3245L170.128 34.6945L164.128 34.7014C164.127 33.7014 163.506 33.2022 162.266 33.2036C161.666 33.2043 161.236 33.2848 160.976 33.4451C160.736 33.5854 160.617 33.8455 160.617 34.2255C160.618 34.5655 160.758 34.8353 161.038 35.035C161.339 35.2347 161.819 35.4441 162.479 35.6633L165.09 36.5603C167.211 37.2779 168.753 38.2161 169.714 39.375C170.696 40.5139 171.188 42.0133 171.19 43.8733C171.193 46.4133 170.336 48.3343 168.618 49.6363C166.92 50.9382 164.42 51.5911 161.12 51.5949ZM172.035 51.1623L172.028 46.2423L173.528 46.2406L173.51 32.7406L172.01 32.7423L172.004 27.8223L192.254 27.799L192.266 36.859L185.546 36.8667L185.54 32.7267L181.91 32.7309L181.916 37.4709L184.556 37.4679L184.561 40.8879L181.921 40.8909L181.928 46.2309L185.558 46.2267L185.552 41.4867L192.272 41.479L192.285 51.139L172.035 51.1623ZM193.421 51.1377L193.415 46.2177L194.915 46.2159L194.897 32.7159L193.397 32.7177L193.39 27.7977L206.05 27.783L206.057 32.703L203.297 32.7062L203.315 46.2062L206.015 46.2031L206.011 43.4431L211.981 43.4362L211.991 51.1162L193.421 51.1377ZM221.772 48.5249C221.769 46.8049 222.017 45.2846 222.516 43.9641C223.034 42.6435 223.872 41.4025 225.031 40.2412C226.189 39.0598 227.787 37.838 229.826 36.5756C230.425 36.1949 230.845 35.8744 231.084 35.6142C231.344 35.3339 231.474 35.0037 231.473 34.6237C231.472 33.8037 230.882 33.3944 229.702 33.3958C228.822 33.3968 227.812 33.6279 226.672 34.0893C225.533 34.5506 224.504 35.1318 223.585 35.8328L221.806 29.4449C223.085 28.8034 224.555 28.2617 226.214 27.8198C227.874 27.3579 229.543 27.1259 231.223 27.124C233.983 27.1208 236.124 27.7283 237.646 28.9466C239.167 30.1648 239.93 31.894 239.932 34.134C239.934 35.334 239.665 36.3943 239.127 37.3149C238.608 38.2155 237.969 38.9762 237.21 39.5971C236.471 40.218 235.502 40.9291 234.303 41.7305C232.964 42.612 231.975 43.3731 231.336 44.0139C230.716 44.6346 230.407 45.355 230.408 46.175L234.038 46.1708L234.036 44.4608L240.186 44.4537L240.195 51.0837L221.775 51.1049L221.772 48.5249ZM251.878 51.4902C248.498 51.4941 245.887 50.5371 244.044 48.6192C242.222 46.7013 241.308 43.6324 241.302 39.4124C241.296 35.1924 242.202 32.1213 244.02 30.1992C245.857 28.2771 248.466 27.3141 251.846 27.3102C255.226 27.3063 257.827 28.2633 259.65 30.1812C261.492 32.0991 262.416 35.168 262.422 39.388C262.427 43.288 261.581 46.279 259.884 48.3609C258.207 50.4429 255.538 51.486 251.878 51.4902ZM251.871 46.1502C253.231 46.1486 253.91 45.4078 253.908 43.9278L253.896 34.8678C253.894 33.3878 253.213 32.6486 251.853 32.6502C250.493 32.6518 249.814 33.3925 249.816 34.8725L249.828 43.9325C249.83 45.4125 250.511 46.1518 251.871 46.1502ZM263.227 48.4771C263.224 46.7571 263.472 45.2368 263.971 43.9162C264.489 42.5956 265.327 41.3547 266.486 40.1933C267.644 39.012 269.242 37.7901 271.281 36.5278C271.88 36.1471 272.3 35.8266 272.539 35.5663C272.799 35.286 272.929 34.9559 272.928 34.5759C272.927 33.7559 272.337 33.3466 271.157 33.3479C270.277 33.3489 269.267 33.5801 268.127 34.0414C266.988 34.5027 265.959 35.0839 265.04 35.785L263.261 29.397C264.54 28.7555 266.01 28.2138 267.669 27.7719C269.329 27.31 270.998 27.0781 272.678 27.0761C275.438 27.073 277.579 27.6805 279.101 28.8987C280.622 30.117 281.385 31.8461 281.388 34.0861C281.389 35.2861 281.121 36.3464 280.582 37.267C280.063 38.1676 279.424 38.9284 278.665 39.5493C277.926 40.1701 276.957 40.8812 275.758 41.6826C274.419 42.5642 273.43 43.3253 272.791 43.966C272.171 44.5868 271.862 45.3071 271.863 46.1271L275.493 46.1229L275.491 44.4129L281.641 44.4058L281.65 51.0358L263.23 51.0571L263.227 48.4771ZM292.642 51.0231L292.637 47.2731L282.887 47.2844L282.881 42.3644L293.211 27.6825L300.531 27.674L300.551 42.704L302.621 42.7016L302.627 47.2616L300.557 47.264L300.562 51.014L292.642 51.0231ZM288.431 42.718L292.631 42.7131L292.624 36.8031L288.431 42.718Z" fill="#D9D9D9"/>
<path d="M120.443 79.064L115.971 79.064L115.971 77.036L114.307 77.036L114.307 88.736L116.127 88.736L116.127 93L105.207 93L105.207 88.736L107.027 88.736L107.027 77.036L105.363 77.036L105.363 79.064L100.891 79.064L100.891 72.772L120.443 72.772L120.443 79.064ZM138.546 88.736L138.546 93L130.33 93L130.33 88.736L131.422 88.736L131.422 84.472C131.422 83.9 131.301 83.484 131.058 83.224C130.816 82.9467 130.452 82.808 129.966 82.808C128.926 82.808 128.406 83.3627 128.406 84.472L128.406 88.736L129.498 88.736L129.498 93L121.282 93L121.282 88.736L122.426 88.736L122.426 77.036L121.282 77.036L121.282 72.772L128.406 72.772L128.406 80.572C129.048 79.7747 129.741 79.1767 130.486 78.778C131.232 78.3793 132.098 78.18 133.086 78.18C134.525 78.18 135.6 78.6307 136.31 79.532C137.038 80.4333 137.402 81.6727 137.402 83.25L137.402 88.736L138.546 88.736ZM156.494 88.736L156.494 93L149.37 93L149.37 90.972C148.122 92.5667 146.562 93.364 144.69 93.364C143.251 93.364 142.168 92.9133 141.44 92.012C140.729 91.1107 140.374 89.8713 140.374 88.294L140.374 82.808L139.23 82.808L139.23 78.544L146.354 78.544L146.354 87.072C146.354 87.644 146.475 88.0687 146.718 88.346C146.978 88.606 147.359 88.736 147.862 88.736C148.365 88.736 148.737 88.606 148.98 88.346C149.24 88.0687 149.37 87.644 149.37 87.072L149.37 82.808L147.966 82.808L147.966 78.544L155.35 78.544L155.35 88.736L156.494 88.736ZM168.312 78.18C168.659 78.18 168.988 78.2147 169.3 78.284C169.612 78.3533 169.872 78.44 170.08 78.544L170.08 83.51C169.37 83.2153 168.607 83.068 167.792 83.068C166.7 83.068 165.86 83.354 165.27 83.926C164.681 84.498 164.386 85.3473 164.386 86.474L164.386 88.736L166.726 88.736L166.726 93L157.262 93L157.262 88.736L158.406 88.736L158.406 82.808L157.262 82.808L157.262 78.544L164.386 78.544L164.386 80.442C164.872 79.714 165.426 79.1593 166.05 78.778C166.674 78.3793 167.428 78.18 168.312 78.18ZM177.239 93.364C175.055 93.364 172.949 93.0173 170.921 92.324L170.921 88.476L175.133 88.476L175.133 88.736C175.133 89.568 175.662 89.984 176.719 89.984C177.655 89.984 178.123 89.6633 178.123 89.022C178.123 88.6753 177.984 88.4153 177.707 88.242C177.447 88.0687 176.979 87.9213 176.303 87.8L175.003 87.566C172.282 87.0807 170.921 85.538 170.921 82.938C170.921 81.43 171.493 80.26 172.637 79.428C173.781 78.596 175.324 78.18 177.265 78.18C179.432 78.18 181.26 78.544 182.751 79.272L182.751 82.886L178.799 82.886L178.799 82.626C178.799 82.2793 178.678 82.0193 178.435 81.846C178.21 81.6553 177.872 81.56 177.421 81.56C176.554 81.56 176.121 81.8373 176.121 82.392C176.121 82.6867 176.242 82.912 176.485 83.068C176.728 83.224 177.17 83.3713 177.811 83.51L179.293 83.796C180.836 84.0907 181.936 84.6367 182.595 85.434C183.254 86.2313 183.583 87.254 183.583 88.502C183.583 90.0793 183.028 91.284 181.919 92.116C180.827 92.948 179.267 93.364 177.239 93.364ZM189.526 93.364C187.758 93.364 186.423 92.7053 185.522 91.388C184.638 90.0707 184.196 88.1987 184.196 85.772C184.196 83.3453 184.638 81.4733 185.522 80.156C186.423 78.8387 187.758 78.18 189.526 78.18C190.41 78.18 191.19 78.3967 191.866 78.83C192.559 79.2633 193.122 79.7573 193.556 80.312L193.556 77.036L192.022 77.036L192.022 72.772L199.536 72.772L199.536 88.736L200.68 88.736L200.68 93L193.556 93L193.556 91.232C193.122 91.7867 192.559 92.2807 191.866 92.714C191.19 93.1473 190.41 93.364 189.526 93.364ZM192.048 88.736C192.55 88.736 192.923 88.606 193.166 88.346C193.426 88.0687 193.556 87.644 193.556 87.072L193.556 84.472C193.556 83.9 193.426 83.484 193.166 83.224C192.923 82.9467 192.55 82.808 192.048 82.808C191.545 82.808 191.164 82.9467 190.904 83.224C190.661 83.484 190.54 83.9 190.54 84.472L190.54 87.072C190.54 87.644 190.661 88.0687 190.904 88.346C191.164 88.606 191.545 88.736 192.048 88.736ZM216.675 88.736L216.675 93L209.811 93L209.811 91.232C209.429 91.7867 208.892 92.2807 208.199 92.714C207.523 93.1473 206.691 93.364 205.703 93.364C204.403 93.364 203.38 93.0173 202.635 92.324C201.889 91.6307 201.517 90.6513 201.517 89.386C201.517 86.11 204.299 84.4287 209.863 84.342C209.811 83.7527 209.585 83.354 209.187 83.146C208.788 82.9207 208.112 82.808 207.159 82.808C206.379 82.808 205.538 82.8947 204.637 83.068C203.753 83.224 202.938 83.4407 202.193 83.718L202.193 78.934C203.111 78.7087 204.108 78.5267 205.183 78.388C206.257 78.2493 207.306 78.18 208.329 78.18C210.911 78.18 212.757 78.648 213.867 79.584C214.976 80.52 215.531 81.9673 215.531 83.926L215.531 88.736L216.675 88.736ZM209.811 86.916C209.031 86.916 208.424 87.02 207.991 87.228C207.575 87.436 207.367 87.7827 207.367 88.268C207.367 88.5627 207.453 88.8053 207.627 88.996C207.817 89.1693 208.077 89.256 208.407 89.256C208.857 89.256 209.204 89.0653 209.447 88.684C209.689 88.3027 209.811 87.7653 209.811 87.072L209.811 86.916ZM233.165 78.544L233.165 82.808L232.177 82.808L228.771 91.83C227.922 94.1007 226.951 95.7993 225.859 96.926C224.767 98.07 223.328 98.642 221.543 98.642C220.815 98.642 220.078 98.564 219.333 98.408C218.588 98.2693 217.912 98.07 217.305 97.81L217.305 93.104L220.893 93.104L220.893 93.364C220.893 93.7973 221.118 94.014 221.569 94.014C221.968 94.014 222.271 93.8233 222.479 93.442L218.371 82.808L217.383 82.808L217.383 78.544L225.105 78.544L225.105 82.808L224.221 82.808L225.573 86.864L226.821 82.808L225.937 82.808L225.937 78.544L233.165 78.544ZM79.5112 126.764C79.5112 125.273 79.7279 123.956 80.1612 122.812C80.6119 121.668 81.3399 120.593 82.3452 119.588C83.3506 118.565 84.7372 117.508 86.5052 116.416C87.0252 116.087 87.3892 115.809 87.5972 115.584C87.8226 115.341 87.9352 115.055 87.9352 114.726C87.9352 114.015 87.4239 113.66 86.4012 113.66C85.6386 113.66 84.7632 113.859 83.7752 114.258C82.7872 114.657 81.8946 115.159 81.0972 115.766L79.5632 110.228C80.6726 109.673 81.9466 109.205 83.3852 108.824C84.8239 108.425 86.2712 108.226 87.7272 108.226C90.1192 108.226 91.9739 108.755 93.2912 109.812C94.6086 110.869 95.2672 112.369 95.2672 114.31C95.2672 115.35 95.0332 116.269 94.5652 117.066C94.1146 117.846 93.5599 118.505 92.9012 119.042C92.2599 119.579 91.4192 120.195 90.3792 120.888C89.2179 121.651 88.3599 122.309 87.8052 122.864C87.2679 123.401 86.9992 124.025 86.9992 124.736L90.1452 124.736L90.1452 123.254L95.4752 123.254L95.4752 129L79.5112 129L79.5112 126.764ZM96.396 126.764C96.396 125.273 96.6127 123.956 97.046 122.812C97.4967 121.668 98.2247 120.593 99.23 119.588C100.235 118.565 101.622 117.508 103.39 116.416C103.91 116.087 104.274 115.809 104.482 115.584C104.707 115.341 104.82 115.055 104.82 114.726C104.82 114.015 104.309 113.66 103.286 113.66C102.523 113.66 101.648 113.859 100.66 114.258C99.672 114.657 98.7793 115.159 97.982 115.766L96.448 110.228C97.5573 109.673 98.8313 109.205 100.27 108.824C101.709 108.425 103.156 108.226 104.612 108.226C107.004 108.226 108.859 108.755 110.176 109.812C111.493 110.869 112.152 112.369 112.152 114.31C112.152 115.35 111.918 116.269 111.45 117.066C110.999 117.846 110.445 118.505 109.786 119.042C109.145 119.579 108.304 120.195 107.264 120.888C106.103 121.651 105.245 122.309 104.69 122.864C104.153 123.401 103.884 124.025 103.884 124.736L107.03 124.736L107.03 123.254L112.36 123.254L112.36 129L96.396 129L96.396 126.764ZM130.701 124.736L130.701 129L122.485 129L122.485 124.736L123.577 124.736L123.577 120.472C123.577 119.9 123.455 119.484 123.213 119.224C122.97 118.947 122.606 118.808 122.121 118.808C121.081 118.808 120.561 119.363 120.561 120.472L120.561 124.736L121.653 124.736L121.653 129L113.437 129L113.437 124.736L114.581 124.736L114.581 118.808L113.437 118.808L113.437 114.544L120.561 114.544L120.561 116.572C121.809 114.977 123.369 114.18 125.241 114.18C126.679 114.18 127.754 114.631 128.465 115.532C129.193 116.433 129.557 117.673 129.557 119.25L129.557 124.736L130.701 124.736ZM136.662 129.364C134.894 129.364 133.56 128.705 132.658 127.388C131.774 126.071 131.332 124.199 131.332 121.772C131.332 119.345 131.774 117.473 132.658 116.156C133.56 114.839 134.894 114.18 136.662 114.18C137.546 114.18 138.326 114.397 139.002 114.83C139.696 115.263 140.259 115.757 140.692 116.312L140.692 113.036L139.158 113.036L139.158 108.772L146.672 108.772L146.672 124.736L147.816 124.736L147.816 129L140.692 129L140.692 127.232C140.259 127.787 139.696 128.281 139.002 128.714C138.326 129.147 137.546 129.364 136.662 129.364ZM139.184 124.736C139.687 124.736 140.06 124.606 140.302 124.346C140.562 124.069 140.692 123.644 140.692 123.072L140.692 120.472C140.692 119.9 140.562 119.484 140.302 119.224C140.06 118.947 139.687 118.808 139.184 118.808C138.682 118.808 138.3 118.947 138.04 119.224C137.798 119.484 137.676 119.9 137.676 120.472L137.676 123.072C137.676 123.644 137.798 124.069 138.04 124.346C138.3 124.606 138.682 124.736 139.184 124.736ZM175.584 124.736L176.624 124.736L176.624 129L166.432 129L166.432 124.736L167.992 124.736L167.576 122.656L164.04 122.656L163.624 124.736L165.184 124.736L165.184 129L156.292 129L156.292 124.736L157.332 124.736L161.726 108.772L171.19 108.772L175.584 124.736ZM164.612 119.9L167.004 119.9L165.938 114.726L165.678 114.726L164.612 119.9ZM194.504 124.736L194.504 129L187.38 129L187.38 126.972C186.132 128.567 184.572 129.364 182.7 129.364C181.261 129.364 180.178 128.913 179.45 128.012C178.739 127.111 178.384 125.871 178.384 124.294L178.384 118.808L177.24 118.808L177.24 114.544L184.364 114.544L184.364 123.072C184.364 123.644 184.485 124.069 184.728 124.346C184.988 124.606 185.369 124.736 185.872 124.736C186.374 124.736 186.747 124.606 186.99 124.346C187.25 124.069 187.38 123.644 187.38 123.072L187.38 118.808L185.976 118.808L185.976 114.544L193.36 114.544L193.36 124.736L194.504 124.736ZM202.838 135.136C201.59 135.136 200.394 135.049 199.25 134.876C198.123 134.703 197.248 134.503 196.624 134.278L196.624 130.014C198.461 130.343 200.108 130.508 201.564 130.508C202.552 130.508 203.263 130.352 203.696 130.04C204.147 129.745 204.372 129.182 204.372 128.35L204.372 127.232C203.939 127.787 203.375 128.281 202.682 128.714C202.006 129.147 201.226 129.364 200.342 129.364C198.574 129.364 197.239 128.705 196.338 127.388C195.454 126.071 195.012 124.199 195.012 121.772C195.012 119.345 195.454 117.473 196.338 116.156C197.239 114.839 198.574 114.18 200.342 114.18C201.226 114.18 202.006 114.397 202.682 114.83C203.375 115.263 203.939 115.757 204.372 116.312L204.372 114.544L211.496 114.544L211.496 118.808L210.352 118.808L210.352 127.96C210.352 130.473 209.728 132.293 208.48 133.42C207.232 134.564 205.351 135.136 202.838 135.136ZM202.864 124.736C203.367 124.736 203.739 124.606 203.982 124.346C204.242 124.069 204.372 123.644 204.372 123.072L204.372 120.472C204.372 119.9 204.242 119.484 203.982 119.224C203.739 118.947 203.367 118.808 202.864 118.808C202.361 118.808 201.98 118.947 201.72 119.224C201.477 119.484 201.356 119.9 201.356 120.472L201.356 123.072C201.356 123.644 201.477 124.069 201.72 124.346C201.98 124.606 202.361 124.736 202.864 124.736ZM229.34 124.736L229.34 129L222.216 129L222.216 126.972C220.968 128.567 219.408 129.364 217.536 129.364C216.097 129.364 215.014 128.913 214.286 128.012C213.575 127.111 213.22 125.871 213.22 124.294L213.22 118.808L212.076 118.808L212.076 114.544L219.2 114.544L219.2 123.072C219.2 123.644 219.321 124.069 219.564 124.346C219.824 124.606 220.205 124.736 220.708 124.736C221.21 124.736 221.583 124.606 221.826 124.346C222.086 124.069 222.216 123.644 222.216 123.072L222.216 118.808L220.812 118.808L220.812 114.544L228.196 114.544L228.196 124.736L229.34 124.736ZM236.374 129.364C234.19 129.364 232.084 129.017 230.056 128.324L230.056 124.476L234.268 124.476L234.268 124.736C234.268 125.568 234.797 125.984 235.854 125.984C236.79 125.984 237.258 125.663 237.258 125.022C237.258 124.675 237.119 124.415 236.842 124.242C236.582 124.069 236.114 123.921 235.438 123.8L234.138 123.566C231.417 123.081 230.056 121.538 230.056 118.938C230.056 117.43 230.628 116.26 231.772 115.428C232.916 114.596 234.459 114.18 236.4 114.18C238.567 114.18 240.395 114.544 241.886 115.272L241.886 118.886L237.934 118.886L237.934 118.626C237.934 118.279 237.813 118.019 237.57 117.846C237.345 117.655 237.007 117.56 236.556 117.56C235.689 117.56 235.256 117.837 235.256 118.392C235.256 118.687 235.377 118.912 235.62 119.068C235.863 119.224 236.305 119.371 236.946 119.51L238.428 119.796C239.971 120.091 241.071 120.637 241.73 121.434C242.389 122.231 242.718 123.254 242.718 124.502C242.718 126.079 242.163 127.284 241.054 128.116C239.962 128.948 238.402 129.364 236.374 129.364ZM249.96 129.364C248.123 129.364 246.736 128.922 245.8 128.038C244.882 127.137 244.422 125.629 244.422 123.514L244.422 118.808L243.278 118.808L243.278 114.544C243.937 114.544 244.431 114.379 244.76 114.05C245.09 113.703 245.254 113.235 245.254 112.646L245.254 111.476L250.766 111.476L250.766 114.544L254.276 114.544L254.276 118.808L250.766 118.808L250.766 123.072C250.766 123.644 250.888 124.069 251.13 124.346C251.39 124.606 251.772 124.736 252.274 124.736C252.933 124.736 253.652 124.658 254.432 124.502L254.432 128.584C253.947 128.775 253.288 128.948 252.456 129.104C251.642 129.277 250.81 129.364 249.96 129.364Z" fill="#D9D9D9"/>
<path d="M62.5123 215.017L62.5048 210.642L51.1298 210.636L51.1199 204.896L63.1654 187.787L71.7054 187.792L71.7356 205.327L74.1506 205.328L74.1597 210.648L71.7447 210.647L71.7523 215.022L62.5123 215.017ZM57.5956 205.32L62.4956 205.322L62.4837 198.427L57.5956 205.32ZM87.6198 215.52C83.6765 215.518 80.6296 214.396 78.4791 212.155C76.3519 209.914 75.2841 206.332 75.2756 201.409C75.2671 196.485 76.3226 192.904 78.4421 190.665C80.5849 188.426 83.6279 187.308 87.5712 187.31C91.5146 187.312 94.5498 188.434 96.677 190.675C98.8275 192.916 99.907 196.498 99.9155 201.421C99.9233 205.971 98.9377 209.459 96.9585 211.885C95.0027 214.31 91.8898 215.522 87.6198 215.52ZM87.6091 209.29C89.1958 209.291 89.9876 208.428 89.9846 206.701L89.9664 196.131C89.9635 194.405 89.1686 193.541 87.582 193.54C85.9953 193.539 85.2035 194.402 85.2064 196.129L85.2246 206.699C85.2276 208.425 86.0224 209.289 87.6091 209.29ZM113.255 215.533C109.311 215.531 106.264 214.409 104.114 212.168C101.987 209.927 100.919 206.345 100.91 201.422C100.902 196.498 101.957 192.917 104.077 190.678C106.22 188.44 109.263 187.321 113.206 187.323C117.149 187.325 120.185 188.447 122.312 190.688C124.462 192.929 125.542 196.511 125.55 201.434C125.558 205.984 124.572 209.472 122.593 211.898C120.637 214.324 117.525 215.535 113.255 215.533ZM113.244 209.303C114.83 209.304 115.622 208.441 115.619 206.714L115.601 196.144C115.598 194.418 114.803 193.554 113.217 193.553C111.63 193.552 110.838 194.415 110.841 196.142L110.859 206.712C110.862 208.439 111.657 209.302 113.244 209.303ZM137.262 209.315L139.012 209.316L138.985 193.601L137.235 193.6L137.225 187.825L151.435 187.833C155.331 187.835 158.425 188.91 160.715 191.058C163.029 193.182 164.19 196.648 164.198 201.454C164.206 206.261 163.057 209.737 160.751 211.882C158.468 214.005 155.378 215.065 151.481 215.063L137.272 215.055L137.262 209.315ZM150.842 209.322C151.635 209.323 152.23 209.113 152.626 208.693C153.021 208.274 153.219 207.62 153.217 206.734L153.199 196.164C153.196 194.437 152.401 193.573 150.814 193.572L148.784 193.571L148.812 209.321L150.842 209.322ZM191.606 209.343L193.356 209.344L193.366 215.084L183.811 215.079L178.543 204.227L176.935 205.556L176.941 209.336L178.621 209.337L178.631 215.077L165.401 215.07L165.391 209.33L167.141 209.331L167.114 193.581L165.364 193.58L165.354 187.84L178.584 187.847L178.594 193.587L176.914 193.586L176.922 198.206L182.339 193.589L180.134 193.587L180.124 187.848L193.144 187.854L193.154 193.594L191.404 193.593L185.568 198.42L191.606 209.343ZM220.83 209.358L222.58 209.359L222.59 215.099L213.035 215.094L207.766 204.242L206.158 205.571L206.165 209.351L207.845 209.352L207.855 215.092L194.625 215.085L194.615 209.345L196.365 209.346L196.338 193.596L194.588 193.595L194.578 187.855L207.808 187.862L207.818 193.602L206.138 193.601L206.146 198.221L211.563 193.604L209.358 193.602L209.348 187.863L222.368 187.869L222.378 193.609L220.628 193.608L214.791 198.435L220.83 209.358Z" fill="#717171"/>
</g>
<defs>
<clipPath id="clip0_181_1058">
<rect width="431.538" height="270.057" fill="white" transform="matrix(0.999997 -0.0025436 0.000765736 1 0 1.09766)"/>
</clipPath>
</defs>
</svg>
