<svg width="432" height="272" viewBox="0 0 432 272" fill="none" xmlns="http://www.w3.org/2000/svg">
<g clip-path="url(#clip0_181_1253)">
<path d="M0.514811 16.7631C1.27918 16.903 4.17565 17.3055 6.86839 14.3039C10.6764 10.0701 10.6708 2.80411 10.6703 2.12636C115.384 1.76544 220.088 1.42031 324.802 1.05939C325.331 9.28555 329.851 15.4998 335 15.2661C339.947 15.0486 344.136 8.92249 344.623 1.00897L421.21 0.814167C421.18 1.74417 421.094 6.99297 423.702 11.2735C426.491 15.8687 430.161 15.7018 430.704 15.6689C430.875 94.807 431.047 173.945 431.228 253.083C430.373 253.148 426.814 253.599 423.861 258.193C421.018 262.613 420.64 267.91 420.561 269.313L343.973 269.508C344.078 261.327 340.08 254.607 335.293 254.115C330.074 253.577 325.232 260.603 325.33 269.555L10.031 270.357C10.1409 269.396 10.6297 264.24 8.45401 259.596C5.68408 253.708 1.08858 253.894 0.706472 253.926L0.524867 16.7631L0.514811 16.7631Z" stroke="#4CFF1F" stroke-opacity="0.8" stroke-width="6" stroke-miterlimit="10"/>
<path d="M335.248 23.6348L335.252 29.6089" stroke="#4CFF1F" stroke-opacity="0.8" stroke-width="6" stroke-miterlimit="10"/>
<path d="M335.255 32.9023L335.261 40.6103" stroke="#4CFF1F" stroke-opacity="0.8" stroke-width="6" stroke-miterlimit="10"/>
<path d="M335.263 43.9673L335.269 51.5649" stroke="#4CFF1F" stroke-opacity="0.8" stroke-width="6" stroke-miterlimit="10"/>
<path d="M335.272 54.9688L335.277 62.6295" stroke="#4CFF1F" stroke-opacity="0.8" stroke-width="6" stroke-miterlimit="10"/>
<path d="M335.28 66.0332L335.285 72.1334" stroke="#4CFF1F" stroke-opacity="0.8" stroke-width="6" stroke-miterlimit="10"/>
<path d="M335.288 76.9873L335.293 83.0244" stroke="#4CFF1F" stroke-opacity="0.8" stroke-width="6" stroke-miterlimit="10"/>
<path d="M335.297 88.0991L335.303 95.7598" stroke="#4CFF1F" stroke-opacity="0.8" stroke-width="6" stroke-miterlimit="10"/>
<path d="M335.305 99.1641L335.31 105.375" stroke="#4CFF1F" stroke-opacity="0.8" stroke-width="6" stroke-miterlimit="10"/>
<path d="M335.314 110.071L335.32 117.889" stroke="#4CFF1F" stroke-opacity="0.8" stroke-width="6" stroke-miterlimit="10"/>
<path d="M335.322 121.12L335.327 127.33" stroke="#4CFF1F" stroke-opacity="0.8" stroke-width="6" stroke-miterlimit="10"/>
<path d="M335.331 132.184L335.335 138.284" stroke="#4CFF1F" stroke-opacity="0.8" stroke-width="6" stroke-miterlimit="10"/>
<path d="M335.339 143.201L335.344 149.396" stroke="#4CFF1F" stroke-opacity="0.8" stroke-width="6" stroke-miterlimit="10"/>
<path d="M335.348 154.266L335.352 160.351" stroke="#4CFF1F" stroke-opacity="0.8" stroke-width="6" stroke-miterlimit="10"/>
<path d="M335.356 165.315L335.361 171.352" stroke="#4CFF1F" stroke-opacity="0.8" stroke-width="6" stroke-miterlimit="10"/>
<path d="M335.363 174.756L335.369 182.417" stroke="#4CFF1F" stroke-opacity="0.8" stroke-width="6" stroke-miterlimit="10"/>
<path d="M335.372 185.71L335.378 193.654" stroke="#4CFF1F" stroke-opacity="0.8" stroke-width="6" stroke-miterlimit="10"/>
<path d="M335.38 196.838L335.385 202.922" stroke="#4CFF1F" stroke-opacity="0.8" stroke-width="6" stroke-miterlimit="10"/>
<path d="M335.39 209.51L335.394 215.5" stroke="#4CFF1F" stroke-opacity="0.8" stroke-width="6" stroke-miterlimit="10"/>
<path d="M335.397 218.904L335.403 226.565" stroke="#4CFF1F" stroke-opacity="0.8" stroke-width="6" stroke-miterlimit="10"/>
<path d="M335.406 229.795L335.412 237.724" stroke="#4CFF1F" stroke-opacity="0.8" stroke-width="6" stroke-miterlimit="10"/>
<path d="M335.414 240.97L335.419 247.007" stroke="#4CFF1F" stroke-opacity="0.8" stroke-width="6" stroke-miterlimit="10"/>
<path d="M389.353 87.9516L389.354 88.9516L398.334 88.9244L398.333 87.9244L401.633 87.9144L401.647 96.0344C401.651 98.261 401.041 100.03 399.817 101.34C398.606 102.664 396.627 103.33 393.88 103.338C391.134 103.346 389.146 102.692 387.917 101.376C386.701 100.073 386.091 98.3082 386.087 96.0815L386.073 87.9615L389.353 87.9516ZM389.367 95.7116C389.367 96.1649 389.488 96.5045 389.728 96.7305C389.969 96.9564 390.342 97.0686 390.849 97.0671L396.889 97.0488C397.876 97.0458 398.368 96.591 398.367 95.6843L398.364 94.5243L389.364 94.5516L389.367 95.7116ZM389.402 115.646L386.122 115.656L386.113 110.376L387.473 110.372C387.046 110.08 386.665 109.667 386.331 109.135C385.996 108.616 385.829 107.977 385.827 107.217C385.825 106.217 386.091 105.429 386.623 104.854C387.155 104.279 387.908 103.99 388.881 103.987C391.401 103.98 392.699 106.116 392.773 110.396C393.226 110.354 393.533 110.18 393.692 109.873C393.865 109.566 393.951 109.045 393.949 108.312C393.948 107.712 393.88 107.065 393.746 106.373C393.624 105.693 393.457 105.067 393.242 104.494L396.922 104.483C397.097 105.189 397.238 105.955 397.346 106.782C397.455 107.608 397.509 108.415 397.511 109.201C397.514 111.188 397.157 112.609 396.438 113.464C395.72 114.32 394.607 114.75 393.101 114.755L389.401 114.766L389.402 115.646ZM390.793 110.362C390.792 109.762 390.711 109.295 390.55 108.962C390.39 108.643 390.123 108.484 389.75 108.485C389.523 108.485 389.336 108.553 389.19 108.686C389.057 108.833 388.99 109.034 388.991 109.287C388.992 109.634 389.139 109.9 389.432 110.086C389.726 110.271 390.14 110.364 390.673 110.362L390.793 110.362ZM397.265 128.307L393.985 128.317L393.984 127.557L387.039 124.958C385.291 124.31 383.983 123.567 383.115 122.73C382.234 121.892 381.792 120.787 381.789 119.414C381.788 118.854 381.847 118.287 381.966 117.713C382.072 117.139 382.224 116.619 382.423 116.152L386.043 116.141L386.048 118.901L385.848 118.901C385.515 118.902 385.349 119.076 385.349 119.423C385.35 119.729 385.497 119.962 385.79 120.121L393.965 116.937L393.963 116.177L397.243 116.167L397.254 122.107L393.974 122.117L393.973 121.437L390.855 122.486L393.976 123.437L393.975 122.757L397.255 122.747L397.265 128.307ZM389.437 134.963L389.439 135.963L398.439 135.936L398.437 134.936L401.717 134.926L401.733 143.706C401.736 145.426 401.365 146.74 400.62 147.649C399.888 148.558 398.696 149.015 397.042 149.02C395.389 149.025 394.188 148.576 393.44 147.671C392.705 146.767 392.336 145.455 392.333 143.735L392.329 141.555L389.449 141.563L389.452 143.483L386.172 143.493L386.157 134.973L389.437 134.963ZM395.17 142.226C395.171 142.999 395.599 143.385 396.452 143.382L397.172 143.38C397.612 143.379 397.932 143.278 398.132 143.077C398.345 142.89 398.451 142.603 398.45 142.216L398.449 141.536L395.169 141.546L395.17 142.226ZM389.484 160.958L386.204 160.968L386.194 155.688L387.554 155.684C387.127 155.392 386.746 154.98 386.412 154.447C386.078 153.928 385.91 153.289 385.909 152.529C385.907 151.529 386.172 150.742 386.704 150.167C387.237 149.592 387.989 149.303 388.963 149.3C391.483 149.292 392.78 151.428 392.854 155.708C393.308 155.667 393.614 155.492 393.773 155.185C393.946 154.878 394.032 154.358 394.031 153.624C394.029 153.024 393.962 152.378 393.827 151.685C393.706 151.005 393.538 150.379 393.324 149.807L397.004 149.795C397.178 150.502 397.32 151.268 397.428 152.094C397.536 152.92 397.591 153.727 397.592 154.514C397.596 156.5 397.238 157.921 396.52 158.777C395.801 159.632 394.689 160.062 393.182 160.067L389.482 160.078L389.484 160.958ZM390.874 155.674C390.873 155.074 390.792 154.608 390.632 154.275C390.471 153.955 390.204 153.796 389.831 153.797C389.604 153.798 389.418 153.865 389.271 153.999C389.138 154.146 389.072 154.346 389.072 154.599C389.073 154.946 389.22 155.212 389.514 155.398C389.807 155.584 390.221 155.676 390.754 155.674L390.874 155.674ZM385.934 166.474C385.931 164.794 386.194 163.173 386.725 161.611L389.685 161.602L389.691 164.842L389.491 164.843C388.851 164.845 388.531 165.252 388.533 166.066C388.534 166.786 388.781 167.145 389.275 167.144C389.541 167.143 389.741 167.035 389.874 166.822C390.007 166.621 390.12 166.261 390.212 165.741L390.39 164.74C390.76 162.646 391.945 161.595 393.945 161.589C395.105 161.586 396.006 162.023 396.647 162.901C397.289 163.779 397.611 164.965 397.614 166.458C397.617 168.125 397.339 169.532 396.781 170.681L394.001 170.689L393.996 167.649L394.196 167.649C394.462 167.648 394.662 167.554 394.795 167.367C394.942 167.193 395.014 166.933 395.014 166.586C395.013 165.919 394.799 165.587 394.372 165.588C394.145 165.589 393.972 165.683 393.853 165.87C393.733 166.057 393.62 166.397 393.514 166.891L393.296 168.031C393.072 169.219 392.653 170.067 392.041 170.575C391.429 171.084 390.642 171.339 389.682 171.342C388.469 171.346 387.542 170.922 386.9 170.071C386.259 169.233 385.936 168.034 385.934 166.474ZM385.952 176.845C385.949 175.165 386.213 173.544 386.743 171.982L389.703 171.973L389.709 175.213L389.509 175.214C388.869 175.216 388.55 175.624 388.551 176.437C388.553 177.157 388.8 177.516 389.293 177.515C389.56 177.514 389.76 177.407 389.893 177.193C390.026 176.992 390.138 176.632 390.231 176.112L390.409 175.111C390.779 173.017 391.963 171.967 393.963 171.96C395.123 171.957 396.024 172.394 396.666 173.272C397.307 174.15 397.63 175.336 397.632 176.829C397.635 178.496 397.358 179.904 396.8 181.052L394.02 181.06L394.014 178.02L394.214 178.02C394.481 178.019 394.681 177.925 394.814 177.738C394.96 177.564 395.033 177.304 395.032 176.957C395.031 176.291 394.817 175.958 394.391 175.959C394.164 175.96 393.991 176.054 393.871 176.241C393.751 176.428 393.639 176.768 393.533 177.262L393.315 178.402C393.09 179.59 392.672 180.438 392.06 180.946C391.447 181.455 390.661 181.711 389.701 181.713C388.488 181.717 387.56 181.293 386.919 180.442C386.277 179.604 385.955 178.405 385.952 176.845Z" fill="#FAFAFA"/>
<path d="M50.3654 46.3764L51.8654 46.3746L51.8719 51.2946L43.6819 51.3041L39.1696 42.0093L37.7911 43.1509L37.7954 46.3909L39.2354 46.3892L39.2419 51.3092L27.9019 51.3223L27.8954 46.4023L29.3954 46.4006L29.3775 32.9006L27.8775 32.9023L27.871 27.9823L39.2109 27.9692L39.2175 32.8892L37.7775 32.8909L37.7827 36.8509L42.4275 32.8855L40.5375 32.8877L40.5309 27.9677L51.6909 27.9548L51.6974 32.8748L50.1975 32.8765L45.193 37.0223L50.3654 46.3764ZM74.9642 46.348L76.1642 46.3466L76.1707 51.2666L64.4107 51.2802L64.4042 46.3602L66.2042 46.3581L65.721 43.9586L61.641 43.9633L61.1642 46.3639L62.9642 46.3618L62.9707 51.2818L52.7107 51.2937L52.7042 46.3737L53.9042 46.3723L58.9497 27.9464L69.8697 27.9338L74.9642 46.348ZM62.2968 40.7826L65.0568 40.7794L63.8188 34.8108L63.5188 34.8112L62.2968 40.7826ZM77.1141 46.3455L78.6141 46.3438L78.5962 32.8438L77.0962 32.8455L77.0896 27.9255L90.8596 27.9096C93.4396 27.9066 95.4103 28.4343 96.7717 29.4928C98.1331 30.5512 98.8154 32.2704 98.8186 34.6504C98.8203 35.9904 98.5519 37.1507 98.0132 38.1314C97.4745 39.112 96.7054 39.7929 95.7059 40.174L95.7363 40.474C97.6567 40.7718 98.6182 41.9507 98.621 44.0107L98.624 46.3207L100.034 46.319L100.041 51.239L90.5306 51.25L90.5212 44.2C90.5202 43.42 90.3994 42.8301 90.1589 42.4304C89.9383 42.0307 89.578 41.7611 89.0778 41.6217C88.5976 41.4822 87.9075 41.413 87.0075 41.4141L87.0141 46.3341L88.9941 46.3318L89.0006 51.2518L77.1206 51.2655L77.1141 46.3455ZM88.6227 37.7522C89.2027 37.7515 89.6325 37.601 89.9121 37.3007C90.2116 36.9804 90.361 36.4902 90.3601 35.8302L90.3587 34.7502C90.3578 34.0902 90.2072 33.6104 89.9068 33.3107C89.6263 32.991 89.1961 32.8315 88.6161 32.8322L86.9961 32.8341L87.0027 37.7541L88.6227 37.7522ZM101.108 46.3178L102.608 46.3161L102.59 32.8161L101.09 32.8178L101.084 27.8978L114.854 27.8819C117.434 27.8789 119.404 28.4067 120.766 29.4651C122.127 30.5235 122.809 32.2427 122.813 34.6227C122.814 35.9627 122.546 37.123 122.007 38.1037C121.469 39.0843 120.699 39.7652 119.7 40.1463L119.73 40.4463C121.651 40.7441 122.612 41.923 122.615 43.983L122.618 46.293L124.028 46.2913L124.035 51.2113L114.525 51.2223L114.515 44.1723C114.514 43.3923 114.394 42.8025 114.153 42.4027C113.932 42.003 113.572 41.7334 113.072 41.594C112.592 41.4545 111.902 41.3853 111.002 41.3864L111.008 46.3064L112.988 46.3041L112.995 51.2241L101.115 51.2378L101.108 46.3178ZM112.617 37.7245C113.197 37.7238 113.627 37.5733 113.906 37.273C114.206 36.9527 114.355 36.4625 114.354 35.8025L114.353 34.7225C114.352 34.0625 114.201 33.5827 113.901 33.283C113.62 32.9633 113.19 32.8038 112.61 32.8045L110.99 32.8064L110.997 37.7264L112.617 37.7245ZM135.304 51.6183C132.164 51.622 129.733 50.9348 128.011 49.5568C126.309 48.1787 125.456 45.9397 125.452 42.8397L125.439 32.7897L123.939 32.7914L123.932 27.8714L135.032 27.8586L135.039 32.7786L133.839 32.78L133.854 44.36C133.855 45.02 133.996 45.5098 134.276 45.8295C134.577 46.1292 135.017 46.2787 135.597 46.278C136.177 46.2773 136.607 46.1268 136.886 45.8265C137.186 45.5062 137.335 45.016 137.334 44.356L137.319 32.776L136.119 32.7774L136.112 27.8574L146.402 27.8455L146.409 32.7655L144.909 32.7672L144.922 42.8172C144.926 45.9172 144.099 48.1582 142.441 49.5401C140.783 50.922 138.404 51.6148 135.304 51.6183ZM156.821 51.5935C154.901 51.5957 153.081 51.4378 151.361 51.1198C149.66 50.7818 148.35 50.4033 147.429 49.9843L147.421 44.0443L154.021 44.0367C154.022 44.6567 154.163 45.1066 154.443 45.3862C154.724 45.6659 155.234 45.8053 155.974 45.8045C156.594 45.8038 157.034 45.7133 157.293 45.533C157.573 45.3326 157.713 45.0425 157.712 44.6625C157.712 44.3425 157.581 44.0726 157.321 43.8529C157.061 43.6132 156.611 43.3737 155.97 43.1345L153.389 42.2375C151.168 41.4 149.567 40.4119 148.585 39.273C147.624 38.1341 147.142 36.5947 147.139 34.6547C147.136 32.2947 147.903 30.5038 149.442 29.282C151 28.0402 153.589 27.4172 157.209 27.413C158.949 27.411 160.58 27.5891 162.1 27.9474C163.64 28.2856 164.881 28.7442 165.822 29.3231L165.829 34.6931L159.829 34.7C159.828 33.7 159.207 33.2007 157.967 33.2022C157.367 33.2028 156.937 33.2833 156.677 33.4436C156.438 33.5839 156.318 33.8441 156.318 34.2241C156.319 34.5641 156.459 34.8339 156.739 35.0336C157.04 35.2332 157.52 35.4427 158.18 35.6619L160.791 36.5589C162.912 37.2765 164.454 38.2147 165.415 39.3736C166.397 40.5124 166.889 42.0119 166.891 43.8719C166.895 46.4119 166.037 48.3329 164.319 49.6348C162.621 50.9368 160.121 51.5897 156.821 51.5935ZM167.736 51.1609L167.729 46.2409L169.229 46.2392L169.211 32.7392L167.711 32.7409L167.705 27.8209L187.955 27.7975L187.967 36.8575L181.247 36.8653L181.241 32.7253L177.611 32.7295L177.618 37.4695L180.258 37.4664L180.262 40.8864L177.622 40.8895L177.629 46.2295L181.259 46.2253L181.253 41.4853L187.973 41.4775L187.986 51.1375L167.736 51.1609ZM189.122 51.1362L189.116 46.2162L190.616 46.2145L190.598 32.7145L189.098 32.7162L189.091 27.7962L201.751 27.7816L201.758 32.7016L198.998 32.7048L199.016 46.2048L201.716 46.2017L201.712 43.4417L207.682 43.4348L207.692 51.1148L189.122 51.1362ZM217.473 48.5235C217.47 46.8035 217.718 45.2832 218.217 43.9626C218.735 42.642 219.573 41.4011 220.732 40.2397C221.89 39.0584 223.488 37.8365 225.527 36.5742C226.126 36.1935 226.546 35.873 226.786 35.6127C227.045 35.3324 227.175 35.0023 227.174 34.6223C227.173 33.8023 226.583 33.393 225.403 33.3943C224.523 33.3953 223.513 33.6265 222.373 34.0878C221.234 34.5491 220.205 35.1303 219.286 35.8314L217.507 29.4434C218.786 28.802 220.256 28.2603 221.915 27.8183C223.575 27.3564 225.244 27.1245 226.924 27.1226C229.684 27.1194 231.825 27.7269 233.347 28.9452C234.868 30.1634 235.631 31.8925 235.634 34.1325C235.635 35.3325 235.367 36.3928 234.828 37.3135C234.309 38.2141 233.67 38.9748 232.911 39.5957C232.172 40.2165 231.203 40.9276 230.004 41.729C228.665 42.6106 227.676 43.3717 227.037 44.0125C226.417 44.6332 226.108 45.3535 226.11 46.1735L229.74 46.1693L229.737 44.4593L235.887 44.4522L235.896 51.0822L217.476 51.1035L217.473 48.5235ZM247.579 51.4888C244.199 51.4927 241.588 50.5357 239.745 48.6178C237.923 46.6999 237.009 43.6309 237.003 39.4109C236.997 35.1909 237.903 32.1199 239.721 30.1978C241.558 28.2757 244.167 27.3127 247.547 27.3088C250.927 27.3049 253.528 28.2619 255.351 30.1798C257.193 32.0976 258.117 35.1666 258.123 39.3866C258.128 43.2866 257.282 46.2776 255.585 48.3595C253.908 50.4415 251.239 51.4845 247.579 51.4888ZM247.572 46.1488C248.932 46.1472 249.611 45.4064 249.609 43.9264L249.597 34.8664C249.595 33.3864 248.914 32.6472 247.554 32.6488C246.194 32.6503 245.515 33.3911 245.517 34.8711L245.529 43.9311C245.531 45.4111 246.212 46.1503 247.572 46.1488ZM258.928 48.4757C258.925 46.7557 259.173 45.2354 259.672 43.9148C260.19 42.5942 261.028 41.3532 262.187 40.1919C263.345 39.0105 264.943 37.7887 266.982 36.5263C267.581 36.1457 268.001 35.8252 268.241 35.5649C268.5 35.2846 268.63 34.9544 268.629 34.5744C268.628 33.7544 268.038 33.3451 266.858 33.3465C265.978 33.3475 264.968 33.5787 263.828 34.04C262.689 34.5013 261.66 35.0825 260.741 35.7835L258.962 29.3956C260.241 28.7541 261.711 28.2124 263.37 27.7705C265.03 27.3086 266.699 27.0767 268.379 27.0747C271.139 27.0715 273.28 27.6791 274.802 28.8973C276.323 30.1156 277.086 31.8447 277.089 34.0847C277.09 35.2847 276.822 36.345 276.283 37.2656C275.764 38.1662 275.125 38.927 274.366 39.5478C273.627 40.1687 272.658 40.8798 271.459 41.6812C270.12 42.5627 269.131 43.3239 268.492 43.9646C267.872 44.5853 267.563 45.3057 267.565 46.1257L271.195 46.1215L271.192 44.4115L277.342 44.4044L277.351 51.0344L258.931 51.0557L258.928 48.4757ZM288.343 51.0217L288.338 47.2717L278.588 47.283L278.582 42.363L288.912 27.681L296.232 27.6726L296.252 42.7026L298.322 42.7002L298.328 47.2602L296.258 47.2626L296.263 51.0126L288.343 51.0217ZM284.132 42.7166L288.332 42.7117L288.325 36.8017L284.132 42.7166Z" fill="#FAFAFA"/>
<path d="M118.688 92L118.688 87.736L119.988 87.736L119.988 76.036L118.688 76.036L118.688 71.772L134.236 71.772L134.236 78.506L129.634 78.506L129.634 76.036L127.268 76.036L127.268 80.352L131.194 80.352L131.194 83.316L127.268 83.316L127.268 87.736L130.674 87.736L130.674 92L118.688 92ZM146.166 77.18C146.512 77.18 146.842 77.2147 147.154 77.284C147.466 77.3533 147.726 77.44 147.934 77.544L147.934 82.51C147.223 82.2153 146.46 82.068 145.646 82.068C144.554 82.068 143.713 82.354 143.124 82.926C142.534 83.498 142.24 84.3473 142.24 85.474L142.24 87.736L144.58 87.736L144.58 92L135.116 92L135.116 87.736L136.26 87.736L136.26 81.808L135.116 81.808L135.116 77.544L142.24 77.544L142.24 79.442C142.725 78.714 143.28 78.1593 143.904 77.778C144.528 77.3793 145.282 77.18 146.166 77.18ZM150.023 76.114L150.023 71.772L155.327 71.772L155.327 76.114L150.023 76.114ZM148.775 92L148.775 87.736L149.919 87.736L149.919 81.808L148.775 81.808L148.775 77.544L155.899 77.544L155.899 87.736L157.043 87.736L157.043 92L148.775 92ZM162.885 92.364C161.117 92.364 159.782 91.7053 158.881 90.388C157.997 89.0707 157.555 87.1987 157.555 84.772C157.555 82.3453 157.997 80.4733 158.881 79.156C159.782 77.8387 161.117 77.18 162.885 77.18C163.769 77.18 164.549 77.3967 165.225 77.83C165.918 78.2633 166.482 78.7573 166.915 79.312L166.915 76.036L165.381 76.036L165.381 71.772L172.895 71.772L172.895 87.736L174.039 87.736L174.039 92L166.915 92L166.915 90.232C166.482 90.7867 165.918 91.2807 165.225 91.714C164.549 92.1473 163.769 92.364 162.885 92.364ZM165.407 87.736C165.91 87.736 166.282 87.606 166.525 87.346C166.785 87.0687 166.915 86.644 166.915 86.072L166.915 83.472C166.915 82.9 166.785 82.484 166.525 82.224C166.282 81.9467 165.91 81.808 165.407 81.808C164.904 81.808 164.523 81.9467 164.263 82.224C164.02 82.484 163.899 82.9 163.899 83.472L163.899 86.072C163.899 86.644 164.02 87.0687 164.263 87.346C164.523 87.606 164.904 87.736 165.407 87.736ZM190.034 87.736L190.034 92L183.17 92L183.17 90.232C182.789 90.7867 182.252 91.2807 181.558 91.714C180.882 92.1473 180.05 92.364 179.062 92.364C177.762 92.364 176.74 92.0173 175.994 91.324C175.249 90.6307 174.876 89.6513 174.876 88.386C174.876 85.11 177.658 83.4287 183.222 83.342C183.17 82.7527 182.945 82.354 182.546 82.146C182.148 81.9207 181.472 81.808 180.518 81.808C179.738 81.808 178.898 81.8947 177.996 82.068C177.112 82.224 176.298 82.4407 175.552 82.718L175.552 77.934C176.471 77.7087 177.468 77.5267 178.542 77.388C179.617 77.2493 180.666 77.18 181.688 77.18C184.271 77.18 186.117 77.648 187.226 78.584C188.336 79.52 188.89 80.9673 188.89 82.926L188.89 87.736L190.034 87.736ZM183.17 85.916C182.39 85.916 181.784 86.02 181.35 86.228C180.934 86.436 180.726 86.7827 180.726 87.268C180.726 87.5627 180.813 87.8053 180.986 87.996C181.177 88.1693 181.437 88.256 181.766 88.256C182.217 88.256 182.564 88.0653 182.806 87.684C183.049 87.3027 183.17 86.7653 183.17 86.072L183.17 85.916ZM206.524 77.544L206.524 81.808L205.536 81.808L202.13 90.83C201.281 93.1007 200.31 94.7993 199.218 95.926C198.126 97.07 196.688 97.642 194.902 97.642C194.174 97.642 193.438 97.564 192.692 97.408C191.947 97.2693 191.271 97.07 190.664 96.81L190.664 92.104L194.252 92.104L194.252 92.364C194.252 92.7973 194.478 93.014 194.928 93.014C195.327 93.014 195.63 92.8233 195.838 92.442L191.73 81.808L190.742 81.808L190.742 77.544L198.464 77.544L198.464 81.808L197.58 81.808L198.932 85.864L200.18 81.808L199.296 81.808L199.296 77.544L206.524 77.544ZM77.5503 125.764C77.5503 124.273 77.7669 122.956 78.2003 121.812C78.6509 120.668 79.3789 119.593 80.3843 118.588C81.3896 117.565 82.7763 116.508 84.5443 115.416C85.0643 115.087 85.4283 114.809 85.6363 114.584C85.8616 114.341 85.9743 114.055 85.9743 113.726C85.9743 113.015 85.4629 112.66 84.4403 112.66C83.6776 112.66 82.8023 112.859 81.8143 113.258C80.8263 113.657 79.9336 114.159 79.1363 114.766L77.6023 109.228C78.7116 108.673 79.9856 108.205 81.4243 107.824C82.8629 107.425 84.3103 107.226 85.7663 107.226C88.1583 107.226 90.0129 107.755 91.3303 108.812C92.6476 109.869 93.3063 111.369 93.3063 113.31C93.3063 114.35 93.0723 115.269 92.6043 116.066C92.1536 116.846 91.5989 117.505 90.9403 118.042C90.2989 118.579 89.4583 119.195 88.4183 119.888C87.2569 120.651 86.3989 121.309 85.8443 121.864C85.3069 122.401 85.0383 123.025 85.0383 123.736L88.1843 123.736L88.1843 122.254L93.5143 122.254L93.5143 128L77.5503 128L77.5503 125.764ZM106.759 117.678C107.296 117.817 107.808 118.103 108.293 118.536C108.796 118.952 109.203 119.481 109.515 120.122C109.844 120.763 110.009 121.474 110.009 122.254C110.009 124.161 109.324 125.66 107.955 126.752C106.603 127.827 104.592 128.364 101.923 128.364C100.658 128.364 99.3924 128.225 98.127 127.948C96.8617 127.653 95.735 127.298 94.747 126.882L94.747 121.344C95.8217 121.812 96.931 122.193 98.075 122.488C99.2364 122.783 100.337 122.93 101.377 122.93C102.105 122.93 102.634 122.817 102.963 122.592C103.31 122.367 103.483 121.994 103.483 121.474C103.483 120.469 102.876 119.966 101.663 119.966L99.791 119.966L99.791 115.702L101.247 115.702C102.391 115.702 102.963 115.217 102.963 114.246C102.963 113.31 102.391 112.842 101.247 112.842C100.415 112.842 99.5484 113.041 98.647 113.44C97.7457 113.821 96.8704 114.324 96.021 114.948L94.487 109.41C95.5444 108.855 96.749 108.387 98.101 108.006C99.453 107.607 100.814 107.408 102.183 107.408C104.575 107.408 106.412 107.911 107.695 108.916C108.978 109.921 109.619 111.343 109.619 113.18C109.619 114.324 109.35 115.269 108.813 116.014C108.276 116.742 107.591 117.297 106.759 117.678ZM121.892 113.18C122.239 113.18 122.568 113.215 122.88 113.284C123.192 113.353 123.452 113.44 123.66 113.544L123.66 118.51C122.95 118.215 122.187 118.068 121.372 118.068C120.28 118.068 119.44 118.354 118.85 118.926C118.261 119.498 117.966 120.347 117.966 121.474L117.966 123.736L120.306 123.736L120.306 128L110.842 128L110.842 123.736L111.986 123.736L111.986 117.808L110.842 117.808L110.842 113.544L117.966 113.544L117.966 115.442C118.452 114.714 119.006 114.159 119.63 113.778C120.254 113.379 121.008 113.18 121.892 113.18ZM129.623 128.364C127.855 128.364 126.521 127.705 125.619 126.388C124.735 125.071 124.293 123.199 124.293 120.772C124.293 118.345 124.735 116.473 125.619 115.156C126.521 113.839 127.855 113.18 129.623 113.18C130.507 113.18 131.287 113.397 131.963 113.83C132.657 114.263 133.22 114.757 133.653 115.312L133.653 112.036L132.119 112.036L132.119 107.772L139.633 107.772L139.633 123.736L140.777 123.736L140.777 128L133.653 128L133.653 126.232C133.22 126.787 132.657 127.281 131.963 127.714C131.287 128.147 130.507 128.364 129.623 128.364ZM132.145 123.736C132.648 123.736 133.021 123.606 133.263 123.346C133.523 123.069 133.653 122.644 133.653 122.072L133.653 119.472C133.653 118.9 133.523 118.484 133.263 118.224C133.021 117.947 132.648 117.808 132.145 117.808C131.643 117.808 131.261 117.947 131.001 118.224C130.759 118.484 130.637 118.9 130.637 119.472L130.637 122.072C130.637 122.644 130.759 123.069 131.001 123.346C131.261 123.606 131.643 123.736 132.145 123.736ZM168.545 123.736L169.585 123.736L169.585 128L159.393 128L159.393 123.736L160.953 123.736L160.537 121.656L157.001 121.656L156.585 123.736L158.145 123.736L158.145 128L149.253 128L149.253 123.736L150.293 123.736L154.687 107.772L164.151 107.772L168.545 123.736ZM157.573 118.9L159.965 118.9L158.899 113.726L158.639 113.726L157.573 118.9ZM187.465 123.736L187.465 128L180.341 128L180.341 125.972C179.093 127.567 177.533 128.364 175.661 128.364C174.222 128.364 173.139 127.913 172.411 127.012C171.7 126.111 171.345 124.871 171.345 123.294L171.345 117.808L170.201 117.808L170.201 113.544L177.325 113.544L177.325 122.072C177.325 122.644 177.446 123.069 177.689 123.346C177.949 123.606 178.33 123.736 178.833 123.736C179.335 123.736 179.708 123.606 179.951 123.346C180.211 123.069 180.341 122.644 180.341 122.072L180.341 117.808L178.937 117.808L178.937 113.544L186.321 113.544L186.321 123.736L187.465 123.736ZM195.799 134.136C194.551 134.136 193.355 134.049 192.211 133.876C191.084 133.703 190.209 133.503 189.585 133.278L189.585 129.014C191.422 129.343 193.069 129.508 194.525 129.508C195.513 129.508 196.224 129.352 196.657 129.04C197.108 128.745 197.333 128.182 197.333 127.35L197.333 126.232C196.9 126.787 196.336 127.281 195.643 127.714C194.967 128.147 194.187 128.364 193.303 128.364C191.535 128.364 190.2 127.705 189.299 126.388C188.415 125.071 187.973 123.199 187.973 120.772C187.973 118.345 188.415 116.473 189.299 115.156C190.2 113.839 191.535 113.18 193.303 113.18C194.187 113.18 194.967 113.397 195.643 113.83C196.336 114.263 196.9 114.757 197.333 115.312L197.333 113.544L204.457 113.544L204.457 117.808L203.313 117.808L203.313 126.96C203.313 129.473 202.689 131.293 201.441 132.42C200.193 133.564 198.312 134.136 195.799 134.136ZM195.825 123.736C196.328 123.736 196.7 123.606 196.943 123.346C197.203 123.069 197.333 122.644 197.333 122.072L197.333 119.472C197.333 118.9 197.203 118.484 196.943 118.224C196.7 117.947 196.328 117.808 195.825 117.808C195.322 117.808 194.941 117.947 194.681 118.224C194.438 118.484 194.317 118.9 194.317 119.472L194.317 122.072C194.317 122.644 194.438 123.069 194.681 123.346C194.941 123.606 195.322 123.736 195.825 123.736ZM222.301 123.736L222.301 128L215.177 128L215.177 125.972C213.929 127.567 212.369 128.364 210.497 128.364C209.058 128.364 207.975 127.913 207.247 127.012C206.536 126.111 206.181 124.871 206.181 123.294L206.181 117.808L205.037 117.808L205.037 113.544L212.161 113.544L212.161 122.072C212.161 122.644 212.282 123.069 212.525 123.346C212.785 123.606 213.166 123.736 213.669 123.736C214.171 123.736 214.544 123.606 214.787 123.346C215.047 123.069 215.177 122.644 215.177 122.072L215.177 117.808L213.773 117.808L213.773 113.544L221.157 113.544L221.157 123.736L222.301 123.736ZM229.335 128.364C227.151 128.364 225.045 128.017 223.017 127.324L223.017 123.476L227.229 123.476L227.229 123.736C227.229 124.568 227.757 124.984 228.815 124.984C229.751 124.984 230.219 124.663 230.219 124.022C230.219 123.675 230.08 123.415 229.803 123.242C229.543 123.069 229.075 122.921 228.399 122.8L227.099 122.566C224.377 122.081 223.017 120.538 223.017 117.938C223.017 116.43 223.589 115.26 224.733 114.428C225.877 113.596 227.419 113.18 229.361 113.18C231.527 113.18 233.356 113.544 234.847 114.272L234.847 117.886L230.895 117.886L230.895 117.626C230.895 117.279 230.773 117.019 230.531 116.846C230.305 116.655 229.967 116.56 229.517 116.56C228.65 116.56 228.217 116.837 228.217 117.392C228.217 117.687 228.338 117.912 228.581 118.068C228.823 118.224 229.265 118.371 229.907 118.51L231.389 118.796C232.931 119.091 234.032 119.637 234.691 120.434C235.349 121.231 235.679 122.254 235.679 123.502C235.679 125.079 235.124 126.284 234.015 127.116C232.923 127.948 231.363 128.364 229.335 128.364ZM242.921 128.364C241.084 128.364 239.697 127.922 238.761 127.038C237.843 126.137 237.383 124.629 237.383 122.514L237.383 117.808L236.239 117.808L236.239 113.544C236.898 113.544 237.392 113.379 237.721 113.05C238.051 112.703 238.215 112.235 238.215 111.646L238.215 110.476L243.727 110.476L243.727 113.544L247.237 113.544L247.237 117.808L243.727 117.808L243.727 122.072C243.727 122.644 243.849 123.069 244.091 123.346C244.351 123.606 244.733 123.736 245.235 123.736C245.894 123.736 246.613 123.658 247.393 123.502L247.393 127.584C246.908 127.775 246.249 127.948 245.417 128.104C244.603 128.277 243.771 128.364 242.921 128.364Z" fill="white"/>
<path d="M62.5123 215.017L62.5048 210.642L51.1298 210.636L51.1199 204.896L63.1654 187.787L71.7054 187.792L71.7356 205.327L74.1506 205.328L74.1597 210.648L71.7447 210.647L71.7523 215.022L62.5123 215.017ZM57.5956 205.32L62.4956 205.322L62.4837 198.427L57.5956 205.32ZM87.6198 215.52C83.6765 215.518 80.6296 214.396 78.4791 212.155C76.3519 209.914 75.2841 206.332 75.2756 201.409C75.2671 196.485 76.3226 192.904 78.4421 190.665C80.5849 188.426 83.6279 187.308 87.5712 187.31C91.5146 187.312 94.5498 188.434 96.677 190.675C98.8275 192.916 99.907 196.498 99.9155 201.421C99.9233 205.971 98.9377 209.459 96.9585 211.885C95.0027 214.31 91.8898 215.522 87.6198 215.52ZM87.6091 209.29C89.1958 209.291 89.9876 208.428 89.9846 206.701L89.9664 196.131C89.9635 194.405 89.1686 193.541 87.582 193.54C85.9953 193.539 85.2035 194.402 85.2064 196.129L85.2246 206.699C85.2276 208.425 86.0224 209.289 87.6091 209.29ZM113.255 215.533C109.311 215.531 106.264 214.409 104.114 212.168C101.987 209.927 100.919 206.345 100.91 201.422C100.902 196.498 101.957 192.917 104.077 190.678C106.22 188.44 109.263 187.321 113.206 187.323C117.149 187.325 120.185 188.447 122.312 190.688C124.462 192.929 125.542 196.511 125.55 201.434C125.558 205.984 124.572 209.472 122.593 211.898C120.637 214.324 117.525 215.535 113.255 215.533ZM113.244 209.303C114.83 209.304 115.622 208.441 115.619 206.714L115.601 196.144C115.598 194.418 114.803 193.554 113.217 193.553C111.63 193.552 110.838 194.415 110.841 196.142L110.859 206.712C110.862 208.439 111.657 209.302 113.244 209.303ZM137.262 209.315L139.012 209.316L138.985 193.601L137.235 193.6L137.225 187.825L151.435 187.833C155.331 187.835 158.425 188.91 160.715 191.058C163.029 193.182 164.19 196.648 164.198 201.454C164.206 206.261 163.057 209.737 160.751 211.882C158.468 214.005 155.378 215.065 151.481 215.063L137.272 215.055L137.262 209.315ZM150.842 209.322C151.635 209.323 152.23 209.113 152.626 208.693C153.021 208.274 153.219 207.62 153.217 206.734L153.199 196.164C153.196 194.437 152.401 193.573 150.814 193.572L148.784 193.571L148.812 209.321L150.842 209.322ZM191.606 209.343L193.356 209.344L193.366 215.084L183.811 215.079L178.543 204.227L176.935 205.556L176.941 209.336L178.621 209.337L178.631 215.077L165.401 215.07L165.391 209.33L167.141 209.331L167.114 193.581L165.364 193.58L165.354 187.84L178.584 187.847L178.594 193.587L176.914 193.586L176.922 198.206L182.339 193.589L180.134 193.587L180.124 187.848L193.144 187.854L193.154 193.594L191.404 193.593L185.568 198.42L191.606 209.343ZM220.83 209.358L222.58 209.359L222.59 215.099L213.035 215.094L207.766 204.242L206.158 205.571L206.165 209.351L207.845 209.352L207.855 215.092L194.625 215.085L194.615 209.345L196.365 209.346L196.338 193.596L194.588 193.595L194.578 187.855L207.808 187.862L207.818 193.602L206.138 193.601L206.146 198.221L211.563 193.604L209.358 193.602L209.348 187.863L222.368 187.869L222.378 193.609L220.628 193.608L214.791 198.435L220.83 209.358Z" fill="#FF22FD"/>
</g>
<defs>
<clipPath id="clip0_181_1253">
<rect width="431.538" height="270.057" fill="white" transform="matrix(0.999997 -0.0025436 0.000765736 1 0 1.09766)"/>
</clipPath>
</defs>
</svg>
