<svg width="432" height="272" viewBox="0 0 432 272" fill="none" xmlns="http://www.w3.org/2000/svg">
<g clip-path="url(#clip0_181_1281)">
<path d="M0.514811 16.7631C1.27918 16.903 4.17565 17.3055 6.86839 14.3039C10.6764 10.0701 10.6708 2.80411 10.6703 2.12636C115.384 1.76544 220.088 1.42031 324.802 1.05939C325.331 9.28555 329.851 15.4998 335 15.2661C339.947 15.0486 344.136 8.92249 344.623 1.00897L421.21 0.814167C421.18 1.74417 421.094 6.99297 423.702 11.2735C426.491 15.8687 430.161 15.7018 430.704 15.6689C430.875 94.807 431.047 173.945 431.228 253.083C430.373 253.148 426.814 253.599 423.861 258.193C421.018 262.613 420.64 267.91 420.561 269.313L343.973 269.508C344.078 261.327 340.08 254.607 335.293 254.115C330.074 253.577 325.232 260.603 325.33 269.555L10.031 270.357C10.1409 269.396 10.6297 264.24 8.45401 259.596C5.68408 253.708 1.08858 253.894 0.706472 253.926L0.524867 16.7631L0.514811 16.7631Z" stroke="#4CFF1F" stroke-opacity="0.8" stroke-width="6" stroke-miterlimit="10"/>
<path d="M335.248 23.6348L335.252 29.6089" stroke="#4CFF1F" stroke-opacity="0.8" stroke-width="6" stroke-miterlimit="10"/>
<path d="M335.255 32.9023L335.261 40.6103" stroke="#4CFF1F" stroke-opacity="0.8" stroke-width="6" stroke-miterlimit="10"/>
<path d="M335.263 43.9673L335.269 51.5649" stroke="#4CFF1F" stroke-opacity="0.8" stroke-width="6" stroke-miterlimit="10"/>
<path d="M335.272 54.9688L335.277 62.6295" stroke="#4CFF1F" stroke-opacity="0.8" stroke-width="6" stroke-miterlimit="10"/>
<path d="M335.28 66.0332L335.285 72.1334" stroke="#4CFF1F" stroke-opacity="0.8" stroke-width="6" stroke-miterlimit="10"/>
<path d="M335.288 76.9873L335.293 83.0244" stroke="#4CFF1F" stroke-opacity="0.8" stroke-width="6" stroke-miterlimit="10"/>
<path d="M335.297 88.0991L335.303 95.7598" stroke="#4CFF1F" stroke-opacity="0.8" stroke-width="6" stroke-miterlimit="10"/>
<path d="M335.305 99.1641L335.31 105.375" stroke="#4CFF1F" stroke-opacity="0.8" stroke-width="6" stroke-miterlimit="10"/>
<path d="M335.314 110.071L335.32 117.889" stroke="#4CFF1F" stroke-opacity="0.8" stroke-width="6" stroke-miterlimit="10"/>
<path d="M335.322 121.12L335.327 127.33" stroke="#4CFF1F" stroke-opacity="0.8" stroke-width="6" stroke-miterlimit="10"/>
<path d="M335.331 132.184L335.335 138.284" stroke="#4CFF1F" stroke-opacity="0.8" stroke-width="6" stroke-miterlimit="10"/>
<path d="M335.339 143.201L335.344 149.396" stroke="#4CFF1F" stroke-opacity="0.8" stroke-width="6" stroke-miterlimit="10"/>
<path d="M335.348 154.266L335.352 160.351" stroke="#4CFF1F" stroke-opacity="0.8" stroke-width="6" stroke-miterlimit="10"/>
<path d="M335.356 165.315L335.361 171.352" stroke="#4CFF1F" stroke-opacity="0.8" stroke-width="6" stroke-miterlimit="10"/>
<path d="M335.363 174.756L335.369 182.417" stroke="#4CFF1F" stroke-opacity="0.8" stroke-width="6" stroke-miterlimit="10"/>
<path d="M335.372 185.71L335.378 193.654" stroke="#4CFF1F" stroke-opacity="0.8" stroke-width="6" stroke-miterlimit="10"/>
<path d="M335.38 196.838L335.385 202.922" stroke="#4CFF1F" stroke-opacity="0.8" stroke-width="6" stroke-miterlimit="10"/>
<path d="M335.39 209.51L335.394 215.5" stroke="#4CFF1F" stroke-opacity="0.8" stroke-width="6" stroke-miterlimit="10"/>
<path d="M335.397 218.904L335.403 226.565" stroke="#4CFF1F" stroke-opacity="0.8" stroke-width="6" stroke-miterlimit="10"/>
<path d="M335.406 229.795L335.412 237.724" stroke="#4CFF1F" stroke-opacity="0.8" stroke-width="6" stroke-miterlimit="10"/>
<path d="M335.414 240.97L335.419 247.007" stroke="#4CFF1F" stroke-opacity="0.8" stroke-width="6" stroke-miterlimit="10"/>
<path d="M389.353 87.9516L389.354 88.9516L398.334 88.9244L398.333 87.9244L401.633 87.9144L401.647 96.0344C401.651 98.261 401.041 100.03 399.817 101.34C398.606 102.664 396.627 103.33 393.88 103.338C391.134 103.346 389.146 102.692 387.917 101.376C386.701 100.073 386.091 98.3082 386.087 96.0815L386.073 87.9615L389.353 87.9516ZM389.367 95.7116C389.367 96.1649 389.488 96.5045 389.728 96.7305C389.969 96.9564 390.342 97.0686 390.849 97.0671L396.889 97.0488C397.876 97.0458 398.368 96.591 398.367 95.6843L398.364 94.5243L389.364 94.5516L389.367 95.7116ZM389.402 115.646L386.122 115.656L386.113 110.376L387.473 110.372C387.046 110.08 386.665 109.667 386.331 109.135C385.996 108.616 385.829 107.977 385.827 107.217C385.825 106.217 386.091 105.429 386.623 104.854C387.155 104.279 387.908 103.99 388.881 103.987C391.401 103.98 392.699 106.116 392.773 110.396C393.226 110.354 393.533 110.18 393.692 109.873C393.865 109.566 393.951 109.045 393.949 108.312C393.948 107.712 393.88 107.065 393.746 106.373C393.624 105.693 393.457 105.067 393.242 104.494L396.922 104.483C397.097 105.189 397.238 105.955 397.346 106.782C397.455 107.608 397.509 108.415 397.511 109.201C397.514 111.188 397.157 112.609 396.438 113.464C395.72 114.32 394.607 114.75 393.101 114.755L389.401 114.766L389.402 115.646ZM390.793 110.362C390.792 109.762 390.711 109.295 390.55 108.962C390.39 108.643 390.123 108.484 389.75 108.485C389.523 108.485 389.336 108.553 389.19 108.686C389.057 108.833 388.99 109.034 388.991 109.287C388.992 109.634 389.139 109.9 389.432 110.086C389.726 110.271 390.14 110.364 390.673 110.362L390.793 110.362ZM397.265 128.307L393.985 128.317L393.984 127.557L387.039 124.958C385.291 124.31 383.983 123.567 383.115 122.73C382.234 121.892 381.792 120.787 381.789 119.414C381.788 118.854 381.847 118.287 381.966 117.713C382.072 117.139 382.224 116.619 382.423 116.152L386.043 116.141L386.048 118.901L385.848 118.901C385.515 118.902 385.349 119.076 385.349 119.423C385.35 119.729 385.497 119.962 385.79 120.121L393.965 116.937L393.963 116.177L397.243 116.167L397.254 122.107L393.974 122.117L393.973 121.437L390.855 122.486L393.976 123.437L393.975 122.757L397.255 122.747L397.265 128.307ZM389.437 134.963L389.439 135.963L398.439 135.936L398.437 134.936L401.717 134.926L401.733 143.706C401.736 145.426 401.365 146.74 400.62 147.649C399.888 148.558 398.696 149.015 397.042 149.02C395.389 149.025 394.188 148.576 393.44 147.671C392.705 146.767 392.336 145.455 392.333 143.735L392.329 141.555L389.449 141.563L389.452 143.483L386.172 143.493L386.157 134.973L389.437 134.963ZM395.17 142.226C395.171 142.999 395.599 143.385 396.452 143.382L397.172 143.38C397.612 143.379 397.932 143.278 398.132 143.077C398.345 142.89 398.451 142.603 398.45 142.216L398.449 141.536L395.169 141.546L395.17 142.226ZM389.484 160.958L386.204 160.968L386.194 155.688L387.554 155.684C387.127 155.392 386.746 154.98 386.412 154.447C386.078 153.928 385.91 153.289 385.909 152.529C385.907 151.529 386.172 150.742 386.704 150.167C387.237 149.592 387.989 149.303 388.963 149.3C391.483 149.292 392.78 151.428 392.854 155.708C393.308 155.667 393.614 155.492 393.773 155.185C393.946 154.878 394.032 154.358 394.031 153.624C394.029 153.024 393.962 152.378 393.827 151.685C393.706 151.005 393.538 150.379 393.324 149.807L397.004 149.795C397.178 150.502 397.32 151.268 397.428 152.094C397.536 152.92 397.591 153.727 397.592 154.514C397.596 156.5 397.238 157.921 396.52 158.777C395.801 159.632 394.689 160.062 393.182 160.067L389.482 160.078L389.484 160.958ZM390.874 155.674C390.873 155.074 390.792 154.608 390.632 154.275C390.471 153.955 390.204 153.796 389.831 153.797C389.604 153.798 389.418 153.865 389.271 153.999C389.138 154.146 389.072 154.346 389.072 154.599C389.073 154.946 389.22 155.212 389.514 155.398C389.807 155.584 390.221 155.676 390.754 155.674L390.874 155.674ZM385.934 166.474C385.931 164.794 386.194 163.173 386.725 161.611L389.685 161.602L389.691 164.842L389.491 164.843C388.851 164.845 388.531 165.252 388.533 166.066C388.534 166.786 388.781 167.145 389.275 167.144C389.541 167.143 389.741 167.035 389.874 166.822C390.007 166.621 390.12 166.261 390.212 165.741L390.39 164.74C390.76 162.646 391.945 161.595 393.945 161.589C395.105 161.586 396.006 162.023 396.647 162.901C397.289 163.779 397.611 164.965 397.614 166.458C397.617 168.125 397.339 169.532 396.781 170.681L394.001 170.689L393.996 167.649L394.196 167.649C394.462 167.648 394.662 167.554 394.795 167.367C394.942 167.193 395.014 166.933 395.014 166.586C395.013 165.919 394.799 165.587 394.372 165.588C394.145 165.589 393.972 165.683 393.853 165.87C393.733 166.057 393.62 166.397 393.514 166.891L393.296 168.031C393.072 169.219 392.653 170.067 392.041 170.575C391.429 171.084 390.642 171.339 389.682 171.342C388.469 171.346 387.542 170.922 386.9 170.071C386.259 169.233 385.936 168.034 385.934 166.474ZM385.952 176.845C385.949 175.165 386.213 173.544 386.743 171.982L389.703 171.973L389.709 175.213L389.509 175.214C388.869 175.216 388.55 175.624 388.551 176.437C388.553 177.157 388.8 177.516 389.293 177.515C389.56 177.514 389.76 177.407 389.893 177.193C390.026 176.992 390.138 176.632 390.231 176.112L390.409 175.111C390.779 173.017 391.963 171.967 393.963 171.96C395.123 171.957 396.024 172.394 396.666 173.272C397.307 174.15 397.63 175.336 397.632 176.829C397.635 178.496 397.358 179.904 396.8 181.052L394.02 181.06L394.014 178.02L394.214 178.02C394.481 178.019 394.681 177.925 394.814 177.738C394.96 177.564 395.033 177.304 395.032 176.957C395.031 176.291 394.817 175.958 394.391 175.959C394.164 175.96 393.991 176.054 393.871 176.241C393.751 176.428 393.639 176.768 393.533 177.262L393.315 178.402C393.09 179.59 392.672 180.438 392.06 180.946C391.447 181.455 390.661 181.711 389.701 181.713C388.488 181.717 387.56 181.293 386.919 180.442C386.277 179.604 385.955 178.405 385.952 176.845Z" fill="#FAFAFA"/>
<path d="M53.854 45.3768L55.354 45.375L55.3605 50.295L47.1705 50.3045L42.6582 41.0097L41.2797 42.1513L41.284 45.3913L42.724 45.3896L42.7305 50.3096L31.3906 50.3227L31.384 45.4027L32.884 45.401L32.8661 31.901L31.3661 31.9027L31.3596 26.9827L42.6996 26.9696L42.7061 31.8896L41.2661 31.8913L41.2713 35.8513L45.9161 31.8859L44.0261 31.8881L44.0196 26.9681L55.1795 26.9552L55.1861 31.8752L53.6861 31.8769L48.6816 36.0227L53.854 45.3768ZM78.4528 45.3484L79.6528 45.347L79.6593 50.267L67.8993 50.2806L67.8928 45.3606L69.6928 45.3585L69.2096 42.959L65.1296 42.9638L64.6528 45.3643L66.4528 45.3622L66.4593 50.2822L56.1993 50.2941L56.1928 45.3741L57.3928 45.3727L62.4384 26.9468L73.3583 26.9342L78.4528 45.3484ZM65.7854 39.783L68.5454 39.7798L67.3075 33.8112L67.0075 33.8116L65.7854 39.783ZM80.6027 45.3459L82.1027 45.3442L82.0848 31.8442L80.5848 31.8459L80.5782 26.9259L94.3482 26.91C96.9282 26.907 98.8989 27.4348 100.26 28.4932C101.622 29.5516 102.304 31.2708 102.307 33.6508C102.309 34.9908 102.04 36.1511 101.502 37.1318C100.963 38.1124 100.194 38.7933 99.1945 39.1744L99.2249 39.4744C101.145 39.7722 102.107 40.9511 102.11 43.0111L102.113 45.3211L103.523 45.3194L103.529 50.2394L94.0192 50.2504L94.0098 43.2004C94.0088 42.4204 93.888 41.8306 93.6475 41.4308C93.427 41.0311 93.0666 40.7615 92.5664 40.6221C92.0862 40.4826 91.3961 40.4134 90.4961 40.4145L90.5027 45.3345L92.4827 45.3322L92.4892 50.2522L80.6092 50.2659L80.6027 45.3459ZM92.1113 36.7526C92.6913 36.7519 93.1211 36.6014 93.4007 36.3011C93.7003 35.9808 93.8496 35.4906 93.8487 34.8306L93.8473 33.7506C93.8464 33.0906 93.6958 32.6108 93.3954 32.3111C93.115 31.9914 92.6848 31.8319 92.1048 31.8326L90.4848 31.8345L90.4913 36.7545L92.1113 36.7526ZM104.597 45.3182L106.097 45.3165L106.079 31.8165L104.579 31.8182L104.572 26.8982L118.342 26.8823C120.922 26.8793 122.893 27.4071 124.254 28.4655C125.616 29.5239 126.298 31.2431 126.301 33.6231C126.303 34.9631 126.035 36.1235 125.496 37.1041C124.957 38.0847 124.188 38.7656 123.189 39.1467L123.219 39.4467C125.139 39.7445 126.101 40.9234 126.104 42.9834L126.107 45.2934L127.517 45.2918L127.523 50.2118L118.013 50.2227L118.004 43.1727C118.003 42.3927 117.882 41.8029 117.642 41.4031C117.421 41.0034 117.061 40.7338 116.561 40.5944C116.08 40.4549 115.39 40.3857 114.49 40.3868L114.497 45.3068L116.477 45.3045L116.483 50.2245L104.603 50.2382L104.597 45.3182ZM116.105 36.7249C116.685 36.7242 117.115 36.5737 117.395 36.2734C117.694 35.9531 117.844 35.4629 117.843 34.8029L117.841 33.7229C117.841 33.0629 117.69 32.5831 117.389 32.2834C117.109 31.9637 116.679 31.8042 116.099 31.8049L114.479 31.8068L114.485 36.7268L116.105 36.7249ZM138.793 50.6187C135.653 50.6224 133.222 49.9352 131.5 48.5572C129.798 47.1791 128.945 44.9401 128.941 41.8401L128.928 31.7901L127.428 31.7918L127.421 26.8718L138.521 26.859L138.528 31.779L137.328 31.7804L137.343 43.3604C137.344 44.0204 137.484 44.5103 137.765 44.8299C138.065 45.1296 138.505 45.2791 139.085 45.2784C139.665 45.2777 140.095 45.1272 140.375 44.8269C140.674 44.5066 140.824 44.0164 140.823 43.3564L140.808 31.7764L139.608 31.7778L139.601 26.8578L149.891 26.8459L149.898 31.7659L148.398 31.7676L148.411 41.8176C148.415 44.9176 147.588 47.1586 145.93 48.5405C144.272 49.9224 141.893 50.6152 138.793 50.6187ZM160.31 50.5939C158.39 50.5961 156.57 50.4382 154.849 50.1202C153.149 49.7822 151.838 49.4037 150.918 48.9848L150.91 43.0448L157.51 43.0371C157.511 43.6571 157.651 44.107 157.932 44.3867C158.212 44.6663 158.722 44.8057 159.462 44.8049C160.082 44.8042 160.522 44.7137 160.782 44.5334C161.062 44.333 161.201 44.0429 161.201 43.6629C161.2 43.3429 161.07 43.073 160.81 42.8533C160.549 42.6136 160.099 42.3741 159.459 42.1349L156.878 41.2379C154.657 40.4004 153.055 39.4123 152.074 38.2734C151.112 37.1345 150.63 35.5951 150.628 33.6551C150.624 31.2951 151.392 29.5042 152.93 28.2824C154.489 27.0406 157.078 26.4176 160.698 26.4134C162.438 26.4114 164.068 26.5895 165.589 26.9478C167.129 27.286 168.37 27.7446 169.31 28.3235L169.318 33.6935L163.318 33.7004C163.316 32.7004 162.696 32.2011 161.456 32.2026C160.856 32.2033 160.426 32.2838 160.166 32.4441C159.926 32.5843 159.806 32.8445 159.807 33.2245C159.807 33.5645 159.948 33.8343 160.228 34.034C160.528 34.2336 161.009 34.4431 161.669 34.6623L164.28 35.5593C166.401 36.2769 167.942 37.2151 168.904 38.374C169.885 39.5128 170.377 41.0123 170.38 42.8723C170.383 45.4123 169.526 47.3333 167.807 48.6353C166.109 49.9372 163.61 50.5901 160.31 50.5939ZM171.224 50.1613L171.218 45.2413L172.718 45.2396L172.7 31.7396L171.2 31.7413L171.193 26.8213L191.443 26.798L191.455 35.858L184.735 35.8657L184.73 31.7257L181.1 31.7299L181.106 36.4699L183.746 36.4668L183.751 39.8868L181.111 39.8899L181.118 45.2299L184.748 45.2257L184.741 40.4857L191.461 40.4779L191.474 50.1379L171.224 50.1613ZM192.611 50.1366L192.604 45.2166L194.104 45.2149L194.087 31.7149L192.587 31.7166L192.58 26.7966L205.24 26.782L205.247 31.702L202.487 31.7052L202.504 45.2052L205.204 45.2021L205.201 42.4421L211.171 42.4352L211.181 50.1152L192.611 50.1366ZM220.961 47.5239C220.959 45.8039 221.207 44.2836 221.705 42.963C222.223 41.6424 223.062 40.4015 224.22 39.2401C225.379 38.0588 226.977 36.837 229.015 35.5746C229.615 35.1939 230.034 34.8734 230.274 34.6131C230.534 34.3328 230.663 34.0027 230.663 33.6227C230.662 32.8027 230.071 32.3934 228.891 32.3947C228.011 32.3958 227.001 32.6269 225.862 33.0882C224.723 33.5496 223.693 34.1307 222.774 34.8318L220.996 28.4438C222.275 27.8024 223.744 27.2607 225.404 26.8188C227.063 26.3568 228.733 26.1249 230.413 26.123C233.173 26.1198 235.314 26.7273 236.835 27.9456C238.357 29.1638 239.119 30.8929 239.122 33.1329C239.124 34.3329 238.855 35.3932 238.316 36.3139C237.798 37.2145 237.159 37.9752 236.399 38.5961C235.66 39.2169 234.691 39.9281 233.492 40.7294C232.153 41.611 231.164 42.3721 230.525 43.0129C229.906 43.6336 229.597 44.3539 229.598 45.1739L233.228 45.1698L233.226 43.4598L239.376 43.4527L239.385 50.0827L220.965 50.1039L220.961 47.5239ZM251.068 50.4892C247.688 50.4931 245.076 49.5361 243.234 47.6182C241.411 45.7003 240.497 42.6314 240.492 38.4114C240.486 34.1914 241.392 31.1203 243.209 29.1982C245.047 27.2761 247.656 26.3131 251.036 26.3092C254.416 26.3053 257.017 27.2623 258.839 29.1802C260.682 31.098 261.606 34.167 261.612 38.387C261.617 42.287 260.771 45.278 259.073 47.3599C257.396 49.4419 254.728 50.4849 251.068 50.4892ZM251.061 45.1492C252.421 45.1476 253.1 44.4068 253.098 42.9268L253.086 33.8668C253.084 32.3868 252.403 31.6476 251.043 31.6492C249.683 31.6507 249.004 32.3915 249.006 33.8715L249.018 42.9315C249.02 44.4115 249.701 45.1507 251.061 45.1492ZM262.416 47.4761C262.414 45.7561 262.662 44.2358 263.16 42.9152C263.678 41.5946 264.517 40.3536 265.675 39.1923C266.834 38.011 268.432 36.7891 270.47 35.5268C271.07 35.1461 271.489 34.8256 271.729 34.5653C271.989 34.285 272.118 33.9549 272.118 33.5749C272.117 32.7549 271.526 32.3455 270.346 32.3469C269.466 32.3479 268.457 32.5791 267.317 33.0404C266.178 33.5017 265.148 34.0829 264.229 34.784L262.451 28.396C263.73 27.7545 265.199 27.2128 266.859 26.7709C268.518 26.309 270.188 26.0771 271.868 26.0751C274.628 26.0719 276.769 26.6795 278.29 27.8977C279.812 29.116 280.574 30.8451 280.577 33.0851C280.579 34.2851 280.31 35.3454 279.771 36.266C279.253 37.1666 278.614 37.9274 277.854 38.5482C277.115 39.1691 276.146 39.8802 274.947 40.6816C273.608 41.5631 272.619 42.3243 271.98 42.965C271.361 43.5857 271.052 44.3061 271.053 45.1261L274.683 45.1219L274.681 43.4119L280.831 43.4048L280.84 50.0348L262.42 50.0561L262.416 47.4761ZM291.832 50.0221L291.827 46.2721L282.077 46.2834L282.071 41.3634L292.401 26.6814L299.721 26.673L299.741 41.703L301.811 41.7006L301.817 46.2606L299.747 46.263L299.752 50.013L291.832 50.0221ZM287.621 41.717L291.821 41.7121L291.813 35.8021L287.621 41.717Z" fill="#FAFAFA"/>
<path d="M112.421 90.364C110.757 90.364 109.179 90.2253 107.689 89.948C106.215 89.6533 105.08 89.324 104.283 88.96L104.283 83.812L110.003 83.812C110.003 84.3493 110.124 84.7393 110.367 84.982C110.609 85.2247 111.051 85.346 111.693 85.346C112.23 85.346 112.611 85.268 112.837 85.112C113.079 84.9387 113.201 84.6873 113.201 84.358C113.201 84.0807 113.088 83.8467 112.863 83.656C112.637 83.448 112.247 83.24 111.693 83.032L109.457 82.252C107.533 81.524 106.146 80.666 105.297 79.678C104.465 78.69 104.049 77.3553 104.049 75.674C104.049 73.6287 104.716 72.0773 106.051 71.02C107.403 69.9453 109.647 69.408 112.785 69.408C114.293 69.408 115.705 69.564 117.023 69.876C118.357 70.1707 119.432 70.5693 120.247 71.072L120.247 75.726L115.047 75.726C115.047 74.8593 114.509 74.426 113.435 74.426C112.915 74.426 112.542 74.4953 112.317 74.634C112.109 74.7553 112.005 74.9807 112.005 75.31C112.005 75.6047 112.126 75.8387 112.369 76.012C112.629 76.1853 113.045 76.3673 113.617 76.558L115.879 77.338C117.716 77.962 119.051 78.7767 119.883 79.782C120.732 80.77 121.157 82.07 121.157 83.682C121.157 85.8833 120.411 87.5473 118.921 88.674C117.447 89.8007 115.281 90.364 112.421 90.364ZM136.986 85.736L136.986 90L130.122 90L130.122 88.232C129.741 88.7867 129.204 89.2807 128.51 89.714C127.834 90.1473 127.002 90.364 126.014 90.364C124.714 90.364 123.692 90.0173 122.946 89.324C122.201 88.6307 121.828 87.6513 121.828 86.386C121.828 83.11 124.61 81.4287 130.174 81.342C130.122 80.7527 129.897 80.354 129.498 80.146C129.1 79.9207 128.424 79.808 127.47 79.808C126.69 79.808 125.85 79.8947 124.948 80.068C124.064 80.224 123.25 80.4407 122.504 80.718L122.504 75.934C123.423 75.7087 124.42 75.5267 125.494 75.388C126.569 75.2493 127.618 75.18 128.64 75.18C131.223 75.18 133.069 75.648 134.178 76.584C135.288 77.52 135.842 78.9673 135.842 80.926L135.842 85.736L136.986 85.736ZM130.122 83.916C129.342 83.916 128.736 84.02 128.302 84.228C127.886 84.436 127.678 84.7827 127.678 85.268C127.678 85.5627 127.765 85.8053 127.938 85.996C128.129 86.1693 128.389 86.256 128.718 86.256C129.169 86.256 129.516 86.0653 129.758 85.684C130.001 85.3027 130.122 84.7653 130.122 84.072L130.122 83.916ZM144.246 90.364C142.409 90.364 141.022 89.922 140.086 89.038C139.168 88.1367 138.708 86.6287 138.708 84.514L138.708 79.808L137.564 79.808L137.564 75.544C138.223 75.544 138.717 75.3793 139.046 75.05C139.376 74.7033 139.54 74.2353 139.54 73.646L139.54 72.476L145.052 72.476L145.052 75.544L148.562 75.544L148.562 79.808L145.052 79.808L145.052 84.072C145.052 84.644 145.174 85.0687 145.416 85.346C145.676 85.606 146.058 85.736 146.56 85.736C147.219 85.736 147.938 85.658 148.718 85.502L148.718 89.584C148.233 89.7747 147.574 89.948 146.742 90.104C145.928 90.2773 145.096 90.364 144.246 90.364ZM166.663 85.736L166.663 90L159.539 90L159.539 87.972C158.291 89.5667 156.731 90.364 154.859 90.364C153.42 90.364 152.337 89.9133 151.609 89.012C150.898 88.1107 150.543 86.8713 150.543 85.294L150.543 79.808L149.399 79.808L149.399 75.544L156.523 75.544L156.523 84.072C156.523 84.644 156.644 85.0687 156.887 85.346C157.147 85.606 157.528 85.736 158.031 85.736C158.534 85.736 158.906 85.606 159.149 85.346C159.409 85.0687 159.539 84.644 159.539 84.072L159.539 79.808L158.135 79.808L158.135 75.544L165.519 75.544L165.519 85.736L166.663 85.736ZM178.481 75.18C178.828 75.18 179.157 75.2147 179.469 75.284C179.781 75.3533 180.041 75.44 180.249 75.544L180.249 80.51C179.538 80.2153 178.776 80.068 177.961 80.068C176.869 80.068 176.028 80.354 175.439 80.926C174.85 81.498 174.555 82.3473 174.555 83.474L174.555 85.736L176.895 85.736L176.895 90L167.431 90L167.431 85.736L168.575 85.736L168.575 79.808L167.431 79.808L167.431 75.544L174.555 75.544L174.555 77.442C175.04 76.714 175.595 76.1593 176.219 75.778C176.843 75.3793 177.597 75.18 178.481 75.18ZM186.212 90.364C184.444 90.364 183.109 89.7053 182.208 88.388C181.324 87.0707 180.882 85.1987 180.882 82.772C180.882 80.3453 181.324 78.4733 182.208 77.156C183.109 75.8387 184.444 75.18 186.212 75.18C187.096 75.18 187.876 75.3967 188.552 75.83C189.245 76.2633 189.809 76.7573 190.242 77.312L190.242 74.036L188.708 74.036L188.708 69.772L196.222 69.772L196.222 85.736L197.366 85.736L197.366 90L190.242 90L190.242 88.232C189.809 88.7867 189.245 89.2807 188.552 89.714C187.876 90.1473 187.096 90.364 186.212 90.364ZM188.734 85.736C189.237 85.736 189.609 85.606 189.852 85.346C190.112 85.0687 190.242 84.644 190.242 84.072L190.242 81.472C190.242 80.9 190.112 80.484 189.852 80.224C189.609 79.9467 189.237 79.808 188.734 79.808C188.231 79.808 187.85 79.9467 187.59 80.224C187.347 80.484 187.226 80.9 187.226 81.472L187.226 84.072C187.226 84.644 187.347 85.0687 187.59 85.346C187.85 85.606 188.231 85.736 188.734 85.736ZM213.361 85.736L213.361 90L206.497 90L206.497 88.232C206.116 88.7867 205.579 89.2807 204.885 89.714C204.209 90.1473 203.377 90.364 202.389 90.364C201.089 90.364 200.067 90.0173 199.321 89.324C198.576 88.6307 198.203 87.6513 198.203 86.386C198.203 83.11 200.985 81.4287 206.549 81.342C206.497 80.7527 206.272 80.354 205.873 80.146C205.475 79.9207 204.799 79.808 203.845 79.808C203.065 79.808 202.225 79.8947 201.323 80.068C200.439 80.224 199.625 80.4407 198.879 80.718L198.879 75.934C199.798 75.7087 200.795 75.5267 201.869 75.388C202.944 75.2493 203.993 75.18 205.015 75.18C207.598 75.18 209.444 75.648 210.553 76.584C211.663 77.52 212.217 78.9673 212.217 80.926L212.217 85.736L213.361 85.736ZM206.497 83.916C205.717 83.916 205.111 84.02 204.677 84.228C204.261 84.436 204.053 84.7827 204.053 85.268C204.053 85.5627 204.14 85.8053 204.313 85.996C204.504 86.1693 204.764 86.256 205.093 86.256C205.544 86.256 205.891 86.0653 206.133 85.684C206.376 85.3027 206.497 84.7653 206.497 84.072L206.497 83.916ZM229.851 75.544L229.851 79.808L228.863 79.808L225.457 88.83C224.608 91.1007 223.637 92.7993 222.545 93.926C221.453 95.07 220.015 95.642 218.229 95.642C217.501 95.642 216.765 95.564 216.019 95.408C215.274 95.2693 214.598 95.07 213.991 94.81L213.991 90.104L217.579 90.104L217.579 90.364C217.579 90.7973 217.805 91.014 218.255 91.014C218.654 91.014 218.957 90.8233 219.165 90.442L215.057 79.808L214.069 79.808L214.069 75.544L221.791 75.544L221.791 79.808L220.907 79.808L222.259 83.864L223.507 79.808L222.623 79.808L222.623 75.544L229.851 75.544ZM81.6186 123.764C81.6186 122.273 81.8353 120.956 82.2686 119.812C82.7193 118.668 83.4473 117.593 84.4526 116.588C85.458 115.565 86.8446 114.508 88.6126 113.416C89.1326 113.087 89.4966 112.809 89.7046 112.584C89.93 112.341 90.0426 112.055 90.0426 111.726C90.0426 111.015 89.5313 110.66 88.5086 110.66C87.746 110.66 86.8706 110.859 85.8826 111.258C84.8946 111.657 84.002 112.159 83.2046 112.766L81.6706 107.228C82.78 106.673 84.054 106.205 85.4926 105.824C86.9313 105.425 88.3786 105.226 89.8346 105.226C92.2266 105.226 94.0813 105.755 95.3986 106.812C96.716 107.869 97.3746 109.369 97.3746 111.31C97.3746 112.35 97.1406 113.269 96.6726 114.066C96.222 114.846 95.6673 115.505 95.0086 116.042C94.3673 116.579 93.5266 117.195 92.4866 117.888C91.3253 118.651 90.4673 119.309 89.9126 119.864C89.3753 120.401 89.1066 121.025 89.1066 121.736L92.2526 121.736L92.2526 120.254L97.5826 120.254L97.5826 126L81.6186 126L81.6186 123.764ZM107.109 126L107.109 122.75L98.6594 122.75L98.6594 118.486L107.629 105.772L113.973 105.772L113.973 118.798L115.767 118.798L115.767 122.75L113.973 122.75L113.973 126L107.109 126ZM103.469 118.798L107.109 118.798L107.109 113.676L103.469 118.798ZM123.134 126.364C121.297 126.364 119.91 125.922 118.974 125.038C118.055 124.137 117.596 122.629 117.596 120.514L117.596 115.808L116.452 115.808L116.452 111.544C117.111 111.544 117.605 111.379 117.934 111.05C118.263 110.703 118.428 110.235 118.428 109.646L118.428 108.476L123.94 108.476L123.94 111.544L127.45 111.544L127.45 115.808L123.94 115.808L123.94 120.072C123.94 120.644 124.061 121.069 124.304 121.346C124.564 121.606 124.945 121.736 125.448 121.736C126.107 121.736 126.826 121.658 127.606 121.502L127.606 125.584C127.121 125.775 126.462 125.948 125.63 126.104C124.815 126.277 123.983 126.364 123.134 126.364ZM145.707 121.736L145.707 126L137.491 126L137.491 121.736L138.583 121.736L138.583 117.472C138.583 116.9 138.461 116.484 138.219 116.224C137.976 115.947 137.612 115.808 137.127 115.808C136.087 115.808 135.567 116.363 135.567 117.472L135.567 121.736L136.659 121.736L136.659 126L128.443 126L128.443 121.736L129.587 121.736L129.587 110.036L128.443 110.036L128.443 105.772L135.567 105.772L135.567 113.572C136.208 112.775 136.901 112.177 137.647 111.778C138.392 111.379 139.259 111.18 140.247 111.18C141.685 111.18 142.76 111.631 143.471 112.532C144.199 113.433 144.563 114.673 144.563 116.25L144.563 121.736L145.707 121.736ZM173.477 121.736L174.517 121.736L174.517 126L164.325 126L164.325 121.736L165.885 121.736L165.469 119.656L161.933 119.656L161.517 121.736L163.077 121.736L163.077 126L154.185 126L154.185 121.736L155.225 121.736L159.619 105.772L169.083 105.772L173.477 121.736ZM162.505 116.9L164.897 116.9L163.831 111.726L163.571 111.726L162.505 116.9ZM192.396 121.736L192.396 126L185.272 126L185.272 123.972C184.024 125.567 182.464 126.364 180.592 126.364C179.154 126.364 178.07 125.913 177.342 125.012C176.632 124.111 176.276 122.871 176.276 121.294L176.276 115.808L175.132 115.808L175.132 111.544L182.256 111.544L182.256 120.072C182.256 120.644 182.378 121.069 182.62 121.346C182.88 121.606 183.262 121.736 183.764 121.736C184.267 121.736 184.64 121.606 184.882 121.346C185.142 121.069 185.272 120.644 185.272 120.072L185.272 115.808L183.868 115.808L183.868 111.544L191.252 111.544L191.252 121.736L192.396 121.736ZM200.731 132.136C199.483 132.136 198.287 132.049 197.143 131.876C196.016 131.703 195.141 131.503 194.517 131.278L194.517 127.014C196.354 127.343 198.001 127.508 199.457 127.508C200.445 127.508 201.155 127.352 201.589 127.04C202.039 126.745 202.265 126.182 202.265 125.35L202.265 124.232C201.831 124.787 201.268 125.281 200.575 125.714C199.899 126.147 199.119 126.364 198.235 126.364C196.467 126.364 195.132 125.705 194.231 124.388C193.347 123.071 192.905 121.199 192.905 118.772C192.905 116.345 193.347 114.473 194.231 113.156C195.132 111.839 196.467 111.18 198.235 111.18C199.119 111.18 199.899 111.397 200.575 111.83C201.268 112.263 201.831 112.757 202.265 113.312L202.265 111.544L209.389 111.544L209.389 115.808L208.245 115.808L208.245 124.96C208.245 127.473 207.621 129.293 206.373 130.42C205.125 131.564 203.244 132.136 200.731 132.136ZM200.757 121.736C201.259 121.736 201.632 121.606 201.875 121.346C202.135 121.069 202.265 120.644 202.265 120.072L202.265 117.472C202.265 116.9 202.135 116.484 201.875 116.224C201.632 115.947 201.259 115.808 200.757 115.808C200.254 115.808 199.873 115.947 199.613 116.224C199.37 116.484 199.249 116.9 199.249 117.472L199.249 120.072C199.249 120.644 199.37 121.069 199.613 121.346C199.873 121.606 200.254 121.736 200.757 121.736ZM227.232 121.736L227.232 126L220.108 126L220.108 123.972C218.86 125.567 217.3 126.364 215.428 126.364C213.99 126.364 212.906 125.913 212.178 125.012C211.468 124.111 211.112 122.871 211.112 121.294L211.112 115.808L209.968 115.808L209.968 111.544L217.092 111.544L217.092 120.072C217.092 120.644 217.214 121.069 217.456 121.346C217.716 121.606 218.098 121.736 218.6 121.736C219.103 121.736 219.476 121.606 219.718 121.346C219.978 121.069 220.108 120.644 220.108 120.072L220.108 115.808L218.704 115.808L218.704 111.544L226.088 111.544L226.088 121.736L227.232 121.736ZM234.266 126.364C232.082 126.364 229.976 126.017 227.948 125.324L227.948 121.476L232.16 121.476L232.16 121.736C232.16 122.568 232.689 122.984 233.746 122.984C234.682 122.984 235.15 122.663 235.15 122.022C235.15 121.675 235.012 121.415 234.734 121.242C234.474 121.069 234.006 120.921 233.33 120.8L232.03 120.566C229.309 120.081 227.948 118.538 227.948 115.938C227.948 114.43 228.52 113.26 229.664 112.428C230.808 111.596 232.351 111.18 234.292 111.18C236.459 111.18 238.288 111.544 239.778 112.272L239.778 115.886L235.826 115.886L235.826 115.626C235.826 115.279 235.705 115.019 235.462 114.846C235.237 114.655 234.899 114.56 234.448 114.56C233.582 114.56 233.148 114.837 233.148 115.392C233.148 115.687 233.27 115.912 233.512 116.068C233.755 116.224 234.197 116.371 234.838 116.51L236.32 116.796C237.863 117.091 238.964 117.637 239.622 118.434C240.281 119.231 240.61 120.254 240.61 121.502C240.61 123.079 240.056 124.284 238.946 125.116C237.854 125.948 236.294 126.364 234.266 126.364ZM247.853 126.364C246.016 126.364 244.629 125.922 243.693 125.038C242.774 124.137 242.315 122.629 242.315 120.514L242.315 115.808L241.171 115.808L241.171 111.544C241.83 111.544 242.324 111.379 242.653 111.05C242.982 110.703 243.147 110.235 243.147 109.646L243.147 108.476L248.659 108.476L248.659 111.544L252.169 111.544L252.169 115.808L248.659 115.808L248.659 120.072C248.659 120.644 248.78 121.069 249.023 121.346C249.283 121.606 249.664 121.736 250.167 121.736C250.826 121.736 251.545 121.658 252.325 121.502L252.325 125.584C251.84 125.775 251.181 125.948 250.349 126.104C249.534 126.277 248.702 126.364 247.853 126.364Z" fill="white"/>
<path d="M62.5123 215.017L62.5048 210.642L51.1298 210.636L51.1199 204.896L63.1654 187.787L71.7054 187.792L71.7356 205.327L74.1506 205.328L74.1597 210.648L71.7447 210.647L71.7523 215.022L62.5123 215.017ZM57.5956 205.32L62.4956 205.322L62.4837 198.427L57.5956 205.32ZM87.6198 215.52C83.6765 215.518 80.6296 214.396 78.4791 212.155C76.3519 209.914 75.2841 206.332 75.2756 201.409C75.2671 196.485 76.3226 192.904 78.4421 190.665C80.5849 188.426 83.6279 187.308 87.5712 187.31C91.5146 187.312 94.5498 188.434 96.677 190.675C98.8275 192.916 99.907 196.498 99.9155 201.421C99.9233 205.971 98.9377 209.459 96.9585 211.885C95.0027 214.31 91.8898 215.522 87.6198 215.52ZM87.6091 209.29C89.1958 209.291 89.9876 208.428 89.9846 206.701L89.9664 196.131C89.9635 194.405 89.1686 193.541 87.582 193.54C85.9953 193.539 85.2035 194.402 85.2064 196.129L85.2246 206.699C85.2276 208.425 86.0224 209.289 87.6091 209.29ZM113.255 215.533C109.311 215.531 106.264 214.409 104.114 212.168C101.987 209.927 100.919 206.345 100.91 201.422C100.902 196.498 101.957 192.917 104.077 190.678C106.22 188.44 109.263 187.321 113.206 187.323C117.149 187.325 120.185 188.447 122.312 190.688C124.462 192.929 125.542 196.511 125.55 201.434C125.558 205.984 124.572 209.472 122.593 211.898C120.637 214.324 117.525 215.535 113.255 215.533ZM113.244 209.303C114.83 209.304 115.622 208.441 115.619 206.714L115.601 196.144C115.598 194.418 114.803 193.554 113.217 193.553C111.63 193.552 110.838 194.415 110.841 196.142L110.859 206.712C110.862 208.439 111.657 209.302 113.244 209.303ZM137.262 209.315L139.012 209.316L138.985 193.601L137.235 193.6L137.225 187.825L151.435 187.833C155.331 187.835 158.425 188.91 160.715 191.058C163.029 193.182 164.19 196.648 164.198 201.454C164.206 206.261 163.057 209.737 160.751 211.882C158.468 214.005 155.378 215.065 151.481 215.063L137.272 215.055L137.262 209.315ZM150.842 209.322C151.635 209.323 152.23 209.113 152.626 208.693C153.021 208.274 153.219 207.62 153.217 206.734L153.199 196.164C153.196 194.437 152.401 193.573 150.814 193.572L148.784 193.571L148.812 209.321L150.842 209.322ZM191.606 209.343L193.356 209.344L193.366 215.084L183.811 215.079L178.543 204.227L176.935 205.556L176.941 209.336L178.621 209.337L178.631 215.077L165.401 215.07L165.391 209.33L167.141 209.331L167.114 193.581L165.364 193.58L165.354 187.84L178.584 187.847L178.594 193.587L176.914 193.586L176.922 198.206L182.339 193.589L180.134 193.587L180.124 187.848L193.144 187.854L193.154 193.594L191.404 193.593L185.568 198.42L191.606 209.343ZM220.83 209.358L222.58 209.359L222.59 215.099L213.035 215.094L207.766 204.242L206.158 205.571L206.165 209.351L207.845 209.352L207.855 215.092L194.625 215.085L194.615 209.345L196.365 209.346L196.338 193.596L194.588 193.595L194.578 187.855L207.808 187.862L207.818 193.602L206.138 193.601L206.146 198.221L211.563 193.604L209.358 193.602L209.348 187.863L222.368 187.869L222.378 193.609L220.628 193.608L214.791 198.435L220.83 209.358Z" fill="#FF22FD"/>
</g>
<defs>
<clipPath id="clip0_181_1281">
<rect width="431.538" height="270.057" fill="white" transform="matrix(0.999997 -0.0025436 0.000765736 1 0 1.09766)"/>
</clipPath>
</defs>
</svg>
