<svg width="67" height="67" viewBox="0 0 67 67" fill="none" xmlns="http://www.w3.org/2000/svg">
<path d="M39.3656 20.5986H27.4764C23.9326 20.5986 21.0295 23.5017 21.0295 27.0455V38.9347C21.0295 42.4785 23.9326 45.3816 27.4764 45.3816H39.3656C42.9094 45.3816 45.8125 42.4785 45.8125 38.9347V27.0455C45.8125 23.5017 42.9094 20.5986 39.3656 20.5986ZM33.2826 40.9676C28.8765 40.9676 25.309 37.4001 25.309 32.9941C25.309 28.588 28.8845 25.0205 33.2826 25.0205C37.6807 25.0205 41.2561 28.588 41.2561 32.9941C41.2561 37.4001 37.6807 40.9676 33.2826 40.9676ZM41.5488 26.6105C40.6629 26.6105 39.9509 25.8906 39.9509 25.0126C39.9509 24.1345 40.6708 23.4147 41.5488 23.4147C42.4269 23.4147 43.1467 24.1345 43.1467 25.0126C43.1467 25.8906 42.4269 26.6105 41.5488 26.6105Z" fill="white"/>
<path d="M33.2825 37.5899C35.8251 37.5899 37.8863 35.5287 37.8863 32.9861C37.8863 30.4435 35.8251 28.3823 33.2825 28.3823C30.7399 28.3823 28.6787 30.4435 28.6787 32.9861C28.6787 35.5287 30.7399 37.5899 33.2825 37.5899Z" fill="white"/>
<path d="M33.2826 0C14.9386 0 0.0751953 14.8713 0.0751953 33.2074C0.0751953 51.5434 14.9465 66.4148 33.2826 66.4148C51.6186 66.4148 66.49 51.5434 66.49 33.2074C66.49 14.8713 51.6186 0 33.2826 0ZM49.0003 41.5448C49.0003 45.6028 45.678 48.9172 41.6279 48.9172H24.9451C20.8872 48.9172 17.5728 45.5949 17.5728 41.5448V24.862C17.5728 20.8041 20.8951 17.4896 24.9451 17.4896H41.6279C45.6859 17.4896 49.0003 20.812 49.0003 24.862V41.5448Z" fill="white"/>
</svg>
