<svg width="478" height="232" viewBox="0 0 478 232" fill="none" xmlns="http://www.w3.org/2000/svg">
<path d="M2.52632 95.8055C3.33592 95.7268 6.39076 95.3607 8.88704 93.2216C12.4183 90.2025 11.6727 86.332 11.6032 85.971C120.525 64.7896 229.438 43.6185 338.36 22.4371C339.748 26.7142 345.084 29.1193 350.417 27.9628C355.543 26.8552 359.278 22.7515 358.978 18.4374L438.65 2.98224C438.714 3.48368 439.159 6.29774 442.308 8.0558C445.678 9.94525 449.48 9.12059 450.042 8.99422C458.278 51.127 466.514 93.2599 474.76 135.391C473.877 135.597 470.219 136.55 467.614 139.59C465.107 142.515 465.253 145.413 465.313 146.177L385.641 161.632C384.917 157.252 380.073 154.473 375.042 155.17C369.556 155.929 365.233 160.644 366.246 165.394L38.249 229.021C38.2654 228.486 38.2491 225.641 35.5124 223.603C32.0307 221.021 27.2677 222.041 26.8734 222.135L2.53678 95.8035L2.52632 95.8055Z" fill="#FAFAFA" stroke="#FAFAFA" stroke-width="5" stroke-miterlimit="10"/>
<path d="M351.527 32.3721L352.14 35.5541" stroke="#FAFAFA" stroke-miterlimit="10"/>
<path d="M352.478 37.3091L353.269 41.4146" stroke="#FAFAFA" stroke-miterlimit="10"/>
<path d="M353.614 43.2026L354.393 47.2494" stroke="#FAFAFA" stroke-miterlimit="10"/>
<path d="M354.743 49.063L355.529 53.1433" stroke="#FAFAFA" stroke-miterlimit="10"/>
<path d="M355.878 54.957L356.504 58.2062" stroke="#FAFAFA" stroke-miterlimit="10"/>
<path d="M357.002 60.792L357.621 64.0076" stroke="#FAFAFA" stroke-miterlimit="10"/>
<path d="M358.142 66.7109L358.928 70.7913" stroke="#FAFAFA" stroke-miterlimit="10"/>
<path d="M359.278 72.6045L359.915 75.9124" stroke="#FAFAFA" stroke-miterlimit="10"/>
<path d="M360.397 78.4146L361.199 82.5789" stroke="#FAFAFA" stroke-miterlimit="10"/>
<path d="M361.531 84.2998L362.168 87.6077" stroke="#FAFAFA" stroke-miterlimit="10"/>
<path d="M362.666 90.1938L363.292 93.443" stroke="#FAFAFA" stroke-miterlimit="10"/>
<path d="M363.796 96.0625L364.432 99.362" stroke="#FAFAFA" stroke-miterlimit="10"/>
<path d="M364.932 101.957L365.556 105.197" stroke="#FAFAFA" stroke-miterlimit="10"/>
<path d="M366.066 107.842L366.685 111.057" stroke="#FAFAFA" stroke-miterlimit="10"/>
<path d="M367.035 112.871L367.821 116.951" stroke="#FAFAFA" stroke-miterlimit="10"/>
<path d="M368.159 118.706L368.974 122.938" stroke="#FAFAFA" stroke-miterlimit="10"/>
<path d="M369.3 124.633L369.925 127.874" stroke="#FAFAFA" stroke-miterlimit="10"/>
<path d="M370.601 131.383L371.216 134.574" stroke="#FAFAFA" stroke-miterlimit="10"/>
<path d="M371.565 136.387L372.351 140.468" stroke="#FAFAFA" stroke-miterlimit="10"/>
<path d="M372.683 142.189L373.496 146.412" stroke="#FAFAFA" stroke-miterlimit="10"/>
<path d="M373.829 148.142L374.449 151.357" stroke="#FAFAFA" stroke-miterlimit="10"/>
</svg>
