<svg width="913" height="1088" viewBox="0 0 913 1088" fill="none" xmlns="http://www.w3.org/2000/svg">
<g opacity="0.5">
<path d="M694.561 691.987C693.261 699.18 690.951 709.72 689.651 716.789C734.058 703.458 768.789 699.304 788.284 709.658C724.526 736.382 690.806 757.277 687.629 803.346C685.68 831.991 705.32 898.273 701.637 912.968C694.705 940.373 671.455 950.108 642.861 961.765C580.259 929.461 525.31 939.381 478.881 996.239C470.722 993.511 449.782 994.937 424.005 1002.25C392.451 1011.24 355.192 1025.32 344.65 1005.04C328.548 974.103 342.051 975.716 313.096 940.25C286.597 907.76 219.445 894.863 213.235 900.629C223.994 785.116 138.719 751.139 69.6897 764.097C38.3523 769.988 15.1019 796.773 1.67161 807.314C-5.18796 747.604 39.7242 709.224 113.519 703.83C135.253 702.28 163.197 710.588 191.501 713.44C184.064 690.189 171.284 660.179 165.94 637.424C165.796 658.195 116.84 643.19 101.966 591.603C93.7343 550.247 80.5928 529.29 63.6244 520.423C33.7311 503.062 19.1455 491.901 41.8182 468.278C70.845 445.089 103.988 460.218 141.751 493.886C142.546 389.472 175.111 292.56 252.299 206.127C219.806 186.968 213.235 160.058 219.301 129.304C167.529 68.5409 156.12 29.7886 165.724 2.38304C199.877 -6.73148 247.822 16.0859 302.988 55.6441C332.087 38.6552 360.464 40.6393 388.046 65.8747C412.019 59.7984 491.373 49.5678 555.275 74.3072C605.025 93.4663 640.84 142.139 664.018 176.365C683.513 205.197 702.143 221.752 706.619 261.434C711.313 302.852 725.393 326.724 725.537 362.624C725.682 402.492 717.811 439.818 713.479 488.925C712.757 497.606 719.4 507.154 718.678 516.269C756.225 489.917 777.309 491.777 796.66 502.752C811.39 516.083 822.799 547.023 808.863 552.727C776.804 565.934 736.874 590.115 741.423 641.454C742.722 656.459 718.822 692.793 694.489 691.987H694.561Z" fill="#FF22FD"/>
<path d="M26.2217 846.934C44.9953 831.557 66.6571 830.875 84.2032 833.727C116.696 838.998 147.456 874.712 154.171 906.21C159.225 930.081 141.824 951.844 150.777 954.572C153.304 955.316 219.156 959.781 253.093 981.668C271 993.201 265.007 1024.88 267.607 1032.2C268.617 1035.11 282.264 1034.99 290.352 1038.59C302.627 1044.04 301.616 1045.78 310.208 1066.61C318.801 1087.45 384.003 1092.28 403.137 1082.73C415.34 1076.66 456.064 1049.07 490.146 1043.55C509.714 1040.39 522.783 1064.88 533.758 1064.01C544.734 1063.14 547.116 1034.99 560.763 1022.47C572.533 1011.62 594.556 1012.05 612.535 1018.31C619.395 1020.73 628.565 1020.3 635.136 1021.6C653.187 1025.26 650.732 1031.52 665.895 1027.74C740.268 1009.07 753.192 928.965 754.564 915.696C755.214 909.558 754.853 873.286 770.016 848.05C787.779 818.474 823.81 799.377 861.141 791.937C870.6 751.015 852.259 740.722 816.012 750.209C784.674 761.679 760.124 780.59 743.445 808.058C729.798 842.346 736.729 893.375 736.657 916.44C736.585 939.505 692.034 977.39 657.375 1002.87C632.392 1013.54 623.51 986.628 604.52 973.607C585.53 960.587 519.173 987.31 517.512 1035.12C500.76 1004.42 459.964 1005.54 374.833 1036.48C368.551 1038.77 357.142 1039.08 350.355 1041.69C328.837 1046.21 311.147 1033.94 303.421 1015.46C296.633 999.339 299.449 977.514 291.507 968.461C271.65 945.768 241.324 953.828 213.669 947.876C192.873 943.412 182.331 934.793 182.331 934.793C172.078 918.486 173.666 910.612 183.198 879.858C192.946 848.36 69.9786 741.342 26.2939 846.872L26.2217 846.934Z" fill="#FF22FD"/>
<path d="M795.144 935.661C798.61 874.092 839.118 833.603 896.81 835.959C918.111 845.384 916.956 869.751 896.81 879.052C876.665 888.352 826.048 909.992 795.144 935.661Z" fill="#FF22FD"/>
<path d="M232.153 387.487C334.903 542.124 571.45 624.837 627.482 454.141C637.518 449.367 654.27 444.469 673.766 433.432C668.567 581.187 647.988 715.052 537.008 767.259C349.561 842.222 203.849 612.932 232.081 387.487H232.153Z" fill="#1C1C1C"/>
<path d="M535.78 305.767C548.344 325.608 567.045 339.496 583.364 332.738C599.682 325.98 642.717 304.154 675.065 319.221C691.889 335.218 700.987 357.168 694.633 391.084L675.065 404.228C686.257 413.467 685.896 422.953 675.065 432.688C603.076 471.068 511.158 488.863 463.574 485.205C415.99 481.547 317.501 451.413 229.915 380.915C224.788 438.702 216.413 518.749 225.799 569.778C235.186 620.807 288.619 736.63 359.164 780.962C407.975 825.853 500.11 833.789 532.386 811.158C564.662 788.527 609.647 722.927 609.647 722.927C588.563 772.53 587.191 809.67 543.434 844.702C413.463 948.806 221.539 746.984 208.831 562.461C203.849 515.711 198.65 465.488 203.704 424.627C208.759 383.767 203.704 351.711 203.704 351.711C209.047 335.9 223.272 315.253 241.901 305.767C260.53 296.28 289.124 291.568 310.714 302.108C322.7 300.868 347.755 321.267 373.533 342.969C375.988 352.951 370.139 355.369 355.481 349.789C355.12 352.083 334.253 326.228 310.714 312.339C297.644 304.651 277.066 315.377 260.603 322.57C237.713 330.444 228.543 342.225 229.915 356.92C229.915 356.92 407.542 456.745 463.574 459.659C519.606 462.574 623.583 440.252 654.631 414.459C671.527 406.026 680.625 353.385 667.339 344.457C660.263 334.04 650.876 327.778 634.197 334.226L573.038 348.053C538.163 339.124 528.632 324.368 535.635 305.767H535.78Z" fill="#4CFF1F"/>
<path d="M510.291 303.597C501.915 269.371 475.993 259.884 433.031 274.455C409.058 293.242 394.545 313.269 416.062 337.885C437.508 360.764 458.014 369.258 477.221 357.602C511.808 345.449 521.339 327.096 510.363 303.659L510.291 303.597ZM452.526 310.665C445.234 314.571 439.24 312.835 434.114 306.883C428.698 298.636 430.648 292.746 434.114 287.414C442.923 281.833 451.66 281.151 460.108 293.118C462.346 301.985 462.78 309.673 452.526 310.665Z" fill="#4CFF1F"/>
<path d="M555.203 275.509L549.138 283.507C549.138 283.507 561.269 294.048 581.775 294.048C602.282 294.048 618.239 284.065 631.02 284.809C643.8 285.553 649.288 294.048 649.288 294.048L655.353 283.507C655.353 283.507 645.389 272.223 631.02 272.223C616.651 272.223 596.65 281.709 585.097 283.135C573.544 284.561 555.203 275.509 555.203 275.509Z" fill="#1C1C1C"/>
<path d="M378.804 275.509L362.774 288.778C357.07 281.523 343.712 274.083 323.35 272.161C302.988 270.239 262.913 256.474 258.22 242.275C274.466 250.521 298.15 259.574 318.512 259.822C338.874 260.07 363.857 267.262 378.804 275.509Z" fill="#1C1C1C"/>
<path d="M395.411 219.954C392.956 227.394 386.963 231.92 378.804 234.648C368.623 220.822 350.644 211.335 325.732 205.693C308.186 206.251 290.063 207.677 271.506 209.971C281.398 193.602 299.305 178.783 333.459 167.25C363.424 177.109 385.302 193.664 395.411 219.954Z" fill="#1C1C1C"/>
<path d="M533.397 247.049C533.397 247.049 541.123 252.754 553.831 252.754C566.54 252.754 604.737 233.78 604.737 233.78C621.344 234.462 632.464 237.191 640.118 241.407C649.938 221.07 636.868 203.027 610.224 186.348C570.655 200.608 545.744 221.194 533.325 247.111L533.397 247.049Z" fill="#1C1C1C"/>
<path d="M476.715 195.772C476.788 173.017 471.011 154.788 457.364 142.573C430.215 123.91 408.481 131.165 390.429 156.338C389.563 164.957 392.379 170.475 403.137 169.173C409.853 166.445 431.226 163.965 440.179 169.173C449.133 174.381 447.255 187.464 456.786 192.92C465.162 195.462 472.094 196.702 476.715 195.772Z" fill="#4CFF1F"/>
<path d="M499.966 181.946C513.396 168.367 519.678 154.416 519.317 140.155C517.656 126.08 511.519 110.455 503.287 94.0864C484.008 99.0467 464.874 100.535 446.172 94.0864L440.829 111.633C466.607 126.886 486.969 149.394 499.966 181.884V181.946Z" fill="#4CFF1F"/>
<path d="M549.138 120.686C551.304 147.224 537.296 169.049 510.436 187.154C508.197 193.664 515.418 190.564 519.317 196.02C522.205 200.051 535.636 195.524 539.751 187.154C543.867 178.783 588.274 180.396 588.418 164.027C581.198 127.072 565.818 121.43 549.138 120.686Z" fill="#4CFF1F"/>
<path d="M252.371 205.011C175.833 285.119 146.373 389.657 140.813 491.405C113.519 472.866 70.0507 447.631 39.7963 474.664C24.4886 502.938 67.3068 511.929 83.6254 534.002C104.06 561.531 105.937 595.819 123.194 624.403C125.072 627.255 127.96 630.727 130.92 632.773C139.369 637.362 149.333 641.33 159.297 641.826C165.218 642.694 161.247 628.867 160.308 625.271C158.864 620.249 156.915 615.164 154.748 610.328L161.608 608.344L186.88 686.965C193.379 710.092 206.737 742.706 208.686 766.453C196.195 745.31 188.18 711.394 179.948 688.639L154.676 610.018L161.536 608.034C165.074 617.211 179.443 647.902 159.153 648.026C147.311 647.406 136.48 643.128 126.732 637.796C122.906 635.254 119.367 631.099 116.985 627.503C96.2615 595.137 98.5721 552.355 65.8627 526.127C45.645 510.998 17.9901 498.164 34.1643 470.82C64.202 442.05 111.714 463.38 139.874 482.973L134.025 485.267C140.524 385.131 168.251 278.981 252.371 205.073V205.011Z" fill="#4CFF1F"/>
<path d="M70.4839 491.095C95.0339 488.987 123.194 492.149 139.657 509.944L133.953 513.789C120.089 496.676 93.5898 492.397 70.6283 493.514L70.4839 491.095Z" fill="#FF22FD"/>
<path d="M718.894 514.719C741.567 500.954 778.176 481.857 801.209 504.922C811.607 514.719 818.611 527.926 816.734 541.442C815.939 546.527 812.69 551.921 807.13 554.463C779.475 566.244 751.604 584.473 747.416 612.436C740.773 640.09 739.257 693.537 693.767 692.483L695.355 686.407C733.336 686.531 735.646 635.316 742.073 611.506C745.611 591.603 761.424 574.428 780.558 563.702C786.913 559.981 793.556 556.819 800.271 553.781C802.87 552.603 807.275 550.991 809.152 548.883C819.694 535.862 810.235 517.447 799.188 506.472C777.093 484.027 741.928 502.752 719.617 515.525L718.894 514.657V514.719Z" fill="#4CFF1F"/>
<path d="M796.083 525.508C759.691 531.584 734.563 553.037 728.137 584.659C732.036 551.735 757.091 527.988 794.133 519.555L796.01 525.508H796.083Z" fill="#4CFF1F"/>
</g>
</svg>
