<svg width="476" height="230" viewBox="0 0 476 230" fill="none" xmlns="http://www.w3.org/2000/svg">
<path d="M2.50849 94.6151C3.3146 94.5371 6.35624 94.1735 8.84021 92.0368C12.3541 89.021 11.6085 85.1506 11.539 84.7896C119.983 63.7008 228.418 42.6225 336.862 21.5338C338.248 25.8113 343.563 28.2205 348.873 27.0685C353.976 25.9653 357.692 21.8653 357.39 17.5516L436.712 2.16428C436.776 2.66569 437.221 5.47966 440.359 7.24003C443.716 9.13194 447.501 8.31054 448.061 8.18464C456.296 50.3176 464.531 92.4505 472.777 134.581C471.898 134.787 468.257 135.737 465.665 138.774C463.171 141.697 463.318 144.595 463.379 145.358L384.057 160.745C383.332 156.366 378.506 153.583 373.497 154.276C368.035 155.03 363.735 159.74 364.747 164.491L38.1886 227.838C38.2045 227.304 38.186 224.46 35.4592 222.419C31.9901 219.835 27.2481 220.851 26.8556 220.944L2.51891 94.613L2.50849 94.6151Z" stroke="#FAFAFA" stroke-width="5" stroke-miterlimit="10"/>
<path d="M349.982 31.4782L350.595 34.6602" stroke="#FAFAFA" stroke-miterlimit="10"/>
<path d="M350.932 36.4149L351.723 40.5204" stroke="#FAFAFA" stroke-miterlimit="10"/>
<path d="M352.068 42.3087L352.848 46.3555" stroke="#FAFAFA" stroke-miterlimit="10"/>
<path d="M353.197 48.1689L353.983 52.2493" stroke="#FAFAFA" stroke-miterlimit="10"/>
<path d="M354.332 54.0628L354.958 57.3119" stroke="#FAFAFA" stroke-miterlimit="10"/>
<path d="M355.456 59.8978L356.076 63.1134" stroke="#FAFAFA" stroke-miterlimit="10"/>
<path d="M356.597 65.8169L357.383 69.8972" stroke="#FAFAFA" stroke-miterlimit="10"/>
<path d="M357.732 71.7107L358.369 75.0186" stroke="#FAFAFA" stroke-miterlimit="10"/>
<path d="M358.851 77.5205L359.653 81.6848" stroke="#FAFAFA" stroke-miterlimit="10"/>
<path d="M359.985 83.406L360.622 86.7139" stroke="#FAFAFA" stroke-miterlimit="10"/>
<path d="M361.12 89.2998L361.746 92.549" stroke="#FAFAFA" stroke-miterlimit="10"/>
<path d="M362.251 95.1685L362.887 98.468" stroke="#FAFAFA" stroke-miterlimit="10"/>
<path d="M363.386 101.062L364.011 104.303" stroke="#FAFAFA" stroke-miterlimit="10"/>
<path d="M364.52 106.948L365.14 110.163" stroke="#FAFAFA" stroke-miterlimit="10"/>
<path d="M365.489 111.977L366.275 116.057" stroke="#FAFAFA" stroke-miterlimit="10"/>
<path d="M366.613 117.812L367.428 122.043" stroke="#FAFAFA" stroke-miterlimit="10"/>
<path d="M367.755 123.739L368.379 126.98" stroke="#FAFAFA" stroke-miterlimit="10"/>
<path d="M369.055 130.489L369.67 133.68" stroke="#FAFAFA" stroke-miterlimit="10"/>
<path d="M370.019 135.493L370.805 139.574" stroke="#FAFAFA" stroke-miterlimit="10"/>
<path d="M371.137 141.295L371.95 145.518" stroke="#FAFAFA" stroke-miterlimit="10"/>
<path d="M372.284 147.247L372.903 150.463" stroke="#FAFAFA" stroke-miterlimit="10"/>
</svg>
