<svg width="476" height="230" viewBox="0 0 476 230" fill="none" xmlns="http://www.w3.org/2000/svg">
<g clip-path="url(#clip0_258_668)">
<path d="M2.50849 94.6151C3.3146 94.5371 6.35624 94.1735 8.84021 92.0368C12.3541 89.021 11.6085 85.1506 11.539 84.7896C119.983 63.7008 228.418 42.6225 336.862 21.5338C338.248 25.8113 343.563 28.2205 348.873 27.0685C353.976 25.9653 357.692 21.8653 357.39 17.5516L436.712 2.16428C436.776 2.66569 437.221 5.47966 440.359 7.24003C443.716 9.13194 447.501 8.31054 448.061 8.18464C456.296 50.3176 464.531 92.4505 472.777 134.581C471.898 134.787 468.257 135.737 465.665 138.774C463.171 141.697 463.318 144.595 463.379 145.358L384.057 160.745C383.332 156.366 378.506 153.583 373.497 154.276C368.035 155.03 363.735 159.74 364.747 164.491L38.1886 227.838C38.2045 227.304 38.186 224.46 35.4592 222.419C31.9901 219.835 27.2481 220.851 26.8556 220.944L2.51891 94.613L2.50849 94.6151Z" stroke="#FAFAFA" stroke-width="5" stroke-miterlimit="10"/>
<path d="M349.981 31.478L350.594 34.66" stroke="#FAFAFA" stroke-miterlimit="10"/>
<path d="M350.933 36.415L351.724 40.5206" stroke="#FAFAFA" stroke-miterlimit="10"/>
<path d="M352.068 42.3086L352.847 46.3554" stroke="#FAFAFA" stroke-miterlimit="10"/>
<path d="M353.197 48.1689L353.983 52.2493" stroke="#FAFAFA" stroke-miterlimit="10"/>
<path d="M354.332 54.063L354.958 57.3121" stroke="#FAFAFA" stroke-miterlimit="10"/>
<path d="M355.456 59.8979L356.076 63.1135" stroke="#FAFAFA" stroke-miterlimit="10"/>
<path d="M356.597 65.8169L357.383 69.8972" stroke="#FAFAFA" stroke-miterlimit="10"/>
<path d="M357.732 71.7104L358.369 75.0184" stroke="#FAFAFA" stroke-miterlimit="10"/>
<path d="M358.851 77.5205L359.654 81.6848" stroke="#FAFAFA" stroke-miterlimit="10"/>
<path d="M359.985 83.4058L360.622 86.7137" stroke="#FAFAFA" stroke-miterlimit="10"/>
<path d="M361.12 89.2998L361.746 92.549" stroke="#FAFAFA" stroke-miterlimit="10"/>
<path d="M362.251 95.1685L362.887 98.468" stroke="#FAFAFA" stroke-miterlimit="10"/>
<path d="M363.386 101.062L364.011 104.303" stroke="#FAFAFA" stroke-miterlimit="10"/>
<path d="M364.52 106.948L365.139 110.163" stroke="#FAFAFA" stroke-miterlimit="10"/>
<path d="M365.489 111.977L366.275 116.057" stroke="#FAFAFA" stroke-miterlimit="10"/>
<path d="M366.613 117.812L367.428 122.043" stroke="#FAFAFA" stroke-miterlimit="10"/>
<path d="M367.755 123.739L368.379 126.98" stroke="#FAFAFA" stroke-miterlimit="10"/>
<path d="M369.055 130.489L369.67 133.68" stroke="#FAFAFA" stroke-miterlimit="10"/>
<path d="M370.019 135.493L370.805 139.574" stroke="#FAFAFA" stroke-miterlimit="10"/>
<path d="M371.137 141.295L371.95 145.518" stroke="#FAFAFA" stroke-miterlimit="10"/>
<path d="M372.283 147.248L372.903 150.463" stroke="#FAFAFA" stroke-miterlimit="10"/>
<path d="M415.359 47.267L415.567 48.2451L412.355 48.9079L411.219 43.5675L416.667 39.3803L415.732 38.634L413.616 39.0705L413.816 40.0095L410.603 40.6723L409.031 33.2779L412.243 32.6151L412.451 33.5932L421.266 31.7745L421.057 30.7964L424.27 30.1335L425.843 37.5279L422.63 38.1908L422.431 37.2518L419.845 37.7853L423.075 40.2839L422.813 39.0515L426.026 38.3887L427.573 45.6657L424.361 46.3285L424.153 45.3504L420.755 42.6413L415.359 47.267ZM418.134 60.314L414.922 60.9768L413.824 55.8125L415.156 55.5377C414.677 55.337 414.219 55.0095 413.781 54.5552C413.346 54.1139 413.05 53.5216 412.892 52.7783C412.684 51.8002 412.781 50.9769 413.185 50.3083C413.588 49.6398 414.266 49.2071 415.219 49.0105C417.687 48.5012 419.399 50.333 420.355 54.5057C420.79 54.375 421.055 54.1435 421.148 53.8112C421.253 53.4762 421.23 52.9501 421.078 52.2329C420.953 51.646 420.753 51.027 420.478 50.3758C420.219 49.7349 419.926 49.1556 419.597 48.638L423.201 47.8943C423.518 48.5505 423.815 49.2721 424.091 50.0591C424.368 50.8461 424.588 51.6243 424.751 52.3937C425.165 54.3369 425.108 55.7985 424.58 56.7787C424.052 57.7588 423.051 58.4011 421.575 58.7056L417.951 59.4533L418.134 60.314ZM418.407 54.8667C418.282 54.2799 418.107 53.8396 417.881 53.5459C417.658 53.2653 417.363 53.1626 416.997 53.2381C416.775 53.2839 416.607 53.3868 416.491 53.5469C416.391 53.7173 416.367 53.9264 416.42 54.1742C416.492 54.5132 416.691 54.7444 417.017 54.8677C417.343 54.991 417.767 54.9988 418.29 54.891L418.407 54.8667ZM427.998 67.6566C428.053 67.9174 428.08 68.1706 428.078 68.4161C428.075 68.6616 428.052 68.8707 428.006 69.0434L424.265 69.8154C424.374 69.2349 424.362 68.6381 424.232 68.0252C424.057 67.2036 423.707 66.6156 423.182 66.2611C422.657 65.9066 421.97 65.8169 421.121 65.992L419.417 66.3437L419.791 68.1042L416.579 68.7671L415.065 61.6465L418.277 60.9837L418.46 61.8444L422.926 60.9229L422.743 60.0622L425.955 59.3994L427.095 64.7593L425.665 65.0544C426.292 65.3064 426.798 65.6375 427.185 66.0477C427.585 66.4552 427.856 66.9915 427.998 67.6566ZM430.192 77.9725C430.247 78.2333 430.274 78.4865 430.272 78.732C430.269 78.9775 430.246 79.1866 430.201 79.3593L426.459 80.1312C426.568 79.5507 426.557 78.954 426.426 78.341C426.251 77.5194 425.901 76.9314 425.376 76.5769C424.851 76.2224 424.164 76.1328 423.315 76.3079L421.611 76.6595L421.986 78.4201L418.773 79.0829L417.259 71.9624L420.471 71.2995L420.654 72.1603L425.12 71.2388L424.937 70.3781L428.149 69.7152L429.289 75.0752L427.86 75.3702C428.486 75.6222 428.992 75.9533 429.379 76.3635C429.78 76.771 430.05 77.3074 430.192 77.9725ZM425.395 94.448L422.182 95.1108L421.042 89.7509L422.57 89.4356C421.169 88.7445 420.319 87.6948 420.019 86.2863C419.789 85.2039 419.955 84.3188 420.517 83.6309C421.083 82.9561 421.96 82.4961 423.148 82.2509L427.281 81.3981L427.098 80.5374L430.31 79.8746L431.45 85.2345L425.026 86.5602C424.595 86.6491 424.294 86.8064 424.124 87.0321C423.97 87.2681 423.933 87.5753 424.013 87.9535C424.094 88.3317 424.251 88.5918 424.486 88.734C424.736 88.8865 425.077 88.9183 425.508 88.8294L428.721 88.1666L428.496 87.1102L431.708 86.4474L432.89 92.003L425.212 93.5873L425.395 94.448ZM423.034 100.46C422.684 98.8166 422.608 97.1782 422.806 95.5446L425.705 94.9465L426.379 98.1155L426.183 98.1559C425.556 98.2852 425.328 98.7477 425.497 99.5432C425.647 100.247 425.963 100.55 426.446 100.45C426.707 100.396 426.881 100.251 426.967 100.016C427.056 99.7932 427.092 99.4182 427.076 98.8907L427.044 97.8762C426.974 95.7533 427.918 94.4898 429.877 94.0856C431.013 93.8512 431.986 94.0997 432.796 94.8311C433.606 95.5625 434.166 96.6585 434.477 98.1191C434.824 99.7492 434.842 101.182 434.532 102.416L431.81 102.978L431.177 100.005L431.373 99.9644C431.634 99.9105 431.811 99.7788 431.902 99.5692C432.01 99.3701 432.028 99.1009 431.956 98.7619C431.817 98.1098 431.539 97.8269 431.121 97.9131C430.899 97.9589 430.748 98.0852 430.67 98.2921C430.591 98.4989 430.551 98.8543 430.549 99.3584L430.571 100.518C430.595 101.724 430.36 102.637 429.865 103.257C429.37 103.876 428.652 104.283 427.712 104.477C426.523 104.722 425.527 104.492 424.723 103.787C423.921 103.095 423.358 101.986 423.034 100.46ZM425.42 111.68C425.026 109.828 425.201 108.281 425.946 107.038C426.703 105.792 428.016 104.977 429.883 104.592C431.75 104.207 433.278 104.436 434.467 105.28C435.668 106.121 436.465 107.467 436.859 109.319C437.25 111.158 437.049 112.582 436.254 113.59C435.476 114.608 434.375 115.264 432.952 115.557L431.541 115.848L430.193 109.51L430.076 109.535C429.592 109.634 429.264 109.852 429.09 110.187C428.929 110.52 428.919 111.019 429.061 111.684C429.23 112.48 429.449 113.224 429.72 113.917C429.99 114.61 430.273 115.205 430.569 115.702L427.435 116.349C427.09 115.943 426.719 115.319 426.321 114.475C425.94 113.642 425.639 112.71 425.42 111.68ZM432.83 111.335L433.066 111.287C433.51 111.195 433.809 111.031 433.963 110.795C434.12 110.572 434.158 110.271 434.078 109.893C433.997 109.515 433.832 109.25 433.581 109.097C433.347 108.955 433.014 108.928 432.583 109.017L432.348 109.066L432.83 111.335ZM426.905 117.413L430.137 116.746L430.32 117.606L439.135 115.788L438.952 114.927L442.164 114.264L443.304 119.624L431.277 122.106L431.46 122.966L428.228 123.633L426.905 117.413ZM383.721 44.064L386.933 43.4012L387.141 44.3793L395.956 42.5605L395.748 41.5824L398.96 40.9196L401.448 52.6176L396.375 53.6644L395.639 50.202L397.499 49.818L397.121 48.0379L393.869 48.7088L394.497 51.6626L392.264 52.1234L391.636 49.1695L388.306 49.8566L388.851 52.4192L385.639 53.082L383.721 44.064ZM387.141 61.4876C386.747 59.6357 386.922 58.0884 387.666 56.8458C388.424 55.6004 389.736 54.785 391.604 54.3997C393.471 54.0144 394.999 54.2437 396.187 55.0876C397.388 55.9289 398.186 57.2754 398.58 59.1273C398.971 60.9661 398.769 62.3895 397.975 63.3974C397.196 64.4157 396.095 65.0717 394.672 65.3654L393.262 65.6564L391.914 59.3183L391.796 59.3426C391.313 59.4423 390.984 59.6598 390.81 59.9952C390.649 60.328 390.64 60.8269 390.781 61.492C390.95 62.2875 391.17 63.0318 391.44 63.7248C391.71 64.4178 391.993 65.0128 392.29 65.5098L389.156 66.1564C388.811 65.7512 388.439 65.1267 388.042 64.283C387.66 63.4497 387.36 62.5178 387.141 61.4876ZM394.551 61.1429L394.786 61.0944C395.23 61.0028 395.529 60.839 395.683 60.603C395.84 60.38 395.879 60.0794 395.798 59.7012C395.718 59.323 395.552 59.0576 395.302 58.9051C395.067 58.763 394.734 58.7363 394.303 58.8253L394.068 58.8738L394.551 61.1429ZM389.382 72.0266C389.033 70.3834 388.957 68.745 389.155 67.1114L392.054 66.5132L392.728 69.6822L392.532 69.7226C391.905 69.852 391.676 70.3144 391.845 71.1099C391.995 71.8141 392.312 72.1164 392.795 72.0167C393.056 71.9628 393.23 71.8181 393.316 71.5825C393.405 71.3599 393.441 70.9849 393.424 70.4574L393.392 69.443C393.323 67.32 394.267 66.0565 396.226 65.6523C397.362 65.4179 398.335 65.6664 399.145 66.3978C399.955 67.1292 400.515 68.2252 400.826 69.6858C401.172 71.316 401.191 72.7484 400.881 73.9831L398.158 74.5449L397.526 71.5715L397.721 71.5311C397.983 71.4772 398.159 71.3455 398.251 71.136C398.358 70.9368 398.376 70.6677 398.304 70.3286C398.165 69.6765 397.887 69.3936 397.469 69.4798C397.247 69.5256 397.097 69.652 397.018 69.8588C396.94 70.0656 396.899 70.4211 396.897 70.9251L396.919 72.0846C396.944 73.2911 396.709 74.2041 396.213 74.8236C395.718 75.4431 395 75.8499 394.06 76.0439C392.872 76.2891 391.876 76.059 391.071 75.3537C390.27 74.6614 389.707 73.5524 389.382 72.0266ZM391.556 82.2487C391.262 80.8664 391.373 79.7544 391.89 78.9127C392.422 78.0814 393.484 77.5014 395.077 77.1727L398.623 76.4411L398.44 75.5804L401.652 74.9176C401.757 75.4132 401.961 75.7592 402.261 75.9558C402.575 76.1497 402.954 76.2009 403.398 76.1093L404.28 75.9274L405.162 80.0745L402.85 80.5514L403.412 83.1923L400.2 83.8551L399.638 81.2143L396.426 81.8771C395.995 81.966 395.694 82.1233 395.524 82.349C395.37 82.585 395.333 82.8921 395.413 83.2703C395.519 83.7659 395.693 84.295 395.935 84.8576L392.86 85.4921C392.638 85.1566 392.402 84.688 392.152 84.0863C391.891 83.5003 391.692 82.8878 391.556 82.2487ZM404.848 84.6557L408.119 83.9807L408.968 87.9714L405.697 88.6463L404.848 84.6557ZM392.68 86.1861L395.892 85.5233L396.076 86.384L400.542 85.4625L400.358 84.6018L403.571 83.939L404.711 89.299L397.033 90.8833L397.216 91.744L394.003 92.4068L392.68 86.1861ZM394.784 96.0787L401.938 92.0295L401.764 91.2079L404.976 90.5451L406.262 96.5897L403.049 97.2526L402.874 96.431L399.217 98.268L399.258 98.4636L403.357 98.7002L403.182 97.8786L406.395 97.2157L407.601 102.889L404.389 103.552L404.214 102.73L396.024 101.908L394.784 96.0787ZM402.426 116.241L399.214 116.904L398.115 111.74L399.447 111.465C398.968 111.264 398.51 110.937 398.073 110.483C397.638 110.041 397.342 109.449 397.184 108.706C396.976 107.728 397.073 106.904 397.476 106.236C397.879 105.567 398.557 105.135 399.511 104.938C401.979 104.429 403.691 106.26 404.646 110.433C405.082 110.302 405.346 110.071 405.439 109.739C405.545 109.404 405.522 108.878 405.369 108.16C405.244 107.573 405.045 106.954 404.77 106.303C404.511 105.662 404.217 105.083 403.889 104.565L407.493 103.822C407.81 104.478 408.106 105.2 408.383 105.987C408.659 106.774 408.879 107.552 409.043 108.321C409.456 110.264 409.399 111.726 408.872 112.706C408.344 113.686 407.342 114.329 405.867 114.633L402.243 115.381L402.426 116.241ZM402.699 110.794C402.574 110.207 402.399 109.767 402.172 109.473C401.949 109.193 401.655 109.09 401.289 109.166C401.067 109.211 400.898 109.314 400.782 109.474C400.682 109.645 400.659 109.854 400.711 110.102C400.783 110.441 400.982 110.672 401.309 110.795C401.635 110.918 402.059 110.926 402.581 110.818L402.699 110.794ZM399.328 117.539L402.56 116.872L402.743 117.733L411.558 115.914L411.375 115.053L414.587 114.39L415.727 119.75L403.7 122.232L403.883 123.093L400.651 123.76L399.328 117.539Z" fill="white"/>
<path d="M76.9298 129.014L78.8936 128.635L75.5134 110.955L73.5496 111.334L72.3177 104.891L90.3447 101.41C93.6176 100.778 96.2981 100.953 98.3863 101.935C100.475 102.917 101.757 104.652 102.232 107.14C102.528 108.685 102.412 110.066 101.884 111.281C101.351 112.471 100.64 113.436 99.7498 114.178C98.8812 114.889 98.0062 115.425 97.1249 115.785L97.2 116.178C99.094 116.003 100.882 116.268 102.565 116.975C104.248 117.683 105.335 119.32 105.825 121.886C106.351 124.637 105.703 126.853 103.879 128.536C102.051 130.193 99.4878 131.339 96.1887 131.976L78.1617 135.457L76.9298 129.014ZM89.8629 114.865C90.6223 114.719 91.1476 114.414 91.4391 113.95C91.7517 113.455 91.8254 112.775 91.6601 111.911L91.3897 110.497C91.2245 109.632 90.9079 109.042 90.44 108.725C89.9933 108.376 89.3903 108.275 88.631 108.422L86.5102 108.832L87.7421 115.275L89.8629 114.865ZM92.2862 126.049C93.0455 125.902 93.5709 125.597 93.8623 125.133C94.1749 124.638 94.2486 123.959 94.0834 123.094L93.7528 121.366C93.5876 120.501 93.271 119.911 92.8032 119.594C92.3565 119.245 91.7535 119.145 90.9942 119.291L88.5984 119.754L89.8904 126.511L92.2862 126.049ZM123.409 127.291C119.298 128.085 115.944 127.795 113.347 126.423C110.776 125.045 109.102 122.327 108.326 118.267L105.809 105.105L103.846 105.484L102.614 99.0409L117.145 96.235L118.377 102.678L116.806 102.982L119.706 118.147C119.871 119.011 120.177 119.618 120.624 119.966C121.091 120.283 121.705 120.368 122.464 120.222C123.224 120.075 123.749 119.77 124.04 119.306C124.353 118.811 124.427 118.132 124.262 117.267L121.362 102.102L119.791 102.405L118.559 95.962L132.03 93.3609L133.262 99.8042L131.298 100.183L133.815 113.345C134.591 117.405 134.065 120.548 132.238 122.775C130.41 125.002 127.467 126.507 123.409 127.291ZM150.617 89.772L162.674 87.4439L163.906 93.8872L162.335 94.1905L157.354 109.248L158.135 113.334L160.099 112.955L161.331 119.398L146.407 122.28L145.175 115.836L147.139 115.457L146.357 111.371L135.943 99.2866L134.372 99.59L133.14 93.1467L148.339 90.2118L149.571 96.6551L148.196 96.9206L151.678 102.563L152.071 102.487L153.223 95.9499L151.849 96.2153L150.617 89.772ZM192.883 81.6108L204.94 79.2827L206.172 85.726L204.601 86.0293L199.62 101.087L200.402 105.173L202.365 104.794L203.597 111.237L188.673 114.119L187.441 107.675L189.405 107.296L188.623 103.21L178.209 91.1255L176.638 91.4288L175.406 84.9855L190.605 82.0507L191.837 88.494L190.462 88.7594L193.944 94.4017L194.337 94.3258L195.49 87.7887L194.115 88.0541L192.883 81.6108ZM225.739 107.532C220.948 108.457 217.002 107.915 213.903 105.906C210.83 103.892 208.766 100.122 207.709 94.5955C206.652 89.0689 207.18 84.7982 209.291 81.7832C211.429 78.7632 214.893 76.7906 219.685 75.8654C224.476 74.9402 228.408 75.4846 231.481 77.4985C234.58 79.5074 236.658 83.2751 237.715 88.8017C238.771 94.3283 238.231 98.6016 236.093 101.622C233.982 104.637 230.53 106.607 225.739 107.532ZM224.402 100.539C225.292 100.367 225.915 100.002 226.27 99.4446C226.625 98.8872 226.707 98.1108 226.517 97.1155L224.248 85.2504C224.058 84.2551 223.695 83.5647 223.16 83.1792C222.625 82.7936 221.912 82.6868 221.022 82.8587C220.131 83.0306 219.509 83.3953 219.154 83.9527C218.799 84.5101 218.717 85.2864 218.907 86.2817L221.175 98.1469C221.371 99.1684 221.736 99.8719 222.271 100.257C222.801 100.617 223.512 100.71 224.402 100.539ZM256.766 101.541C252.655 102.335 249.301 102.045 246.704 100.673C244.132 99.2953 242.459 96.5766 241.683 92.5168L239.166 79.3552L237.203 79.7344L235.971 73.2911L250.502 70.4852L251.734 76.9285L250.163 77.2318L253.063 92.3972C253.228 93.2615 253.534 93.8678 253.98 94.2161C254.448 94.5332 255.062 94.6184 255.821 94.4718C256.581 94.3252 257.106 94.02 257.397 93.5564C257.71 93.0614 257.784 92.3818 257.618 91.5175L254.719 76.3521L253.148 76.6555L251.916 70.2122L265.387 67.611L266.619 74.0543L264.655 74.4335L267.172 87.5951C267.948 91.6549 267.422 94.7983 265.595 97.0252C263.767 99.2521 260.824 100.757 256.766 101.541ZM271.423 91.4592L273.387 91.08L270.007 73.4002L268.043 73.7794L266.811 67.3361L284.838 63.8553C288.216 63.2031 290.927 63.3992 292.973 64.4436C295.019 65.488 296.34 67.5687 296.936 70.6856C297.271 72.4404 297.208 74.0278 296.747 75.4478C296.285 76.8677 295.447 77.9529 294.233 78.7033L294.348 79.0886C296.936 78.9962 298.489 80.2988 299.004 82.9966L299.583 86.0218L301.429 85.6654L302.661 92.1087L290.211 94.5127L288.445 85.2799C288.25 84.2584 287.945 83.5161 287.531 83.0529C287.143 82.5847 286.604 82.3221 285.914 82.2651C285.251 82.2031 284.33 82.2859 283.152 82.5134L284.384 88.9567L286.976 88.4561L288.208 94.8995L272.655 97.9025L271.423 91.4592ZM284.356 77.3107C285.115 77.164 285.641 76.8589 285.932 76.3952C286.245 75.9003 286.319 75.2207 286.153 74.3564L285.883 72.942C285.718 72.0776 285.401 71.4869 284.933 71.1699C284.487 70.8216 283.884 70.7207 283.124 70.8673L281.003 71.2769L282.235 77.7202L284.356 77.3107ZM143.257 157.068L136.502 158.372L135.916 155.308L133.402 155.793L136.783 173.473L139.532 172.942L140.764 179.385L124.268 182.57L123.036 176.127L125.786 175.596L122.405 157.916L119.892 158.402L120.478 161.466L113.723 162.771L111.905 153.263L141.439 147.56L143.257 157.068ZM148.629 177.867L147.397 171.423L149.361 171.044L145.981 153.364L144.017 153.743L142.785 147.3L157.71 144.418L158.941 150.862L156.978 151.241L160.358 168.921L162.322 168.542L163.554 174.985L148.629 177.867ZM180.465 172.29C175.517 173.245 171.453 172.726 168.276 170.732C165.124 168.734 163.02 164.971 161.964 159.444C159.946 148.889 164.069 142.62 174.332 140.638C176.82 140.158 179.181 140.014 181.417 140.207C183.68 140.395 185.404 140.755 186.592 141.286L188.47 151.108L179.044 152.928L178.503 150.099C178.313 149.104 177.95 148.414 177.415 148.028C176.88 147.642 176.167 147.536 175.277 147.708C174.386 147.879 173.764 148.244 173.409 148.802C173.054 149.359 172.971 150.135 173.162 151.131L175.43 162.996C175.621 163.991 175.983 164.681 176.519 165.067C177.054 165.452 177.767 165.559 178.657 165.387C179.547 165.215 180.17 164.851 180.525 164.293C180.88 163.736 180.962 162.96 180.772 161.964L180.163 158.782L189.589 156.962L191.535 167.138C190.601 168.078 189.132 169.055 187.126 170.067C185.147 171.073 182.926 171.814 180.465 172.29ZM221.65 157.086L223.614 156.707L224.845 163.15L214.124 165.22L205.904 154.178L204.383 156.02L205.194 160.263L207.079 159.899L208.311 166.343L193.465 169.209L192.233 162.766L194.197 162.387L190.817 144.707L188.853 145.086L187.621 138.643L202.467 135.776L203.699 142.22L201.814 142.584L202.805 147.77L207.901 141.408L205.427 141.886L204.195 135.443L218.805 132.621L220.037 139.065L218.073 139.444L212.551 146.132L221.65 157.086ZM226.258 162.877L225.026 156.434L226.99 156.055L223.609 138.375L221.646 138.754L220.414 132.311L246.924 127.192L249.193 139.057L240.395 140.756L239.358 135.334L234.606 136.252L235.793 142.459L239.249 141.792L240.106 146.271L236.649 146.938L237.986 153.931L242.739 153.014L241.552 146.806L250.349 145.108L252.768 157.758L226.258 162.877ZM279.529 130.755L272.774 132.06L272.188 128.995L269.674 129.48L273.054 147.16L275.804 146.629L277.035 153.073L260.54 156.258L259.308 149.814L262.057 149.284L258.677 131.604L256.164 132.089L256.75 135.154L249.994 136.458L248.177 126.95L277.711 121.247L279.529 130.755Z" fill="white"/>
</g>
<defs>
<clipPath id="clip0_258_668">
<rect width="456.218" height="145.652" fill="white" transform="matrix(0.9817 -0.190435 0.189164 0.981946 0 86.8799)"/>
</clipPath>
</defs>
</svg>
