<svg width="965" height="349" viewBox="0 0 965 349" fill="none" xmlns="http://www.w3.org/2000/svg">
<path d="M1.34864 22.1004C3.05585 22.2807 9.5254 22.8001 15.5487 18.9469C24.0666 13.5119 24.0731 4.17883 24.0737 3.30828C258.002 2.93277 491.907 2.57754 725.835 2.20204C726.996 12.7688 737.077 20.7548 748.579 20.4589C759.632 20.1837 769.006 12.3183 770.113 2.15395L941.206 1.96816C941.138 3.16271 940.931 9.90463 946.746 15.405C952.965 21.3099 961.165 21.0986 962.378 21.0568C962.555 122.708 962.732 224.36 962.931 326.012C961.022 326.095 953.069 326.67 946.46 332.569C940.098 338.244 939.24 345.048 939.059 346.85L767.966 347.036C768.22 336.528 759.308 327.893 748.615 327.257C736.956 326.561 726.122 335.582 726.316 347.081L21.949 347.846C22.197 346.61 23.3023 339.989 18.454 334.022C12.2814 326.457 2.01472 326.691 1.16102 326.732L1.3711 22.1004L1.34864 22.1004Z" fill="#FF22FD" stroke="#FAFAFA" stroke-width="6" stroke-miterlimit="10"/>
<path d="M749.111 31.2085L749.106 38.8815" stroke="white" stroke-width="6" stroke-miterlimit="10"/>
<path d="M749.103 43.1128L749.096 53.0127" stroke="white" stroke-width="6" stroke-miterlimit="10"/>
<path d="M749.093 57.3252L749.086 67.0834" stroke="white" stroke-width="6" stroke-miterlimit="10"/>
<path d="M749.083 71.4565L749.076 81.2958" stroke="white" stroke-width="6" stroke-miterlimit="10"/>
<path d="M749.073 85.6685L749.068 93.5034" stroke="white" stroke-width="6" stroke-miterlimit="10"/>
<path d="M749.063 99.7393L749.058 107.493" stroke="white" stroke-width="6" stroke-miterlimit="10"/>
<path d="M749.054 114.012L749.047 123.851" stroke="white" stroke-width="6" stroke-miterlimit="10"/>
<path d="M749.044 128.224L749.038 136.201" stroke="white" stroke-width="6" stroke-miterlimit="10"/>
<path d="M749.034 142.234L749.027 152.276" stroke="white" stroke-width="6" stroke-miterlimit="10"/>
<path d="M749.024 156.426L749.019 164.403" stroke="white" stroke-width="6" stroke-miterlimit="10"/>
<path d="M749.015 170.638L749.009 178.473" stroke="white" stroke-width="6" stroke-miterlimit="10"/>
<path d="M749.005 184.79L748.999 192.746" stroke="white" stroke-width="6" stroke-miterlimit="10"/>
<path d="M748.995 199.002L748.99 206.817" stroke="white" stroke-width="6" stroke-miterlimit="10"/>
<path d="M748.985 213.194L748.98 220.948" stroke="white" stroke-width="6" stroke-miterlimit="10"/>
<path d="M748.977 225.321L748.97 235.16" stroke="white" stroke-width="6" stroke-miterlimit="10"/>
<path d="M748.967 239.392L748.96 249.595" stroke="white" stroke-width="6" stroke-miterlimit="10"/>
<path d="M748.958 253.685L748.952 261.499" stroke="white" stroke-width="6" stroke-miterlimit="10"/>
<path d="M748.946 269.962L748.941 277.655" stroke="white" stroke-width="6" stroke-miterlimit="10"/>
<path d="M748.938 282.028L748.931 291.868" stroke="white" stroke-width="6" stroke-miterlimit="10"/>
<path d="M748.928 296.018L748.921 306.201" stroke="white" stroke-width="6" stroke-miterlimit="10"/>
<path d="M748.918 310.372L748.913 318.126" stroke="white" stroke-width="6" stroke-miterlimit="10"/>
</svg>
