<svg width="966" height="348" viewBox="0 0 966 348" fill="none" xmlns="http://www.w3.org/2000/svg">
<path d="M2.10938 21.1697C3.81659 21.3501 10.2861 21.8694 16.3094 18.0163C24.8274 12.5813 24.8338 3.24816 24.8344 2.37761C258.762 2.00211 492.668 1.64688 726.596 1.27137C727.756 11.8382 737.838 19.8241 749.34 19.5282C760.393 19.253 769.766 11.3877 770.874 1.22329L941.967 1.03749C941.899 2.23204 941.692 8.97396 947.507 14.4744C953.726 20.3793 961.925 20.1679 963.139 20.1261C963.316 121.778 963.493 223.429 963.692 325.081C961.782 325.164 953.829 325.74 947.221 331.638C940.859 337.314 940.001 344.117 939.82 345.919L768.727 346.105C768.981 335.597 760.068 326.962 749.375 326.326C737.717 325.63 726.882 334.651 727.077 346.15L22.7098 346.915C22.9577 345.68 24.0631 339.058 19.2148 333.091C13.0421 325.526 2.77546 325.76 1.92176 325.801L2.13184 21.1697L2.10938 21.1697Z" fill="#FF22FD" fill-opacity="0.39" stroke="#FF22FD" stroke-width="6" stroke-miterlimit="10"/>
<path d="M749.872 30.2778L749.866 37.9508" stroke="#FF22FD" stroke-width="6" stroke-miterlimit="10"/>
<path d="M749.863 42.1821L749.856 52.0821" stroke="#FF22FD" stroke-width="6" stroke-miterlimit="10"/>
<path d="M749.854 56.3945L749.847 66.1528" stroke="#FF22FD" stroke-width="6" stroke-miterlimit="10"/>
<path d="M749.844 70.5259L749.837 80.3651" stroke="#FF22FD" stroke-width="6" stroke-miterlimit="10"/>
<path d="M749.834 84.7378L749.829 92.5727" stroke="#FF22FD" stroke-width="6" stroke-miterlimit="10"/>
<path d="M749.824 98.8086L749.819 106.563" stroke="#FF22FD" stroke-width="6" stroke-miterlimit="10"/>
<path d="M749.815 113.082L749.808 122.921" stroke="#FF22FD" stroke-width="6" stroke-miterlimit="10"/>
<path d="M749.805 127.293L749.799 135.27" stroke="#FF22FD" stroke-width="6" stroke-miterlimit="10"/>
<path d="M749.795 141.303L749.788 151.345" stroke="#FF22FD" stroke-width="6" stroke-miterlimit="10"/>
<path d="M749.785 155.496L749.78 163.472" stroke="#FF22FD" stroke-width="6" stroke-miterlimit="10"/>
<path d="M749.776 169.708L749.77 177.542" stroke="#FF22FD" stroke-width="6" stroke-miterlimit="10"/>
<path d="M749.766 183.859L749.76 191.815" stroke="#FF22FD" stroke-width="6" stroke-miterlimit="10"/>
<path d="M749.756 198.071L749.751 205.886" stroke="#FF22FD" stroke-width="6" stroke-miterlimit="10"/>
<path d="M749.746 212.263L749.741 220.017" stroke="#FF22FD" stroke-width="6" stroke-miterlimit="10"/>
<path d="M749.738 224.39L749.731 234.229" stroke="#FF22FD" stroke-width="6" stroke-miterlimit="10"/>
<path d="M749.728 238.461L749.721 248.665" stroke="#FF22FD" stroke-width="6" stroke-miterlimit="10"/>
<path d="M749.718 252.754L749.713 260.569" stroke="#FF22FD" stroke-width="6" stroke-miterlimit="10"/>
<path d="M749.707 269.031L749.702 276.724" stroke="#FF22FD" stroke-width="6" stroke-miterlimit="10"/>
<path d="M749.699 281.098L749.692 290.937" stroke="#FF22FD" stroke-width="6" stroke-miterlimit="10"/>
<path d="M749.689 295.087L749.682 305.27" stroke="#FF22FD" stroke-width="6" stroke-miterlimit="10"/>
<path d="M749.679 309.441L749.674 317.195" stroke="#FF22FD" stroke-width="6" stroke-miterlimit="10"/>
</svg>
