<svg width="68" height="67" viewBox="0 0 68 67" fill="none" xmlns="http://www.w3.org/2000/svg">
<path d="M34.09 0C15.746 0 0.882568 14.8713 0.882568 33.2074C0.882568 51.5434 15.7539 66.4148 34.09 66.4148C52.426 66.4148 67.2974 51.5434 67.2974 33.2074C67.2974 14.8713 52.426 0 34.09 0ZM49.4834 39.8046C49.4834 42.4229 47.3476 44.5587 44.7293 44.5587H24.2891C21.6708 44.5587 19.535 42.4229 19.535 39.8046V26.6498C19.535 24.0315 21.6708 21.8957 24.2891 21.8957H44.7293C47.3476 21.8957 49.4834 24.0315 49.4834 26.6498V39.8046Z" fill="white"/>
<path d="M30.7361 36.9408L38.591 32.7562L30.7361 28.5796V36.9408Z" fill="white"/>
</svg>
